<?xml version="1.0" encoding="utf-8"?>
<!-- Generator: Adobe Illustrator 28.0.0, SVG Export Plug-In . SVG Version: 6.00 Build 0)  -->
<svg version="1.1" id="Layer_1" xmlns="http://www.w3.org/2000/svg" xmlns:xlink="http://www.w3.org/1999/xlink" x="0px" y="0px"
	 viewBox="0 0 577 495" style="enable-background:new 0 0 577 495;" xml:space="preserve">
<style type="text/css">
	.st0{opacity:0.13;}
	.st1{fill:none;stroke:url(#SVGID_1_);stroke-width:7;}
	.st2{fill:none;stroke:url(#SVGID_00000011723582248842871640000017003048180337302963_);stroke-width:7;}
	.st3{fill:none;stroke:url(#SVGID_00000141444915501847636570000016060179234354522537_);stroke-width:7;}
	.st4{fill:none;stroke:url(#SVGID_00000180348575297323976470000014195505278178808480_);stroke-width:7;}
	.st5{fill:none;stroke:url(#SVGID_00000069369207592382589240000004380052688054930066_);stroke-width:7;}
	.st6{fill:#D0D0D0;}
	.st7{fill:#E0E0E0;}
	.st8{fill:#EBEBEB;}
	.st9{fill:#E6E6E6;}
	.st10{fill:#F0F0F0;}
	.st11{fill:#F5F5F5;}
	.st12{fill:#504ED8;}
	.st13{fill:#343384;}
	.st14{opacity:0.2;fill:#343384;enable-background:new    ;}
	.st15{fill:#FF8B7B;}
	.st16{opacity:0.2;fill:#263238;enable-background:new    ;}
	.st17{fill:#263238;}
	.st18{fill:#09C4D0;}
	.st19{fill:#FFFFFF;}
	.st20{fill:#FF5652;}
	.st21{fill:url(#SVGID_00000000195749654486161940000010400376548531869329_);}
	.st22{fill:url(#SVGID_00000047771395887591142980000011869003022663701157_);}
	.st23{fill:url(#SVGID_00000154386026650567230120000011100302764720497306_);}
	.st24{fill:url(#SVGID_00000074432675245712458630000013329007052554480549_);}
	.st25{fill:url(#SVGID_00000139286342626922214020000000048267425594239143_);}
	.st26{fill:url(#SVGID_00000097460961370429021760000005358384416280569782_);}
	.st27{fill:url(#SVGID_00000017510020494011238820000007047694679545522090_);}
	.st28{fill:url(#SVGID_00000148622190498858968140000008315535163992920989_);}
	.st29{fill:url(#SVGID_00000152986730647224517830000006607374963503995309_);}
	.st30{fill:url(#SVGID_00000055665495328202733610000009823592793811649159_);}
	.st31{fill:url(#SVGID_00000145020674075143207320000004636987173771003283_);}
	.st32{fill:url(#SVGID_00000052083303308923694480000011722161496995320497_);}
	.st33{fill:url(#SVGID_00000173838969695214914140000005263486515610193068_);}
	.st34{fill:url(#SVGID_00000155110735128058370940000000731651125947533457_);}
	.st35{fill:url(#SVGID_00000040532565048552678080000013354028798560466334_);}
	.st36{fill:url(#SVGID_00000028295896088807585200000002782006429502647465_);}
	.st37{fill:url(#SVGID_00000073696890270258158600000015136445824049973393_);}
</style>
<g class="st0">
	
		<linearGradient id="SVGID_1_" gradientUnits="userSpaceOnUse" x1="494.8749" y1="468.3492" x2="72.7211" y2="46.1959" gradientTransform="matrix(1 0 0 -1 0 495.8898)">
		<stop  offset="0" style="stop-color:#00CAD7"/>
		<stop  offset="1" style="stop-color:#504ED8"/>
	</linearGradient>
	<path class="st1" d="M487.1,21.1c38.8,52.9-17.4,126.6-11.5,192c5.2,58.3,66.6,111.8,43.5,165.7c-23,53.7-97,57.2-149.8,82.3
		c-50.8,24.1-96.6,65-152.6,61.5c-58.2-3.7-113.5-35.5-150.2-80.8c-34.8-43-44.7-101.1-41.9-156.4c2.5-48,38.8-84.3,56.6-129
		c20.5-51.6,12.1-118.1,55.6-152.7c45.2-35.9,109.4-27.3,166.9-24.4C367.9-17.6,449-30.7,487.1,21.1z"/>
	
		<linearGradient id="SVGID_00000108306723610201489910000004068592100216958133_" gradientUnits="userSpaceOnUse" x1="475.646" y1="449.1205" x2="91.9469" y2="65.4208" gradientTransform="matrix(1 0 0 -1 0 495.8898)">
		<stop  offset="0" style="stop-color:#00CAD7"/>
		<stop  offset="1" style="stop-color:#504ED8"/>
	</linearGradient>
	<path style="fill:none;stroke:url(#SVGID_00000108306723610201489910000004068592100216958133_);stroke-width:7;" d="M468.6,40.9
		c35.3,48.1-15.8,115-10.5,174.5c4.7,53,60.5,101.6,39.5,150.6c-20.9,48.8-88.2,52-136.1,74.8c-46.1,21.9-87.8,59.1-138.7,55.9
		c-52.9-3.4-103.2-32.3-136.5-73.4C54.6,384.1,45.6,331.3,48.2,281c2.2-43.7,35.2-76.6,51.4-117.3c18.7-46.9,11-107.3,50.5-138.8
		c41-32.7,99.4-24.8,151.7-22.2C360.2,5.7,434-6.2,468.6,40.9z"/>
	
		<linearGradient id="SVGID_00000131332512005287559320000002318235769067347351_" gradientUnits="userSpaceOnUse" x1="451.1188" y1="424.5953" x2="116.4728" y2="89.948" gradientTransform="matrix(1 0 0 -1 0 495.8898)">
		<stop  offset="0" style="stop-color:#00CAD7"/>
		<stop  offset="1" style="stop-color:#504ED8"/>
	</linearGradient>
	<path style="fill:none;stroke:url(#SVGID_00000131332512005287559320000002318235769067347351_);stroke-width:7;" d="M444.9,66.2
		c30.8,41.9-13.8,100.3-9.2,152.2c4.1,46.2,52.8,88.6,34.5,131.3c-18.2,42.5-76.9,45.3-118.7,65.2c-40.2,19.1-76.5,51.6-120.9,48.7
		c-46.2-2.9-90-28.2-119.1-64.1c-27.6-34.1-35.5-80.1-33.2-124c2-38.1,30.7-66.8,44.8-102.3c16.3-40.9,9.6-93.6,44-121
		c35.8-28.5,86.7-21.6,132.3-19.3C350.5,35.5,414.8,25.1,444.9,66.2z"/>
	
		<linearGradient id="SVGID_00000023966490108509214510000009534817597246405046_" gradientUnits="userSpaceOnUse" x1="419.6439" y1="393.121" x2="147.9489" y2="121.425" gradientTransform="matrix(1 0 0 -1 0 495.8898)">
		<stop  offset="0" style="stop-color:#00CAD7"/>
		<stop  offset="1" style="stop-color:#504ED8"/>
	</linearGradient>
	<path style="fill:none;stroke:url(#SVGID_00000023966490108509214510000009534817597246405046_);stroke-width:7;" d="M414.6,98.6
		c25,34-11.2,81.5-7.4,123.6c3.4,37.5,42.9,71.9,28,106.6c-14.8,34.5-62.5,36.8-96.4,52.9c-32.7,15.5-62.1,41.9-98.2,39.6
		c-37.5-2.4-73.1-22.9-96.7-52c-22.4-27.7-28.8-65.1-27-100.7c1.6-30.9,25-54.3,36.4-83.1c13.2-33.2,7.8-76,35.8-98.3
		c29.1-23.1,70.4-17.6,107.4-15.7C337.9,73.7,390.1,65.3,414.6,98.6z"/>
	
		<linearGradient id="SVGID_00000077291830788237323390000004772800426471931561_" gradientUnits="userSpaceOnUse" x1="385.037" y1="358.5199" x2="182.545" y2="156.0289" gradientTransform="matrix(1 0 0 -1 0 495.8898)">
		<stop  offset="0" style="stop-color:#00CAD7"/>
		<stop  offset="1" style="stop-color:#504ED8"/>
	</linearGradient>
	<path style="fill:none;stroke:url(#SVGID_00000077291830788237323390000004772800426471931561_);stroke-width:7;" d="M381.3,134.3
		c18.6,25.4-8.3,60.7-5.5,92.1c2.5,28,31.9,53.6,20.8,79.5c-11,25.7-46.6,27.4-71.8,39.5c-24.3,11.6-46.3,31.2-73.2,29.5
		c-27.9-1.8-54.5-17-72-38.8c-16.7-20.6-21.5-48.5-20.1-75c1.2-23,18.6-40.4,27.1-61.9c9.8-24.7,5.8-56.7,26.6-73.2
		c21.7-17.2,52.5-13.1,80.1-11.7C324.1,115.7,363,109.4,381.3,134.3z"/>
</g>
<path class="st6" d="M521.5,129.3l18.9-18.7l-4-7.7c0.3-0.8,0.7-1.5,0.9-2.3l8.3-2.5l0.2-26.6l-8.2-2.6c-0.3-0.8-0.6-1.6-0.9-2.3
	l4.1-7.6l-18.7-19l-7.7,4c-0.8-0.4-1.5-0.7-2.3-0.9l-2.5-8.3L483,34.5l-2.7,8.2c-0.8,0.3-1.6,0.6-2.3,0.9l-7.6-4.1l-19,18.7l4,7.7
	c-0.3,0.8-0.7,1.5-0.9,2.3l-8.3,2.6l-0.2,26.6l8.2,2.6c0.3,0.8,0.6,1.6,0.9,2.3l-4.1,7.6l18.7,19l7.7-4c0.8,0.3,1.5,0.7,2.3,0.9
	l2.5,8.3l26.6,0.2l2.6-8.2c0.8-0.3,1.6-0.6,2.3-0.9L521.5,129.3z M509.8,98.6c-2.8,2.8-6.3,4.6-10.2,5.3c-3.8,0.7-7.8,0.3-11.4-1.2
	c-3.6-1.5-6.7-4.1-8.8-7.4s-3.3-7.1-3.3-11c0-3.9,1.2-7.7,3.4-11c2.2-3.2,5.3-5.8,8.9-7.2c3.6-1.5,7.6-1.8,11.5-1
	c3.8,0.8,7.4,2.7,10.1,5.5c1.8,1.9,3.3,4,4.3,6.5c1,2.4,1.5,5,1.5,7.6c0,2.6-0.5,5.2-1.6,7.6S511.7,96.7,509.8,98.6z"/>
<path class="st6" d="M58.7,310.9L75.9,294l-3.6-7c0.3-0.7,0.6-1.4,0.9-2.1l7.5-2.3l0.2-24.2l-7.5-2.4c-0.3-0.7-0.6-1.4-0.9-2.1
	l3.7-6.9l-17-17.3l-7,3.6c-0.7-0.3-1.4-0.6-2.1-0.9l-2.3-7.5l-24.2-0.2l-2.4,7.5c-0.7,0.3-1.4,0.5-2.1,0.9l-6.9-3.7l-17.3,17l3.6,7
	c-0.3,0.7-0.6,1.4-0.9,2.1l-7.5,2.3l-0.2,24.2l7.5,2.4c0.3,0.7,0.6,1.4,0.9,2.1l-3.7,6.9l17,17.2l7-3.6c0.7,0.3,1.4,0.6,2.1,0.9
	l2.3,7.5l24.2,0.2l2.4-7.5c0.7-0.3,1.4-0.6,2.1-0.9L58.7,310.9z M48.1,282.9c-2.5,2.5-5.8,4.2-9.3,4.9c-3.5,0.7-7.1,0.3-10.4-1.1
	c-3.3-1.4-6.1-3.7-8-6.7c-2-3-3-6.5-3-10c0-3.6,1.1-7,3.1-10c2-2.9,4.8-5.2,8.1-6.6c3.3-1.3,6.9-1.7,10.4-1c3.5,0.7,6.7,2.5,9.2,5
	c1.7,1.7,3,3.7,3.9,5.9c0.9,2.2,1.3,4.5,1.3,6.9c0,2.4-0.5,4.7-1.4,6.9C51.1,279.3,49.8,281.3,48.1,282.9z"/>
<path class="st7" d="M107.3,85.6h70.4c5.8,38.2-21.2,69.6-59.8,69.6c-12.8-0.1-25.4-3.3-36.6-9.3L107.3,85.6z"/>
<path class="st8" d="M106.9,85.6l37.2-54.2c8.9,6.6,16.4,14.9,22.3,24.3c5.7,9.1,9.5,19.3,11.1,29.9H106.9z"/>
<path class="st9" d="M107.2,85.6L96.7,15c8.3,0,16.5,1.5,24.4,4.3c8.1,2.9,15.8,7,22.7,12.3L107.2,85.6z"/>
<path class="st10" d="M106.9,85.2L81.1,146c-23.5-12.5-40.3-35.7-44-60.8C31.3,46.7,58.1,15,96.4,15L106.9,85.2z"/>
<path class="st7" d="M446.2,257.4h-59.4c-4.9,32.2,17.8,58.7,50.4,58.7c10.8-0.1,21.4-2.8,30.9-7.9L446.2,257.4z"/>
<path class="st8" d="M446.6,257.4l-31.4-45.7c-7.5,5.6-13.9,12.5-18.8,20.5c-4.8,7.7-8,16.3-9.4,25.2H446.6z"/>
<path class="st9" d="M446.4,257.4l8.8-59.6c-7,0-14,1.2-20.6,3.6c-6.9,2.4-13.3,5.9-19.1,10.3L446.4,257.4z"/>
<path class="st10" d="M446.6,257l21.7,51.3c19.8-10.6,34-30.1,37.1-51.3c4.9-32.5-17.7-59.2-50-59.2L446.6,257z"/>
<path class="st11" d="M260.6,447.2c136,0,246.2-6.4,246.2-14.4c0-7.9-110.2-14.4-246.2-14.4s-246.2,6.4-246.2,14.4
	C14.4,440.7,124.6,447.2,260.6,447.2z"/>
<path class="st12" d="M147.6,406.2h68v26.6h-65.2c-0.7,0-1.5-0.3-2-0.8c-0.5-0.5-0.8-1.2-0.8-2L147.6,406.2L147.6,406.2z"/>
<path class="st12" d="M215.5,406.2h-68l23.2-13.4h37L215.5,406.2z"/>
<path class="st12" d="M237.6,432.8h-22.1v-26.6h24.9V430c0,0.7-0.3,1.5-0.8,2C239,432.5,238.3,432.8,237.6,432.8z"/>
<path class="st13" d="M237.6,432.8h-22.1v-26.6h24.9V430c0,0.7-0.3,1.5-0.8,2C239,432.5,238.3,432.8,237.6,432.8z"/>
<path class="st12" d="M215.5,406.2h24.8l-23.2-13.4h-9.3L215.5,406.2z"/>
<path class="st13" d="M215.5,406.2h24.8l-23.2-13.4h-9.3L215.5,406.2z"/>
<path class="st12" d="M174.7,200.5l-1.6-15.5l-5.8-13.3l13.4,4.8l11.2,8.7l5.4,6.3l-11.6,12.5L174.7,200.5z"/>
<path class="st13" d="M174.7,200.5l-1.6-15.5l-5.8-13.3l13.4,4.8l11.2,8.7l5.4,6.3l-11.6,12.5L174.7,200.5z"/>
<path class="st12" d="M183.8,189.7l3.9-18l37.8,7.9l18,23.3l4.5,33.1l-3.7,29.3l-8.7,20.7l-21.2-78.8L183.8,189.7z"/>
<path class="st13" d="M184.4,194.1l7.3-12.5l-0.2-9.2l21.3,4.4l15.3,18.1l6.6,25.2l-4.2,34.4l-9.4-28.5L184.4,194.1z"/>
<path class="st12" d="M170.8,392.8l-21.9-16.5l-9.5-25.1l8.1-26.6l25-20.9l6.8-46.1l-5.9-18.7l47.6-40.8l16.5,98.8l2.9,67.8
	l-23.2,28.1H170.8z"/>
<path class="st14" d="M143.9,363.1l5,13.2l4.9,3.7l16.4,6.6l-14.7-10.9L143.9,363.1z"/>
<path class="st13" d="M179.4,257.7l-2.3,15.8l20.6-5.2l11.8-13.3l1.3-13.2L179.4,257.7z"/>
<path class="st12" d="M216.3,240.9l-21,22.1l-27.7,4.2l-16.5-6.4l-13.6,3.3l-15.6-2.7l-8,0.4l-10.2-4.7l-4.1-8.2l3.3-15.7l6.6-5.8
	l5.2-1.2l34.4-20.8l5.3-8.2l35.7-11.1l31.2,12L216.3,240.9z"/>
<path class="st13" d="M101.4,252.7l11.5,1.6l9,7.2l-8,0.4l-10.2-4.7L101.4,252.7z"/>
<path class="st13" d="M118.8,240.9l6.2-2.8l9,4.7l-10.6,0.5L118.8,240.9z"/>
<path class="st13" d="M237.5,297l-6.9,18.8l-4.6,47.2l-21,24.8l-13-0.7l-21.2,5.8h46.3l23.2-28.1L237.5,297z"/>
<path class="st12" d="M189.5,200.8l5.4-19.1l-1.3-16l12.5,9.2l10.4,17.4l2.8,8.8l-19.2,8L189.5,200.8z"/>
<path class="st13" d="M194,191.8l7.9,5.3l5.6-5.3l-1.7-8.9l-9.3-7.7l1.6,7.7L194,191.8z"/>
<path class="st13" d="M151.2,201.9l17.8,2.9l12.6,0.8l-13.1,4.5l-19.5-4.7L151.2,201.9z"/>
<path class="st15" d="M271.8,419l6.9,2.4l7.5-15.2l-6.9-2.5L271.8,419z"/>
<path class="st16" d="M286.2,406.2l-3.9,7.8l-6.9-2.5l3.9-7.8L286.2,406.2z"/>
<path class="st17" d="M278.9,420.6l-7.5-2.7c-0.1,0-0.3-0.1-0.4,0c-0.1,0-0.3,0.1-0.3,0.3l-3.5,5.6c-0.1,0.1-0.1,0.3-0.2,0.4
	s0,0.3,0.1,0.5c0.1,0.2,0.1,0.3,0.3,0.4c0.1,0.1,0.3,0.2,0.4,0.3c2.7,0.9,6.7,2.1,10.1,3.4c4,1.4,5.1,4.1,10.1,4.1
	c4.1,0,4.5-2.1,3.3-2.6c-5.5-2.1-7.1-4-10.7-8.5C280,421.2,279.5,420.8,278.9,420.6z"/>
<path class="st18" d="M311.9,340.2c0.9-22.2-14.7-81-14.7-81l-25.4,3.4c9.2,26.3,16.5,47.7,19.5,74.8c3.5,13.4-17.6,71.9-17.6,71.9
	l11.6,4.1C285.4,413.4,311,363.3,311.9,340.2z"/>
<path class="st16" d="M281,274.3l-3.6,4.3c0.4,1.1,0.7,2.2,1,3.2c4.1,12.1,7.5,24.5,10.1,37.1C288.9,305.7,290.3,281.8,281,274.3z"
	/>
<path class="st17" d="M286.8,414.2l-13.8-4.9l1.6-4.5l14,4.8L286.8,414.2z"/>
<path class="st18" d="M279.2,421.8c1,0.6,2.9,1.6,3.9,1.2c0.1-0.1,0.3-0.1,0.4-0.3c0.1-0.1,0.2-0.3,0.2-0.4c0-0.1,0-0.2,0-0.3
	c0-0.1-0.1-0.2-0.1-0.2c-0.7-0.8-3.9-0.3-4.3-0.3c0,0-0.1,0-0.1,0c0,0,0,0.1-0.1,0.1C279.2,421.6,279.2,421.7,279.2,421.8
	C279.2,421.7,279.2,421.8,279.2,421.8z M283.3,422L283.3,422c0.1,0.1,0.1,0.1,0.1,0.1c0,0,0,0.1,0,0.1c0,0.1-0.1,0.2-0.1,0.3
	c-0.1,0.1-0.2,0.1-0.2,0.2c-0.6,0.2-1.7-0.1-3.1-0.9C281.2,421.6,282.9,421.6,283.3,422z"/>
<path class="st18" d="M279.2,421.8c0,0,0.1,0,0.1,0c0.9-0.1,3.1-1,3.3-1.8c0-0.2,0-0.5-0.4-0.7c-0.2-0.1-0.3-0.1-0.5-0.1
	c-0.2,0-0.3,0-0.5,0.1c-1.1,0.4-2,2.2-2,2.3c0,0,0,0.1,0,0.1S279.2,421.7,279.2,421.8L279.2,421.8z M282.2,419.8
	c0.1,0.1,0.1,0.2,0.1,0.2c-0.1,0.5-1.6,1.3-2.6,1.5c0.4-0.8,0.9-1.4,1.7-1.8c0.1,0,0.2-0.1,0.4-0.1s0.3,0,0.4,0.1
	C282.1,419.7,282.2,419.7,282.2,419.8z"/>
<path class="st15" d="M263.6,425.4h7.3l0.6-16.9h-7.3L263.6,425.4z"/>
<path class="st17" d="M271.6,424.5h-8.9c-0.1,0-0.3,0-0.4,0.1c-0.1,0.1-0.2,0.2-0.2,0.4l-1.4,6.5c0,0.2,0,0.3,0,0.5
	c0,0.2,0.1,0.3,0.2,0.4c0.1,0.1,0.2,0.2,0.4,0.3c0.1,0.1,0.3,0.1,0.5,0.1c2.9,0,4.9-0.2,8.5-0.2c2.2,0,8.9,0.2,11.9,0.2
	c3.1,0,3.5-3,2.2-3.3c-5.6-1.2-9.8-2.9-11.6-4.5C272.4,424.7,272,424.5,271.6,424.5z"/>
<path class="st15" d="M293.6,202.3l7.3,14.1c2.4,4.7,4.9,9.4,7.6,13.6l1,1.5c0.2,0.2,0.3,0.5,0.5,0.7c0.3,0.3,0.4,0.4,0.8,0.5
	c0.7,0.1,1.3,0,1.9-0.3c1-0.3,1.9-0.8,2.8-1.3c2.1-1.3,4-2.7,5.8-4.4c0.9-0.8,1.9-1.7,2.8-2.6c0.9-0.9,1.9-1.9,2.7-2.7l4.5,3.1
	c-0.7,1.3-1.4,2.5-2.2,3.6c-0.8,1.2-1.6,2.3-2.5,3.5c-1.8,2.4-3.9,4.5-6.1,6.4c-1.3,1-2.7,1.9-4.2,2.7c-1.8,0.9-3.8,1.4-5.9,1.4
	c-2.4,0-4.7-0.9-6.6-2.4c-0.8-0.7-1.6-1.4-2.2-2.3l-1.3-1.8c-3.2-4.5-6.2-9.2-8.9-14.1c-2.7-4.8-5.2-9.6-7.5-14.5L293.6,202.3z"/>
<path class="st17" d="M280.5,203c-1.2,6.9,10.6,26.1,10.6,26.1l12.4-13.5c0,0-3-10.5-9-15.5C288.7,195.3,281.8,195,280.5,203z"/>
<path class="st16" d="M295.2,218.8c-2.7-6.2-8.5-9.7-13.8-9.5c2.7,8.4,9.7,19.7,9.7,19.7l5.5-6C296.2,221.6,295.8,220.2,295.2,218.8
	z"/>
<path class="st15" d="M325.4,223l3.3-4.9l7.7,5.5c0,0-6.3,5.3-10.2,3L325.4,223z"/>
<path class="st15" d="M337.8,217.2l5.7,2.2l-7.2,4.1l-7.7-5.5L337.8,217.2z"/>
<path class="st16" d="M264.2,408.5h7.3l-0.3,8.7h-7.3L264.2,408.5z"/>
<path class="st17" d="M247.9,201.9c2.6,7.7,4.7,15.6,6.2,23.6c1,5.6,1.8,10.9,2.4,15.8c1.3,11.4,1.6,20.1,2.2,23l38.6-5.2
	c-0.6-42.5-8.8-62.3-8.8-62.3c-3.1-0.4-6.2-0.6-9.3-0.5c-0.7,0-1.3,0-2,0c-5.5,0.4-11,1.1-16.4,2.2c-1,0.2-2.1,0.4-3.1,0.6
	C252.4,200.4,247.9,201.9,247.9,201.9z"/>
<path class="st16" d="M256.5,210.9l-5.3,2c1.1,4.3,2.1,8.5,2.8,12.6c0.1,0.7,0.3,1.3,0.4,2C257,222.6,257.5,217,256.5,210.9z"/>
<path class="st15" d="M259.7,179.9c1.7,5.1,4.1,14.7,0.9,18.7c1.8,1.5,4,2.6,6.3,3.1c2.3,0.6,4.7,0.7,7,0.2c4.5-0.7,4.3-3.9,3.1-5.5
	c-6.1-0.6-6.5-5-6-9.2L259.7,179.9z"/>
<path class="st18" d="M270.4,202.5l0.3,0.5l2.8-1.1l-1.3-0.8L270.4,202.5z"/>
<path class="st18" d="M275.9,201.7l-2.4,0.3l0.1-1.3l1.4-0.2L275.9,201.7z"/>
<path class="st19" d="M261.1,196.9c3,2.8,7,4.3,11.1,4.3c-1.5,0.9-1.8,4.8-1.8,4.8s-8.4-1.9-11.2-7.4
	C259.8,197.9,260.4,197.3,261.1,196.9z"/>
<path class="st19" d="M275.5,195.8c0,0,2.1,3.4-1.9,4.9c3.1,0.5,4.1,4.5,4.1,4.5s3.2-3.2,0.8-9C277.5,196,276.5,195.9,275.5,195.8z"
	/>
<path class="st16" d="M264.3,182.8l6.6,4.3c-0.1,1-0.2,2-0.1,3c-2.3,0-5.7-2.1-6.3-4.4C264.3,184.8,264.2,183.8,264.3,182.8z"/>
<path class="st15" d="M258,172c1.4,7.1,1.9,11.3,6,14.5c6.2,4.8,14.6,0.3,15.3-7c0.7-6.6-1.7-17.1-9.1-19c-1.6-0.4-3.3-0.4-5,0
	c-1.6,0.4-3.1,1.2-4.3,2.4c-1.2,1.2-2.1,2.6-2.6,4.2C257.8,168.7,257.7,170.4,258,172z"/>
<path class="st17" d="M261.6,179.2c0.6-2.9,0.3-5.8-0.9-8.5c0.8-1.5,2.7-5.1,2.2-7.4c-3-0.9-9.5,0-9.5,0S249.3,173.9,261.6,179.2z"
	/>
<path class="st17" d="M257.3,165.8c3.4,0.5,16.9-1,19.7-6.9c1-2.1-2.5-0.1-4.5,0.2c-2,0.4-14.1-0.4-17.4,0.1
	C253.1,159.4,248,164.4,257.3,165.8z"/>
<path class="st17" d="M253.8,159.7c-1.7-4.9,11.7-0.6,15.7-2.8c5.9-3.4,8-2.2,6.6,0.1c-1.4,2.3-2.3,3.1-8.9,3.1
	S254.9,162.6,253.8,159.7z"/>
<path class="st15" d="M255.4,179.2c1.2,1.4,2.8,2.3,4.6,2.4c2.4,0.2,3.1-2.1,2.1-4.1c-0.9-1.9-3.3-4.1-5.6-3.4
	C254.4,175,254.1,177.5,255.4,179.2z"/>
<path class="st18" d="M283.5,261c0,0-0.7,62.8-2.5,84c-1.9,23.2-6.5,70.5-6.5,70.5h-13.3c0,0-0.3-43.3,1-66
	c1.5-25.9-3.6-85.1-3.6-85.1L283.5,261z"/>
<path class="st17" d="M276.1,415.8h-15.7l-0.4-5h17L276.1,415.8z"/>
<path class="st17" d="M269.1,172.6c0.1,0.6,0.4,1,0.8,0.9c0.4-0.1,0.6-0.6,0.5-1.1c-0.1-0.6-0.5-1-0.8-0.9
	C269.3,171.5,269.1,172,269.1,172.6z"/>
<path class="st17" d="M275.7,171.7c0.1,0.6,0.4,1,0.8,0.9c0.4-0.1,0.6-0.6,0.5-1.2c-0.1-0.6-0.4-1-0.8-0.9
	C275.9,170.6,275.6,171.1,275.7,171.7z"/>
<path class="st20" d="M273.7,172.2c0.9,1.7,2.1,3.3,3.5,4.6c-0.4,0.3-0.8,0.6-1.2,0.8c-0.5,0.2-1,0.2-1.5,0.2L273.7,172.2z"/>
<path class="st17" d="M272.2,179.6c0.3,0,0.5,0,0.8-0.1c0,0,0,0,0.1,0c0,0,0,0,0.1,0c0,0,0,0,0-0.1c0,0,0,0,0-0.1c0,0,0,0,0-0.1
	c0,0,0,0,0,0c0,0,0,0-0.1,0c0,0,0,0-0.1,0c-0.7,0.1-1.5,0.1-2.2-0.2c-0.7-0.2-1.3-0.6-1.8-1.1c0,0-0.1,0-0.1,0c0,0-0.1,0-0.1,0
	c0,0,0,0,0,0.1c0,0,0,0,0,0.1c0,0,0,0,0,0.1c0,0,0,0,0,0.1c0.5,0.5,1,0.8,1.6,1.1C270.9,179.5,271.5,179.6,272.2,179.6z"/>
<path class="st17" d="M266.8,170.7c0.1,0,0.1,0,0.2,0c0.1,0,0.1-0.1,0.1-0.1c0.2-0.4,0.5-0.7,0.8-1c0.4-0.2,0.8-0.4,1.2-0.5
	c0,0,0.1,0,0.1,0c0,0,0.1,0,0.1-0.1s0.1-0.1,0.1-0.1c0,0,0-0.1,0-0.1c0-0.1-0.1-0.2-0.1-0.2s-0.2-0.1-0.2-0.1
	c-0.5,0.1-1.1,0.3-1.5,0.6c-0.4,0.3-0.8,0.7-1.1,1.2c0,0,0,0.1,0,0.1c0,0,0,0.1,0,0.1c0,0,0,0.1,0.1,0.1c0,0,0.1,0.1,0.1,0.1
	C266.7,170.7,266.8,170.7,266.8,170.7z"/>
<path class="st17" d="M278.3,169c0.1,0,0.1,0,0.2-0.1c0.1-0.1,0.1-0.1,0.1-0.2c0-0.1,0-0.2,0-0.3c-0.3-0.5-0.7-0.8-1.2-1.1
	c-0.5-0.3-1-0.4-1.6-0.5c-0.1,0-0.2,0-0.2,0.1c-0.1,0.1-0.1,0.2-0.1,0.2c0,0.1,0,0.2,0.1,0.2c0.1,0.1,0.2,0.1,0.2,0.1
	c0.4,0,0.9,0.2,1.2,0.4c0.4,0.2,0.7,0.5,0.9,0.9c0,0,0.1,0.1,0.1,0.1C278.1,169,278.2,169,278.3,169z"/>
<path class="st18" d="M274,425.8c0.5,0,1-0.1,1.4-0.4c0.1-0.1,0.2-0.3,0.3-0.4c0.1-0.2,0.1-0.3,0.1-0.5c0-0.1,0-0.2-0.1-0.3
	c-0.1-0.1-0.1-0.2-0.2-0.2c-0.8-0.4-3.2,1-3.4,1.2c0,0,0,0-0.1,0.1c0,0,0,0.1,0,0.1c0,0,0,0.1,0,0.1c0,0,0.1,0,0.1,0
	C272.7,425.7,273.3,425.8,274,425.8z M275.1,424.3c0.1,0,0.1,0,0.2,0c0,0,0.1,0,0.1,0.1c0,0,0,0.1,0,0.1c0,0.1,0,0.2,0,0.3
	c0,0.1-0.1,0.2-0.2,0.3c-0.4,0.3-1.3,0.4-2.6,0.1C273.3,424.8,274.2,424.4,275.1,424.3z"/>
<path class="st18" d="M272.1,425.5L272.1,425.5c0.8-0.4,2.3-2,2.1-2.8c0-0.1-0.1-0.2-0.2-0.3c-0.1-0.1-0.2-0.1-0.4-0.1
	c-0.1,0-0.3,0-0.4,0c-0.1,0-0.2,0.1-0.3,0.2c-0.8,0.7-1,2.8-1,2.9c0,0,0,0.1,0,0.1C272,425.5,272,425.5,272.1,425.5
	C272,425.6,272.1,425.5,272.1,425.5z M273.6,422.6L273.6,422.6c0.3,0,0.3,0.1,0.3,0.2c0.1,0.5-0.8,1.7-1.6,2.3
	c0.1-0.8,0.3-1.6,0.9-2.3C273.3,422.6,273.4,422.6,273.6,422.6L273.6,422.6z"/>
<path class="st15" d="M253.8,213.2l-1.9,2.7c-0.6,0.9-1.2,1.9-1.9,2.8c-1.2,1.9-2.4,3.8-3.5,5.7c-2.3,3.8-4.2,7.7-5.9,11.8l-0.6,1.5
	l-0.2,0.7c0,0,0-0.1,0-0.1c-0.1-0.1-0.1,0.4,0.1,1.1c0.7,1.7,1.7,3.3,2.9,4.6c1.4,1.7,2.9,3.3,4.4,4.9c0.8,0.8,1.6,1.6,2.4,2.4
	l2.5,2.3l-3,4.6c-4.5-2.2-8.7-4.9-12.5-8.2c-2.2-1.9-4-4.1-5.4-6.6c-1-1.8-1.4-3.7-1.4-5.7c0-0.6,0.1-1.2,0.3-1.9l0.1-0.3l0.1-0.2
	l0.1-0.5l0.5-1.9c1.6-4.8,3.5-9.4,5.9-13.7c1.2-2.2,2.4-4.3,3.7-6.3c0.7-1,1.3-2.1,2-3.1c0.7-1,1.4-2,2.2-3.1L253.8,213.2z"/>
<path class="st17" d="M247.9,201.9c-6.5,2.3-13.9,20.2-13.9,20.2l16.1,7.4c2.9-4.7,5-9.9,6.1-15.3
	C258,204.6,255.8,199.1,247.9,201.9z"/>
<path class="st15" d="M253.1,254.2l1.9,4.9l-8,1.1c0,0-2.2-6,0.9-7.6h2.6c0.5,0,1.1,0.2,1.5,0.4
	C252.5,253.3,252.9,253.7,253.1,254.2z"/>
<path class="st15" d="M254.1,264.8l-6.1,0.9l-1-5.5l8-1.1L254.1,264.8z"/>
<path class="st18" d="M376.2,203.5c41.6,0,75.2-33.7,75.2-75.2c0-41.6-33.7-75.2-75.2-75.2S301,86.7,301,128.2
	C301,169.8,334.7,203.5,376.2,203.5z"/>
<path class="st19" d="M416.1,115.6c0-7.2-1.9-14.2-5.6-20.4c-3.7-6.2-8.9-11.3-15.2-14.7c-6.3-3.4-13.4-5.1-20.6-4.9
	c-7.2,0.3-14.1,2.5-20.1,6.4c-6,3.9-10.9,9.4-14.1,15.8c-3.2,6.4-4.6,13.6-4.1,20.8c0.5,7.2,3,14.1,7.1,19.9
	c4.1,5.9,9.7,10.6,16.3,13.5v7.1h32.8V152c7-3.2,12.9-8.3,17.1-14.7S416.1,123.3,416.1,115.6z"/>
<path class="st12" d="M389.9,177.9h-27.4l-2.9-18.8h33.1L389.9,177.9z"/>
<path class="st13" d="M383.1,181.7h-13.7l-1.4-3.8h16.6L383.1,181.7z"/>
<path class="st18" d="M371.8,124.4c-0.9-2.7-2.5-5.1-4.5-7.1c-4.7-4.7-10.5-6.3-13.1-3.6c-1.3,1.4-1.7,3.5-0.9,6.1
	c0.9,2.7,2.5,5.1,4.5,7.1c3.1,3.2,6.7,4.9,9.6,4.9c0.7,0,1.3-0.1,1.9-0.3l2.6,27.4c0,0.2,0.1,0.5,0.3,0.6c0.2,0.2,0.4,0.3,0.7,0.3
	h0.1c0.1,0,0.3,0,0.4-0.1c0.1-0.1,0.2-0.1,0.3-0.2c0.1-0.1,0.1-0.2,0.2-0.3c0-0.1,0-0.3,0-0.4l-2.8-28.6c0.5-0.8,0.9-1.8,1-2.8
	C372.3,126.4,372.1,125.4,371.8,124.4z M359.2,125.5c-1.8-1.7-3.1-3.9-4-6.2c-0.3-0.7-0.4-1.4-0.4-2.1c0.1-0.7,0.3-1.4,0.7-2
	c0.3-0.3,0.6-0.5,1-0.6c0.4-0.1,0.7-0.2,1.1-0.2c2.1,0,5.2,1.4,8.2,4.4c1.8,1.7,3.1,3.9,4,6.2c0.3,0.7,0.4,1.4,0.4,2.1
	c-0.1,0.7-0.3,1.4-0.7,2C367.9,130.8,363.5,129.7,359.2,125.5z"/>
<path class="st18" d="M398.3,113.8c-1.4-1.4-3.5-1.7-6.1-0.9c-2.6,1-5,2.5-7,4.5c-2,2-3.5,4.4-4.5,7.1c-0.4,0.9-0.5,1.9-0.4,2.9
	c0.1,1,0.4,2,1,2.8l-2.8,28.5c0,0.3,0.1,0.5,0.2,0.7c0.2,0.2,0.4,0.3,0.7,0.4h0.1c0.2,0,0.5-0.1,0.7-0.3c0.2-0.2,0.3-0.4,0.3-0.6
	l2.6-27.4c0.6,0.2,1.3,0.3,2,0.3c2.8,0,6.5-1.8,9.6-4.9c2-2,3.6-4.4,4.5-7.1C399.9,117.3,399.6,115.1,398.3,113.8z M397.2,119.3
	c-0.8,2.4-2.2,4.5-4,6.2c-4.1,4.2-8.7,5.3-10.3,3.6c-0.4-0.6-0.7-1.3-0.7-2c-0.1-0.7,0.1-1.5,0.4-2.1c0.8-2.4,2.2-4.5,4-6.2
	c1.7-1.8,3.8-3.2,6.2-4c0.7-0.2,1.3-0.3,2-0.3c0.8,0,1.5,0.2,2.1,0.7c0.4,0.6,0.7,1.3,0.8,2C397.7,117.9,397.5,118.7,397.2,119.3
	L397.2,119.3z"/>
<radialGradient id="SVGID_00000038412057105154620240000009025055829549093298_" cx="-9.2642" cy="667.1929" r="1" gradientTransform="matrix(98.7288 -20.6779 -20.6779 -98.7288 15201.9678 66016.5)" gradientUnits="userSpaceOnUse">
	<stop  offset="0" style="stop-color:#504ED8"/>
	<stop  offset="1" style="stop-color:#504ED8"/>
</radialGradient>
<path style="fill:url(#SVGID_00000038412057105154620240000009025055829549093298_);" d="M508.9,427c37.6,0,68-30.4,68-68
	s-30.4-68-68-68s-68,30.4-68,68S471.4,427,508.9,427z"/>
<radialGradient id="SVGID_00000073694355140955085800000005471237068986025917_" cx="-9.2376" cy="667.3641" r="1" gradientTransform="matrix(109.8114 -22.999 -22.999 -109.8114 16857.6523 73408.5234)" gradientUnits="userSpaceOnUse">
	<stop  offset="0" style="stop-color:#00CAD7"/>
	<stop  offset="0.1121" style="stop-color:#00CAD7;stop-opacity:0.8879"/>
	<stop  offset="0.2691" style="stop-color:#00CAD7;stop-opacity:0.7309"/>
	<stop  offset="0.3703" style="stop-color:#00CAD7;stop-opacity:0.5537"/>
	<stop  offset="0.5109" style="stop-color:#00CAD7;stop-opacity:0.3412"/>
	<stop  offset="0.6672" style="stop-color:#00CAD7;stop-opacity:0"/>
</radialGradient>
<path style="fill:url(#SVGID_00000073694355140955085800000005471237068986025917_);" d="M508.9,427c37.6,0,68-30.4,68-68
	s-30.4-68-68-68s-68,30.4-68,68S471.4,427,508.9,427z"/>
<linearGradient id="SVGID_00000109723164465736958980000010792731025661408928_" gradientUnits="userSpaceOnUse" x1="149.6897" y1="398.7057" x2="0.7345" y2="398.2738" gradientTransform="matrix(1 0 0 -1 0 495.8898)">
	<stop  offset="0.4588" style="stop-color:#504ED8"/>
	<stop  offset="1" style="stop-color:#00CAD7"/>
</linearGradient>
<path style="fill:url(#SVGID_00000109723164465736958980000010792731025661408928_);" d="M114.9,194.4l-114-36.8L149.4,0
	L114.9,194.4z"/>
<linearGradient id="SVGID_00000134219014772596531700000003650573766003481005_" gradientUnits="userSpaceOnUse" x1="135.7487" y1="455.302" x2="-38.7631" y2="345.1825" gradientTransform="matrix(1 0 0 -1 0 495.8898)">
	<stop  offset="0" style="stop-color:#00CAD7"/>
	<stop  offset="0.3911" style="stop-color:#504ED8"/>
</linearGradient>
<path style="fill:url(#SVGID_00000134219014772596531700000003650573766003481005_);" d="M0.9,157.6l38.2-86.2L149.4,0L0.9,157.6z"
	/>
<radialGradient id="SVGID_00000108990632808177203040000007326381380353881993_" cx="-9.4278" cy="666.1424" r="1" gradientTransform="matrix(60.9795 -12.7716 -12.7716 -60.9795 9162.5938 40799.9688)" gradientUnits="userSpaceOnUse">
	<stop  offset="0" style="stop-color:#504ED8"/>
	<stop  offset="1" style="stop-color:#504ED8"/>
</radialGradient>
<path style="fill:url(#SVGID_00000108990632808177203040000007326381380353881993_);" d="M90.9,355c23.2,0,42-18.8,42-42
	s-18.8-42-42-42c-23.2,0-42,18.8-42,42S67.7,355,90.9,355z"/>
<radialGradient id="SVGID_00000042699235776390187200000005483649331566099100_" cx="-9.3847" cy="666.4197" r="1" gradientTransform="matrix(67.8248 -14.2053 -14.2053 -67.8248 10185.248 45365.75)" gradientUnits="userSpaceOnUse">
	<stop  offset="0" style="stop-color:#00CAD7"/>
	<stop  offset="0.1121" style="stop-color:#00CAD7;stop-opacity:0.8879"/>
	<stop  offset="0.2691" style="stop-color:#00CAD7;stop-opacity:0.7309"/>
	<stop  offset="0.3703" style="stop-color:#00CAD7;stop-opacity:0.5537"/>
	<stop  offset="0.5109" style="stop-color:#00CAD7;stop-opacity:0.3412"/>
	<stop  offset="0.6672" style="stop-color:#00CAD7;stop-opacity:0"/>
</radialGradient>
<path style="fill:url(#SVGID_00000042699235776390187200000005483649331566099100_);" d="M90.9,355c23.2,0,42-18.8,42-42
	s-18.8-42-42-42c-23.2,0-42,18.8-42,42S67.7,355,90.9,355z"/>
<linearGradient id="SVGID_00000075152088668595541330000012900628970400184963_" gradientUnits="userSpaceOnUse" x1="148.1935" y1="22.0379" x2="31.8751" y2="-12.7241" gradientTransform="matrix(1 0 0 -1 0 495.8898)">
	<stop  offset="0" style="stop-color:#504ED8"/>
	<stop  offset="1" style="stop-color:#00CAD7"/>
</linearGradient>
<path style="fill:url(#SVGID_00000075152088668595541330000012900628970400184963_);" d="M130.8,464c1.3,0,2.4,1.1,2.4,2.4v25.3
	c0,1.3-1.1,2.4-2.4,2.4s-2.4-1.1-2.4-2.4v-25.3C128.4,465.1,129.5,464,130.8,464z"/>
<linearGradient id="SVGID_00000097492139191912792080000003803236218646814638_" gradientUnits="userSpaceOnUse" x1="146.9139" y1="26.3176" x2="30.5957" y2="-8.4444" gradientTransform="matrix(1 0 0 -1 0 495.8898)">
	<stop  offset="0" style="stop-color:#504ED8"/>
	<stop  offset="1" style="stop-color:#00CAD7"/>
</linearGradient>
<path style="fill:url(#SVGID_00000097492139191912792080000003803236218646814638_);" d="M115.2,464c1.3,0,2.4,1.1,2.4,2.4v25.3
	c0,1.3-1.1,2.4-2.4,2.4c-1.3,0-2.4-1.1-2.4-2.4v-25.3C112.8,465.1,113.9,464,115.2,464z"/>
<linearGradient id="SVGID_00000172408508967683332090000008500547995068922272_" gradientUnits="userSpaceOnUse" x1="145.6355" y1="30.5965" x2="29.3171" y2="-4.1655" gradientTransform="matrix(1 0 0 -1 0 495.8898)">
	<stop  offset="0" style="stop-color:#504ED8"/>
	<stop  offset="1" style="stop-color:#00CAD7"/>
</linearGradient>
<path style="fill:url(#SVGID_00000172408508967683332090000008500547995068922272_);" d="M99.6,464c1.3,0,2.4,1.1,2.4,2.4v25.3
	c0,1.3-1.1,2.4-2.4,2.4c-1.3,0-2.4-1.1-2.4-2.4v-25.3C97.3,465.1,98.3,464,99.6,464z"/>
<linearGradient id="SVGID_00000062890326143247804180000002556558332193719222_" gradientUnits="userSpaceOnUse" x1="144.3647" y1="34.85" x2="28.0465" y2="8.804064e-02" gradientTransform="matrix(1 0 0 -1 0 495.8898)">
	<stop  offset="0" style="stop-color:#504ED8"/>
	<stop  offset="1" style="stop-color:#00CAD7"/>
</linearGradient>
<path style="fill:url(#SVGID_00000062890326143247804180000002556558332193719222_);" d="M84.1,464c1.3,0,2.4,1.1,2.4,2.4v25.3
	c0,1.3-1.1,2.4-2.4,2.4c-1.3,0-2.4-1.1-2.4-2.4v-25.3C81.7,465.1,82.8,464,84.1,464z"/>
<linearGradient id="SVGID_00000180344245990234992100000015859550412485063302_" gradientUnits="userSpaceOnUse" x1="143.0861" y1="39.1299" x2="26.7674" y2="4.3679" gradientTransform="matrix(1 0 0 -1 0 495.8898)">
	<stop  offset="0" style="stop-color:#504ED8"/>
	<stop  offset="1" style="stop-color:#00CAD7"/>
</linearGradient>
<path style="fill:url(#SVGID_00000180344245990234992100000015859550412485063302_);" d="M68.5,464c1.3,0,2.4,1.1,2.4,2.4v25.3
	c0,1.3-1.1,2.4-2.4,2.4c-1.3,0-2.4-1.1-2.4-2.4v-25.3C66.1,465.1,67.2,464,68.5,464z"/>
<linearGradient id="SVGID_00000024695762361073263450000005916341784553102229_" gradientUnits="userSpaceOnUse" x1="141.806" y1="43.408" x2="25.489" y2="8.647" gradientTransform="matrix(1 0 0 -1 0 495.8898)">
	<stop  offset="0" style="stop-color:#504ED8"/>
	<stop  offset="1" style="stop-color:#00CAD7"/>
</linearGradient>
<path style="fill:url(#SVGID_00000024695762361073263450000005916341784553102229_);" d="M52.9,464c1.3,0,2.4,1.1,2.4,2.4v25.3
	c0,1.3-1.1,2.4-2.4,2.4c-1.3,0-2.4-1.1-2.4-2.4v-25.3C50.6,465.1,51.6,464,52.9,464z"/>
<linearGradient id="SVGID_00000162324191222077612900000005741689593668739005_" gradientUnits="userSpaceOnUse" x1="140.5362" y1="47.6614" x2="24.2177" y2="12.9004" gradientTransform="matrix(1 0 0 -1 0 495.8898)">
	<stop  offset="0" style="stop-color:#504ED8"/>
	<stop  offset="1" style="stop-color:#00CAD7"/>
</linearGradient>
<path style="fill:url(#SVGID_00000162324191222077612900000005741689593668739005_);" d="M37.4,464c1.3,0,2.4,1.1,2.4,2.4v25.3
	c0,1.3-1.1,2.4-2.4,2.4c-1.3,0-2.4-1.1-2.4-2.4v-25.3C35,465.1,36.1,464,37.4,464z"/>
<linearGradient id="SVGID_00000121246057860154552730000013030249487070826124_" gradientUnits="userSpaceOnUse" x1="176.8099" y1="403.6067" x2="214.6209" y2="484.6302" gradientTransform="matrix(1 0 0 -1 0 495.8898)">
	<stop  offset="0.6255" style="stop-color:#504ED8"/>
	<stop  offset="1" style="stop-color:#00CAD7"/>
</linearGradient>
<path style="fill:url(#SVGID_00000121246057860154552730000013030249487070826124_);" d="M204.9,43c-6.1,0-11-4.9-11-11
	s4.9-11,11-11s11,4.9,11,11S211,43,204.9,43z M204.9,26.7c-2.9,0-5.3,2.4-5.3,5.3s2.4,5.3,5.3,5.3s5.3-2.4,5.3-5.3
	S207.8,26.7,204.9,26.7z"/>
<linearGradient id="SVGID_00000096021341918213031960000013720000493786601403_" gradientUnits="userSpaceOnUse" x1="517.1465" y1="344.3922" x2="450.6245" y2="271.3492" gradientTransform="matrix(1 0 0 -1 0 495.8898)">
	<stop  offset="0" style="stop-color:#504ED8"/>
	<stop  offset="1" style="stop-color:#00CAD7"/>
</linearGradient>
<path style="fill:url(#SVGID_00000096021341918213031960000013720000493786601403_);" d="M479.3,222.8l-28.4-28.4h28.4V222.8z"/>
<linearGradient id="SVGID_00000096055473695074315750000010608394107108821911_" gradientUnits="userSpaceOnUse" x1="517.8089" y1="343.7889" x2="451.2869" y2="270.745" gradientTransform="matrix(1 0 0 -1 0 495.8898)">
	<stop  offset="0" style="stop-color:#504ED8"/>
	<stop  offset="1" style="stop-color:#00CAD7"/>
</linearGradient>
<path style="fill:url(#SVGID_00000096055473695074315750000010608394107108821911_);" d="M493.9,208.1l-28.4-28.4h28.4V208.1z"/>
<linearGradient id="SVGID_00000130605316006480798780000011947256282227496853_" gradientUnits="userSpaceOnUse" x1="518.5269" y1="343.136" x2="452.0049" y2="270.092" gradientTransform="matrix(1 0 0 -1 0 495.8898)">
	<stop  offset="0" style="stop-color:#504ED8"/>
	<stop  offset="1" style="stop-color:#00CAD7"/>
</linearGradient>
<path style="fill:url(#SVGID_00000130605316006480798780000011947256282227496853_);" d="M508.6,193.4L480.2,165h28.4V193.4z"/>
</svg>
