<?xml version="1.0" encoding="utf-8"?>
<!-- Generator: Adobe Illustrator 28.0.0, SVG Export Plug-In . SVG Version: 6.00 Build 0)  -->
<svg version="1.1" id="Layer_1" xmlns="http://www.w3.org/2000/svg" xmlns:xlink="http://www.w3.org/1999/xlink" x="0px" y="0px"
	 viewBox="0 0 577 495" style="enable-background:new 0 0 577 495;" xml:space="preserve">
<style type="text/css">
	.st0{opacity:0.13;}
	.st1{fill:none;stroke:url(#SVGID_1_);stroke-width:7;}
	.st2{fill:none;stroke:url(#SVGID_00000151518886293019961290000003408470878590309528_);stroke-width:7;}
	.st3{fill:none;stroke:url(#SVGID_00000068663629362284453200000015328927947094406804_);stroke-width:7;}
	.st4{fill:none;stroke:url(#SVGID_00000031885708369279948480000012225684817696008616_);stroke-width:7;}
	.st5{fill:none;stroke:url(#SVGID_00000086658340975404316590000018202568290888971440_);stroke-width:7;}
	.st6{fill:#D0D0D0;}
	.st7{fill:#F0F0F0;}
	.st8{fill:#E0E0E0;}
	.st9{fill:#504ED8;}
	.st10{fill:#09C4D0;}
	.st11{fill:#F8F8F8;}
	.st12{fill:#FFFFFF;}
	.st13{fill:#F5F5F5;}
	.st14{fill:#00CAD7;}
	.st15{opacity:0.9;fill:#504ED8;enable-background:new    ;}
	.st16{fill:#FF8B7B;}
	.st17{fill:#263238;}
	.st18{opacity:0.3;enable-background:new    ;}
	.st19{fill:#EA7063;}
	.st20{opacity:0.1;fill:#FFFFFF;enable-background:new    ;}
	.st21{opacity:0.4;enable-background:new    ;}
	.st22{opacity:0.4;fill:#FFFFFF;enable-background:new    ;}
	.st23{fill:#FF5652;}
	.st24{fill:#B55B52;}
	.st25{opacity:0.5;enable-background:new    ;}
	.st26{fill:#A02724;}
	.st27{fill:#9E4541;}
	.st28{opacity:0.6;enable-background:new    ;}
	.st29{opacity:0.8;fill:#FFFFFF;enable-background:new    ;}
	.st30{opacity:0.6;fill:#FFFFFF;enable-background:new    ;}
	.st31{fill:url(#SVGID_00000020366851564473701440000017807202913168070827_);}
	.st32{fill:url(#SVGID_00000154396469616986046900000008918654596825051037_);}
	.st33{fill:url(#SVGID_00000023276831719693177400000015052030247113030806_);}
	.st34{fill:url(#SVGID_00000093884329531454965760000011756271899836253586_);}
	.st35{fill:url(#SVGID_00000165212320151074601970000004821654178794199186_);}
	.st36{fill:url(#SVGID_00000156589141080833817150000017330583455756000146_);}
	.st37{fill:url(#SVGID_00000163789807152509263830000007160282561890834330_);}
	.st38{fill:url(#SVGID_00000108306395805228930110000015267699280939102634_);}
	.st39{fill:url(#SVGID_00000178196137064398484740000004824880437787769994_);}
	.st40{fill:url(#SVGID_00000112606737428754207090000017380974311072611475_);}
	.st41{fill:url(#SVGID_00000158021023654585174880000013236652544061104797_);}
	.st42{fill:url(#SVGID_00000157273719291532635080000008479544060207231641_);}
	.st43{fill:url(#SVGID_00000056394895383595285020000006022380228236537735_);}
	.st44{fill:url(#SVGID_00000016056934207091406670000015397426026158680745_);}
	.st45{fill:url(#SVGID_00000181782537169624730420000011921069126801161369_);}
	.st46{fill:url(#SVGID_00000152247474253528571490000015831117946737383852_);}
	.st47{fill:url(#SVGID_00000154389973063552527040000003383627501951254679_);}
</style>
<g class="st0">
	
		<linearGradient id="SVGID_1_" gradientUnits="userSpaceOnUse" x1="494.8749" y1="468.3492" x2="72.7211" y2="46.1959" gradientTransform="matrix(1 0 0 -1 0 495.8898)">
		<stop  offset="0" style="stop-color:#00CAD7"/>
		<stop  offset="1" style="stop-color:#504ED8"/>
	</linearGradient>
	<path class="st1" d="M487.1,21.1c38.8,52.9-17.4,126.6-11.5,192c5.2,58.3,66.6,111.8,43.5,165.7c-23,53.7-97,57.2-149.8,82.3
		c-50.8,24.1-96.6,65-152.6,61.5c-58.2-3.7-113.5-35.5-150.2-80.8c-34.8-43-44.7-101.1-41.9-156.4c2.5-48,38.8-84.3,56.6-129
		c20.5-51.6,12.1-118.1,55.6-152.7c45.2-35.9,109.4-27.3,166.9-24.4C367.9-17.6,449-30.7,487.1,21.1z"/>
	
		<linearGradient id="SVGID_00000118363603057331289710000004892029055503894433_" gradientUnits="userSpaceOnUse" x1="475.646" y1="449.1205" x2="91.9469" y2="65.4208" gradientTransform="matrix(1 0 0 -1 0 495.8898)">
		<stop  offset="0" style="stop-color:#00CAD7"/>
		<stop  offset="1" style="stop-color:#504ED8"/>
	</linearGradient>
	<path style="fill:none;stroke:url(#SVGID_00000118363603057331289710000004892029055503894433_);stroke-width:7;" d="M468.6,40.9
		c35.3,48.1-15.8,115-10.5,174.5c4.7,53,60.5,101.6,39.5,150.6c-20.9,48.8-88.2,52-136.1,74.8c-46.1,21.9-87.8,59.1-138.7,55.9
		c-52.9-3.4-103.2-32.3-136.5-73.4C54.6,384.1,45.6,331.3,48.2,281c2.2-43.7,35.2-76.6,51.4-117.3c18.7-46.9,11-107.3,50.5-138.8
		c41-32.7,99.4-24.8,151.7-22.2C360.2,5.7,434-6.2,468.6,40.9z"/>
	
		<linearGradient id="SVGID_00000083769658212748656220000000856704521370328492_" gradientUnits="userSpaceOnUse" x1="451.1188" y1="424.5953" x2="116.4728" y2="89.948" gradientTransform="matrix(1 0 0 -1 0 495.8898)">
		<stop  offset="0" style="stop-color:#00CAD7"/>
		<stop  offset="1" style="stop-color:#504ED8"/>
	</linearGradient>
	<path style="fill:none;stroke:url(#SVGID_00000083769658212748656220000000856704521370328492_);stroke-width:7;" d="M444.9,66.2
		c30.8,41.9-13.8,100.3-9.2,152.2c4.1,46.2,52.8,88.6,34.5,131.3c-18.2,42.5-76.9,45.3-118.7,65.2c-40.2,19.1-76.5,51.6-120.9,48.7
		c-46.2-2.9-90-28.2-119.1-64.1c-27.6-34.1-35.5-80.1-33.2-124c2-38.1,30.7-66.8,44.8-102.3c16.3-40.9,9.6-93.6,44-121
		c35.8-28.5,86.7-21.6,132.3-19.3C350.5,35.5,414.8,25.1,444.9,66.2z"/>
	
		<linearGradient id="SVGID_00000097465294892967895920000008473881278853426090_" gradientUnits="userSpaceOnUse" x1="419.6439" y1="393.121" x2="147.9489" y2="121.425" gradientTransform="matrix(1 0 0 -1 0 495.8898)">
		<stop  offset="0" style="stop-color:#00CAD7"/>
		<stop  offset="1" style="stop-color:#504ED8"/>
	</linearGradient>
	<path style="fill:none;stroke:url(#SVGID_00000097465294892967895920000008473881278853426090_);stroke-width:7;" d="M414.6,98.6
		c25,34-11.2,81.5-7.4,123.6c3.4,37.5,42.9,71.9,28,106.6c-14.8,34.5-62.5,36.8-96.4,52.9c-32.7,15.5-62.1,41.9-98.2,39.6
		c-37.5-2.4-73.1-22.9-96.7-52c-22.4-27.7-28.8-65.1-27-100.7c1.6-30.9,25-54.3,36.4-83.1c13.2-33.2,7.8-76,35.8-98.3
		c29.1-23.1,70.4-17.6,107.4-15.7C337.9,73.7,390.1,65.3,414.6,98.6z"/>
	
		<linearGradient id="SVGID_00000112623831222849685620000009710846330490071729_" gradientUnits="userSpaceOnUse" x1="385.037" y1="358.5199" x2="182.545" y2="156.0289" gradientTransform="matrix(1 0 0 -1 0 495.8898)">
		<stop  offset="0" style="stop-color:#00CAD7"/>
		<stop  offset="1" style="stop-color:#504ED8"/>
	</linearGradient>
	<path style="fill:none;stroke:url(#SVGID_00000112623831222849685620000009710846330490071729_);stroke-width:7;" d="M381.3,134.3
		c18.6,25.4-8.3,60.7-5.5,92.1c2.5,28,31.9,53.6,20.8,79.5c-11,25.7-46.6,27.4-71.8,39.5c-24.3,11.6-46.3,31.2-73.2,29.5
		c-27.9-1.8-54.5-17-72-38.8c-16.7-20.6-21.5-48.5-20.1-75c1.2-23,18.6-40.4,27.1-61.9c9.8-24.7,5.8-56.7,26.6-73.2
		c21.7-17.2,52.5-13.1,80.1-11.7C324.1,115.7,363,109.4,381.3,134.3z"/>
</g>
<path class="st6" d="M457.8,122.7l21.5-21.2l-4.5-8.7c0.4-0.9,0.8-1.7,1.1-2.6l9.4-2.9l0.2-30.2l-9.4-3c-0.3-0.9-0.7-1.8-1.1-2.6
	l4.7-8.7l-21.2-21.5l-8.7,4.5c-0.9-0.4-1.7-0.8-2.6-1.1l-2.9-9.4L414.1,15l-3,9.3c-0.9,0.3-1.8,0.7-2.7,1.1l-8.7-4.6L378.2,42
	l4.5,8.7c-0.4,0.9-0.8,1.7-1.1,2.6l-9.5,2.9L372,86.5l9.4,3c0.3,0.9,0.7,1.8,1.1,2.7l-4.6,8.7l21.2,21.5l8.7-4.5
	c0.9,0.4,1.7,0.8,2.6,1.1l2.9,9.4l30.2,0.2l3-9.4c0.9-0.3,1.8-0.7,2.7-1.1L457.8,122.7z M444.6,87.7c-3.2,3.1-7.2,5.2-11.6,6.1
	c-4.4,0.8-8.9,0.4-13-1.4c-4.1-1.7-7.6-4.6-10-8.4c-2.4-3.7-3.7-8.1-3.7-12.5c0-4.5,1.4-8.8,3.9-12.5c2.5-3.7,6-6.5,10.2-8.2
	c4.1-1.7,8.7-2.1,13-1.2c4.4,0.9,8.4,3.1,11.5,6.2c2.1,2.1,3.7,4.6,4.8,7.3c1.1,2.7,1.7,5.7,1.7,8.6c0,3-0.6,5.9-1.8,8.6
	C448.4,83.2,446.7,85.7,444.6,87.7z"/>
<path class="st6" d="M72.4,262.7l14.2-13.9l-2.9-5.7c0.3-0.6,0.5-1.2,0.7-1.7l6.2-1.9l0.1-19.9l-6.1-2c-0.2-0.6-0.5-1.2-0.7-1.7
	l3-5.7l-14-14.2l-5.7,3c-0.6-0.3-1.2-0.5-1.7-0.7l-1.9-6.2L43.6,192l-2,6.1c-0.6,0.2-1.2,0.4-1.7,0.7l-5.7-3l-14.2,13.9l2.9,5.7
	c-0.3,0.6-0.5,1.2-0.7,1.7l-6.2,1.9L16,239l6.1,2c0.2,0.6,0.5,1.2,0.7,1.7l-3,5.7l13.9,14.1l5.7-3c0.6,0.3,1.2,0.5,1.7,0.7l1.9,6.2
	l19.9,0.1l2-6.1c0.6-0.2,1.2-0.5,1.7-0.7L72.4,262.7z M63.7,239.8c-2.1,2.1-4.7,3.4-7.6,4c-2.9,0.6-5.8,0.2-8.5-0.9
	c-2.7-1.1-5-3-6.6-5.5c-1.6-2.4-2.5-5.3-2.4-8.2c0-2.9,0.9-5.8,2.5-8.2c1.6-2.4,4-4.3,6.7-5.4c2.7-1.1,5.7-1.4,8.5-0.8
	c2.9,0.6,5.5,2,7.5,4.1c1.4,1.4,2.4,3,3.2,4.8c0.7,1.8,1.1,3.7,1.1,5.7c0,1.9-0.4,3.9-1.2,5.6C66.1,236.8,65,238.4,63.7,239.8z"/>
<path class="st7" d="M492.3,376.9l10.3-10.1l-2.1-4.2c0.2-0.4,0.4-0.8,0.5-1.3l4.5-1.4l0.1-14.4l-4.4-1.4c-0.2-0.4-0.3-0.8-0.5-1.3
	l2.2-4.1l-10.2-10.3l-4.2,2.1c-0.4-0.2-0.8-0.4-1.3-0.5l-1.4-4.5l-14.4-0.1L470,330c-0.4,0.2-0.8,0.3-1.3,0.5l-4.1-2.2l-10.3,10.1
	l2.1,4.2c-0.2,0.4-0.4,0.8-0.5,1.3l-4.5,1.4l-0.1,14.4l4.5,1.4c0.2,0.4,0.3,0.8,0.5,1.3l-2.2,4.1l10.1,10.3l4.2-2.1
	c0.4,0.2,0.8,0.4,1.3,0.5l1.4,4.5l14.4,0.1l1.4-4.5c0.4-0.1,0.9-0.3,1.3-0.5L492.3,376.9z M486,360.3c-1.5,1.5-3.4,2.5-5.5,2.9
	c-2.1,0.4-4.2,0.2-6.2-0.7c-2-0.8-3.6-2.2-4.8-4c-1.2-1.8-1.8-3.8-1.8-6c0-2.1,0.7-4.2,1.8-5.9c1.2-1.8,2.9-3.1,4.8-3.9
	c2-0.8,4.1-1,6.2-0.6s4,1.5,5.5,3c1,1,1.8,2.2,2.3,3.5c0.5,1.3,0.8,2.7,0.8,4.1c0,1.4-0.3,2.8-0.8,4.1
	C487.8,358.1,487,359.3,486,360.3z"/>
<path class="st8" d="M60.6,124.7c-0.7,0-1.5-0.2-2.1-0.6c-0.6-0.4-1.1-1-1.4-1.7c-0.3-0.7-0.4-1.4-0.2-2.2c0.1-0.7,0.5-1.4,1-1.9
	c0.5-0.5,1.2-0.9,1.9-1c0.7-0.1,1.5-0.1,2.2,0.2c0.7,0.3,1.3,0.8,1.7,1.4s0.6,1.3,0.6,2.1c0,1-0.4,1.9-1.1,2.6
	C62.6,124.3,61.6,124.7,60.6,124.7z M60.6,117.8c-0.6,0-1.3,0.2-1.8,0.5c-0.5,0.4-0.9,0.9-1.2,1.4c-0.2,0.6-0.3,1.2-0.2,1.8
	c0.1,0.6,0.4,1.2,0.9,1.6c0.4,0.4,1,0.8,1.6,0.9c0.6,0.1,1.3,0.1,1.8-0.2c0.6-0.2,1.1-0.7,1.4-1.2c0.4-0.5,0.5-1.1,0.5-1.8
	c0-0.8-0.3-1.7-0.9-2.3C62.3,118.1,61.5,117.8,60.6,117.8z"/>
<path class="st8" d="M72.9,124.7c-0.7,0-1.5-0.2-2.1-0.6c-0.6-0.4-1.1-1-1.4-1.7c-0.3-0.7-0.4-1.4-0.2-2.2s0.5-1.4,1-1.9
	c0.5-0.5,1.2-0.9,1.9-1c0.7-0.1,1.5-0.1,2.2,0.2c0.7,0.3,1.3,0.8,1.7,1.4c0.4,0.6,0.6,1.3,0.6,2.1c0,1-0.4,1.9-1.1,2.6
	C74.8,124.3,73.9,124.7,72.9,124.7z M72.9,117.8c-0.6,0-1.3,0.2-1.8,0.5c-0.5,0.4-0.9,0.9-1.2,1.4c-0.2,0.6-0.3,1.2-0.2,1.8
	c0.1,0.6,0.4,1.2,0.9,1.6c0.4,0.4,1,0.8,1.6,0.9c0.6,0.1,1.3,0.1,1.8-0.2c0.6-0.2,1.1-0.7,1.4-1.2s0.5-1.1,0.5-1.8
	c0-0.8-0.3-1.7-0.9-2.3C74.5,118.1,73.7,117.8,72.9,117.8z"/>
<path class="st8" d="M85.1,124.7c-0.7,0-1.5-0.2-2.1-0.6c-0.6-0.4-1.1-1-1.4-1.7c-0.3-0.7-0.4-1.4-0.2-2.2s0.5-1.4,1-1.9
	c0.5-0.5,1.2-0.9,1.9-1c0.7-0.1,1.5-0.1,2.2,0.2c0.7,0.3,1.3,0.8,1.7,1.4c0.4,0.6,0.6,1.3,0.6,2.1c0,1-0.4,1.9-1.1,2.6
	C87,124.3,86.1,124.7,85.1,124.7z M85.1,117.8c-0.6,0-1.3,0.2-1.8,0.5c-0.5,0.4-0.9,0.9-1.2,1.4c-0.2,0.6-0.3,1.2-0.2,1.8
	c0.1,0.6,0.4,1.2,0.9,1.6c0.4,0.4,1,0.8,1.6,0.9c0.6,0.1,1.3,0.1,1.8-0.2c0.6-0.2,1.1-0.7,1.4-1.2c0.4-0.5,0.5-1.1,0.5-1.8
	c0-0.8-0.3-1.7-0.9-2.3C86.8,118.1,86,117.8,85.1,117.8z"/>
<path class="st9" d="M490.8,67.5H177.4c-3.6,0-6.5,2.9-6.5,6.5v235.3c0,3.6,2.9,6.5,6.5,6.5h313.4c3.6,0,6.5-2.9,6.5-6.5V74
	C497.3,70.4,494.4,67.5,490.8,67.5z"/>
<path class="st10" d="M490.8,316.9H177.4c-2,0-3.9-0.8-5.3-2.2c-1.4-1.4-2.2-3.3-2.2-5.3V74c0-2,0.8-3.9,2.2-5.3
	c1.4-1.4,3.3-2.2,5.3-2.2h313.4c2,0,3.9,0.8,5.3,2.2c1.4,1.4,2.2,3.3,2.2,5.3v235.3c0,2-0.8,3.9-2.2,5.3
	C494.7,316.1,492.8,316.9,490.8,316.9z M177.4,68.6c-1.4,0-2.8,0.6-3.8,1.6c-1,1-1.6,2.4-1.6,3.8v235.3c0,1.4,0.6,2.8,1.6,3.8
	c1,1,2.4,1.6,3.8,1.6h313.4c1.4,0,2.8-0.6,3.8-1.6c1-1,1.6-2.4,1.6-3.8V74c0-1.4-0.6-2.8-1.6-3.8s-2.4-1.6-3.8-1.6H177.4z"/>
<path class="st7" d="M170.9,84.3v225c0,1.7,0.7,3.4,1.9,4.6c1.2,1.2,2.9,1.9,4.6,1.9h313.4c1.7,0,3.4-0.7,4.6-1.9
	c1.2-1.2,1.9-2.9,1.9-4.6v-225H170.9z"/>
<path class="st11" d="M496.1,92.9h-324v214.3h324V92.9z"/>
<path class="st9" d="M484.6,287.6H183.5c0,0,0,0,0,0c0,0,0,0,0,0c0,0,0,0,0,0c0,0,0,0,0,0V106.8c0,0,0-0.1,0-0.1c0,0,0,0,0.1,0
	h301.1c0,0,0.1,0,0.1,0c0,0,0,0,0,0.1v180.7C484.8,287.5,484.8,287.5,484.6,287.6C484.7,287.5,484.7,287.5,484.6,287.6
	C484.7,287.6,484.7,287.6,484.6,287.6C484.7,287.6,484.7,287.6,484.6,287.6z M183.6,287.4h300.9V106.9H183.6V287.4z"/>
<path class="st12" d="M185.1,79.8c-0.8,0-1.5-0.2-2.2-0.7c-0.6-0.4-1.1-1-1.4-1.7c-0.3-0.7-0.4-1.5-0.2-2.2c0.2-0.8,0.5-1.4,1.1-2
	c0.5-0.5,1.2-0.9,2-1.1c0.8-0.1,1.5-0.1,2.2,0.2c0.7,0.3,1.3,0.8,1.7,1.4c0.4,0.6,0.7,1.4,0.7,2.2c0,0.5-0.1,1-0.3,1.5
	c-0.2,0.5-0.5,0.9-0.8,1.3c-0.4,0.4-0.8,0.6-1.3,0.8C186.1,79.7,185.6,79.8,185.1,79.8z M185.1,72.9c-0.6,0-1.2,0.2-1.7,0.5
	s-0.9,0.8-1.1,1.4c-0.2,0.6-0.3,1.2-0.2,1.7c0.1,0.6,0.4,1.1,0.8,1.5c0.4,0.4,1,0.7,1.5,0.8c0.6,0.1,1.2,0.1,1.7-0.2
	c0.6-0.2,1-0.6,1.4-1.1c0.3-0.5,0.5-1.1,0.5-1.7c0-0.4-0.1-0.8-0.2-1.2c-0.2-0.4-0.4-0.7-0.7-1c-0.3-0.3-0.6-0.5-1-0.7
	C185.9,73,185.5,72.9,185.1,72.9z"/>
<path class="st12" d="M197.4,79.8c-0.8,0-1.5-0.2-2.2-0.7c-0.6-0.4-1.1-1-1.4-1.7c-0.3-0.7-0.4-1.5-0.2-2.2c0.2-0.8,0.5-1.4,1.1-2
	c0.5-0.5,1.2-0.9,2-1.1c0.8-0.1,1.5-0.1,2.2,0.2c0.7,0.3,1.3,0.8,1.7,1.4c0.4,0.6,0.7,1.4,0.7,2.2c0,0.5-0.1,1-0.3,1.5
	c-0.2,0.5-0.5,0.9-0.8,1.3c-0.4,0.4-0.8,0.6-1.3,0.8C198.4,79.7,197.9,79.8,197.4,79.8z M197.4,72.9c-0.6,0-1.2,0.2-1.7,0.5
	c-0.5,0.3-0.9,0.8-1.1,1.4c-0.2,0.6-0.3,1.2-0.2,1.7c0.1,0.6,0.4,1.1,0.8,1.5s1,0.7,1.5,0.8c0.6,0.1,1.2,0.1,1.7-0.2
	c0.5-0.2,1-0.6,1.3-1.1c0.3-0.5,0.5-1.1,0.5-1.7c0-0.4-0.1-0.8-0.2-1.2c-0.2-0.4-0.4-0.7-0.7-1c-0.3-0.3-0.6-0.5-1-0.7
	C198.2,73,197.8,72.9,197.4,72.9z"/>
<path class="st12" d="M209.6,79.8c-0.8,0-1.5-0.2-2.2-0.7c-0.6-0.4-1.1-1-1.4-1.7c-0.3-0.7-0.4-1.5-0.2-2.2c0.2-0.8,0.5-1.4,1.1-2
	c0.5-0.5,1.2-0.9,2-1.1c0.8-0.1,1.5-0.1,2.2,0.2c0.7,0.3,1.3,0.8,1.7,1.4c0.4,0.6,0.7,1.4,0.7,2.2c0,0.5-0.1,1-0.3,1.5
	c-0.2,0.5-0.5,0.9-0.8,1.3c-0.4,0.4-0.8,0.6-1.3,0.8C210.6,79.7,210.1,79.8,209.6,79.8z M209.6,72.9c-0.6,0-1.2,0.2-1.7,0.5
	c-0.5,0.3-0.9,0.8-1.1,1.4c-0.2,0.6-0.3,1.2-0.2,1.7c0.1,0.6,0.4,1.1,0.8,1.5c0.4,0.4,1,0.7,1.5,0.8s1.2,0.1,1.7-0.2
	c0.6-0.2,1-0.6,1.4-1.1c0.3-0.5,0.5-1.1,0.5-1.7c0-0.4-0.1-0.8-0.2-1.2c-0.2-0.4-0.4-0.7-0.7-1c-0.3-0.3-0.6-0.5-1-0.7
	C210.4,73,210,72.9,209.6,72.9z"/>
<path class="st8" d="M497.3,83.9H170.9v0.9h326.4V83.9z"/>
<path class="st7" d="M318.9,266.4h149.3V114.2H318.9V266.4z"/>
<path class="st7" d="M190.9,163.7h98.6v-49.5h-98.6V163.7z"/>
<path class="st7" d="M190.9,307.2h98.6V182.2h-98.6V307.2z"/>
<path class="st13" d="M278.3,445.5c114.2,0,206.8-5.4,206.8-12.1c0-6.7-92.6-12.1-206.8-12.1c-114.2,0-206.8,5.4-206.8,12.1
	C71.5,440.1,164.1,445.5,278.3,445.5z"/>
<path class="st14" d="M458.9,94.4H76.3c-2.7,0-5.3,1.1-7.2,3s-3,4.5-3,7.2V360c0,2.7,1.1,5.3,3,7.2c1.9,1.9,4.5,3,7.2,3h382.6
	c2.7,0,5.3-1.1,7.2-3c1.9-1.9,3-4.5,3-7.2V104.7c0-2.7-1.1-5.3-3-7.2C464.2,95.5,461.6,94.5,458.9,94.4z"/>
<path class="st12" d="M142.2,111.5H88.1c-1,0-1.9-0.4-2.6-1.1c-0.7-0.7-1.1-1.6-1.1-2.6c0-1,0.4-1.9,1.1-2.6
	c0.7-0.7,1.6-1.1,2.6-1.1h54.1c1,0,1.9,0.4,2.6,1.1c0.7,0.7,1.1,1.6,1.1,2.6c0,1-0.4,1.9-1.1,2.6
	C144.2,111.2,143.2,111.5,142.2,111.5z M88.1,105.2c-0.7,0-1.4,0.3-1.9,0.8c-0.5,0.5-0.8,1.2-0.8,1.9s0.3,1.4,0.8,1.9
	c0.5,0.5,1.2,0.8,1.9,0.8h54.1c0.7,0,1.4-0.3,1.9-0.8s0.8-1.2,0.8-1.9s-0.3-1.4-0.8-1.9s-1.2-0.8-1.9-0.8H88.1z"/>
<path class="st12" d="M159.8,111.5h-3.6c-1,0-1.9-0.4-2.6-1.1c-0.7-0.7-1.1-1.6-1.1-2.6c0-1,0.4-1.9,1.1-2.6
	c0.7-0.7,1.6-1.1,2.6-1.1h3.6c1,0,1.9,0.4,2.6,1.1c0.7,0.7,1.1,1.6,1.1,2.6c0,1-0.4,1.9-1.1,2.6
	C161.7,111.2,160.8,111.5,159.8,111.5z M156.2,105.2c-0.7,0-1.4,0.3-1.9,0.8s-0.8,1.2-0.8,1.9s0.3,1.4,0.8,1.9s1.2,0.8,1.9,0.8h3.6
	c0.7,0,1.4-0.3,1.9-0.8s0.8-1.2,0.8-1.9s-0.3-1.4-0.8-1.9s-1.2-0.8-1.9-0.8H156.2z"/>
<path class="st12" d="M174.9,111.5h-3.6c-1,0-1.9-0.4-2.6-1.1c-0.7-0.7-1.1-1.6-1.1-2.6c0-1,0.4-1.9,1.1-2.6
	c0.7-0.7,1.6-1.1,2.6-1.1h3.6c1,0,1.9,0.4,2.6,1.1c0.7,0.7,1.1,1.6,1.1,2.6c0,1-0.4,1.9-1.1,2.6
	C176.9,111.2,175.9,111.5,174.9,111.5z M171.3,105.2c-0.7,0-1.4,0.3-1.9,0.8s-0.8,1.2-0.8,1.9s0.3,1.4,0.8,1.9s1.2,0.8,1.9,0.8h3.6
	c0.7,0,1.4-0.3,1.9-0.8s0.8-1.2,0.8-1.9s-0.3-1.4-0.8-1.9s-1.2-0.8-1.9-0.8H171.3z"/>
<path class="st10" d="M66,121V360c0,2.7,1.1,5.3,3,7.2c1.9,1.9,4.5,3,7.2,3h382.6c2.7,0,5.3-1.1,7.2-3c1.9-1.9,3-4.5,3-7.2V121H66z"
	/>
<path class="st12" d="M67.9,121v229.9c0,0.8,0.1,1.5,0.4,2.2c0.3,0.7,0.7,1.3,1.3,1.9c0.5,0.5,1.2,1,1.9,1.3
	c0.7,0.3,1.5,0.4,2.2,0.4h387.7c0.8,0,1.5-0.2,2.2-0.4c0.7-0.3,1.3-0.7,1.9-1.3c0.5-0.5,1-1.2,1.3-1.9c0.3-0.7,0.4-1.5,0.4-2.2V121
	H67.9z"/>
<path class="st10" d="M86.3,134.5v42.7h274.1v-42.7H86.3z"/>
<path class="st10" d="M359.3,189.5v113.2H87.4V189.5H359.3z M360.4,188.4H86.3v115.4h274.1V188.4z"/>
<path class="st15" d="M359.3,189.5v113.2H87.4V189.5H359.3z M360.4,188.4H86.3v115.4h274.1V188.4z"/>
<path class="st16" d="M391.1,425.2h-8l-2.1-18.6h8.1L391.1,425.2z"/>
<path class="st16" d="M439.9,425.2h-8l-6.3-18.6h8L439.9,425.2z"/>
<path class="st17" d="M430.7,424.2h9.8c0.2,0,0.3,0.1,0.4,0.2c0.1,0.1,0.2,0.2,0.2,0.4l1.6,7.1c0,0.2,0,0.4,0,0.5
	c0,0.2-0.1,0.3-0.2,0.5c-0.1,0.1-0.3,0.2-0.4,0.3c-0.2,0.1-0.3,0.1-0.5,0.1c-3.2-0.1-5.5-0.2-9.4-0.2c-2.4,0-7.5,0.3-10.9,0.3
	c-3.4,0-3.8-3.3-2.4-3.6c6.2-1.4,8.5-3.2,10.5-5C429.8,424.4,430.3,424.2,430.7,424.2z"/>
<path class="st17" d="M383.1,424.2h8.8c0.2,0,0.3,0.1,0.4,0.2c0.1,0.1,0.2,0.2,0.2,0.4l1.6,7.1c0,0.2,0,0.4,0,0.5
	c0,0.2-0.1,0.3-0.2,0.5c-0.1,0.1-0.3,0.2-0.4,0.3c-0.2,0.1-0.3,0.1-0.5,0.1c-3.2-0.1-7.8-0.2-11.7-0.2c-4.7,0-8.7,0.3-14.1,0.3
	c-3.3,0-4.3-3.3-2.8-3.6c6.3-1.4,11.4-1.5,16.9-4.9C381.8,424.5,382.4,424.3,383.1,424.2z"/>
<path class="st16" d="M395.7,225.6c-0.8,6.2-1.7,12.5-2.6,18.7l-2.8,18.9c-0.4,2.3-1.4,4.5-2.7,6.4c-1.2,1.7-2.7,3.2-4.4,4.5
	c-3,2.2-6.3,3.8-9.8,4.9c-3.2,1.1-6.5,1.8-9.9,2.3c-1.7,0.3-3.3,0.4-4.9,0.6c-1.7,0.1-3.3,0.2-5,0.2l-0.5-6c2.9-0.7,5.9-1.4,8.8-2.4
	c2.8-0.9,5.6-1.9,8.3-3.2c2.4-1.1,4.7-2.6,6.7-4.3c0.8-0.7,1.5-1.5,2-2.5c0.4-0.7,0.7-1.5,0.7-2.3l0.3-4.5c0.1-1.6,0.3-3.2,0.4-4.8
	c0.3-3.2,0.6-6.3,0.9-9.5c0.7-6.3,1.5-12.6,2.5-18.9L395.7,225.6z"/>
<path class="st10" d="M398.4,221.6c2.7,7.2-3.8,31.3-3.8,31.3l-17.9-8.9c0,0,0.8-12,4.9-21.3C385.7,213.3,395.4,213.6,398.4,221.6z"
	/>
<path class="st18" d="M398.4,221.6c2.7,7.2-3.8,31.3-3.8,31.3l-17.9-8.9c0,0,0.8-12,4.9-21.3C385.7,213.3,395.4,213.6,398.4,221.6z"
	/>
<path class="st16" d="M357.3,275.4l-8.8,0.6l4.1,9.4c1.6,0,3.2-0.6,4.5-1.6c1.3-1,2.2-2.4,2.7-4L357.3,275.4z"/>
<path class="st16" d="M340.6,279.7l4.9,6.6l7.1-0.9l-4.1-9.4L340.6,279.7z"/>
<path class="st19" d="M380.9,406.5l1.2,10.8l8-0.5l-1.2-10.3H380.9z"/>
<path class="st19" d="M433.6,406.5h-8.1l4.2,12.5l7.5-1.7L433.6,406.5z"/>
<path class="st10" d="M388.8,216c0,0-9.5,24.3-0.5,69.5h43c0.3-6.6-3.8-38.8,2.5-70c-4.8-0.9-9.6-1.5-14.4-1.8
	c-6.1-0.4-12.2-0.4-18.3,0C397,214.2,392.9,215,388.8,216z"/>
<path class="st18" d="M388.8,216c0,0-9.5,24.3-0.5,69.5h43c0.3-6.6-3.8-38.8,2.5-70c-4.8-0.9-9.6-1.5-14.4-1.8
	c-6.1-0.4-12.2-0.4-18.3,0C397,214.2,392.9,215,388.8,216z"/>
<path class="st10" d="M404.5,238.8c-0.6,5.4-3.5,9.5-6.6,9.2c-3.1-0.3-5.1-5-4.6-10.4c0.6-5.4,3.6-9.5,6.6-9.2
	C403,228.7,405.2,233.3,404.5,238.8z"/>
<path class="st20" d="M404.5,238.8c-0.6,5.4-3.5,9.5-6.6,9.2c-3.1-0.3-5.1-5-4.6-10.4c0.6-5.4,3.6-9.5,6.6-9.2
	C403,228.7,405.2,233.3,404.5,238.8z"/>
<path class="st10" d="M425.1,230.5c1.4-7.1,4.1-5.9,6.7-2.4c-1.1,9.4-1.6,18.9-1.5,28.4C428.5,253.5,422.8,242.4,425.1,230.5z"/>
<path class="st21" d="M425.1,230.5c1.4-7.1,4.1-5.9,6.7-2.4c-1.1,9.4-1.6,18.9-1.5,28.4C428.5,253.5,422.8,242.4,425.1,230.5z"/>
<path class="st16" d="M417.7,193.2c-1.2,5.9-2.3,16.7,1.8,20.6c0,0-1.6,6-12.6,6c-12,0-5.7-6-5.7-6c6.6-1.6,6.4-6.4,5.3-11
	L417.7,193.2z"/>
<path class="st19" d="M413.1,197.1l-6.6,5.7c0.3,1,0.5,2.1,0.6,3.2c2.5-0.4,6-3.1,6.2-5.7C413.4,199.2,413.3,198.1,413.1,197.1z"/>
<path class="st17" d="M400.9,171.2c-4.4,3.4-4.4,17.2,2.3,17.5C409.9,188.9,409.3,164.7,400.9,171.2z"/>
<path class="st16" d="M419.4,186.2c-2.3,7.6-3.3,12.2-8.2,15.3c-7.3,4.6-16-1.3-16-9.4c0-7.4,3.8-18.6,12.2-19.9
	c1.8-0.3,3.7-0.1,5.4,0.6c1.7,0.6,3.3,1.7,4.5,3.1c1.2,1.4,2,3.1,2.4,4.9C420,182.6,419.9,184.5,419.4,186.2z"/>
<path class="st17" d="M417,193.7c-4.5,0.7-6.9-22.4,3.8-17.3C436,183.7,424.3,192.6,417,193.7z"/>
<path class="st17" d="M417.4,178.5c-5.5-0.5-13.5-0.2-15.3-7.1c-2.4-9.5,9-10.9,11.8-3.6c6.8-2.2,25.5,9.4,13,15.3L417.4,178.5z"/>
<path class="st16" d="M420.8,195.6c-1.4,1.4-3.4,2.2-5.4,2.1c-2.7-0.1-3.2-2.6-1.9-4.7c1.2-1.9,4.1-4.2,6.5-3.1
	C422.4,191,422.6,193.8,420.8,195.6z"/>
<path class="st17" d="M388.3,285.5c0,0-31.4,43.5-30.5,68c0.9,25.5,21.2,60.8,21.2,60.8l13.1-3c0,0-13-30.7-12.4-55.8
	c0.7-27.3,36.9-48.9,36.9-70L388.3,285.5z"/>
<path class="st17" d="M403.6,285.5c0,0-16,44.8-11,67.8c5.5,25.2,33.1,62.5,33.1,62.5l13.2-3.6c0,0-17.8-32.1-21-57
	c-3.4-27.1,13.5-49.5,13.5-69.7H403.6z"/>
<path class="st10" d="M423.7,417.7l18.9-3.5l-0.9-5.1l-21.2,3.6L423.7,417.7z"/>
<path class="st22" d="M423.7,417.7l18.9-3.5l-0.9-5.1l-21.2,3.6L423.7,417.7z"/>
<path class="st10" d="M376.3,415.4l19.2-1.9l-0.5-5.2l-21.5,1.8L376.3,415.4z"/>
<path class="st22" d="M376.3,415.4l19.2-1.9l-0.5-5.2l-21.5,1.8L376.3,415.4z"/>
<path class="st17" d="M407.1,185.6c-0.1,0.6-0.6,1.1-1.1,1c-0.5-0.1-0.6-0.7-0.5-1.3c0.2-0.6,0.6-1.1,1-1S407.3,185,407.1,185.6z"/>
<path class="st17" d="M400,183.9c-0.1,0.6-0.6,1.1-1.1,1c-0.5-0.1-0.6-0.7-0.5-1.3c0.1-0.6,0.6-1.1,1.1-1
	C400,182.6,400.1,183.2,400,183.9z"/>
<path class="st23" d="M402.2,184.7c-1.2,1.7-2.6,3.3-4.3,4.7c0.4,0.4,0.8,0.7,1.3,1c0.5,0.2,1,0.3,1.6,0.3L402.2,184.7z"/>
<path class="st17" d="M403.6,193.1c-0.5,0-1-0.1-1.4-0.2c0,0-0.1,0-0.1-0.1c0,0,0-0.1,0-0.1c0,0,0,0,0-0.1c0,0,0,0,0.1-0.1
	s0,0,0.1,0c0,0,0.1,0,0.1,0c0.8,0.2,1.6,0.2,2.4,0.1c0.8-0.2,1.5-0.5,2.2-1c0,0,0.1-0.1,0.1-0.1c0.1,0,0.1,0,0.1,0.1c0,0,0,0,0,0.1
	c0,0,0,0,0,0.1c0,0,0,0.1,0,0.1c0,0,0,0,0,0.1C406.1,192.6,404.8,193.1,403.6,193.1z"/>
<path class="st17" d="M409.9,183.8c-0.1,0-0.1,0-0.2-0.1c-0.1,0-0.1-0.1-0.1-0.2c-0.2-0.4-0.5-0.8-0.8-1.2c-0.4-0.3-0.8-0.5-1.3-0.7
	c-0.1,0-0.2-0.1-0.2-0.2c-0.1-0.1-0.1-0.2-0.1-0.3c0-0.1,0.1-0.2,0.2-0.2c0.1-0.1,0.2-0.1,0.3-0.1c0.6,0.1,1.1,0.4,1.6,0.8
	c0.5,0.4,0.8,0.9,1,1.4c0,0,0,0.1,0,0.1c0,0,0,0.1,0,0.1c0,0,0,0.1-0.1,0.1c0,0-0.1,0.1-0.1,0.1C410,183.8,409.9,183.8,409.9,183.8z
	"/>
<path class="st17" d="M397.5,180.7c-0.1,0-0.2,0-0.2-0.1c0,0-0.1-0.1-0.1-0.1c0,0,0-0.1,0-0.1c0-0.1,0-0.1,0-0.1c0,0,0-0.1,0.1-0.1
	c0.4-0.5,0.9-0.9,1.4-1.1c0.6-0.3,1.2-0.4,1.8-0.3c0.1,0,0.2,0.1,0.3,0.1c0.1,0.1,0.1,0.2,0.1,0.3c0,0.1-0.1,0.2-0.1,0.2
	c-0.1,0.1-0.2,0.1-0.3,0.1c-0.5,0-1,0.1-1.4,0.3c-0.4,0.2-0.8,0.5-1.1,0.9c0,0-0.1,0.1-0.1,0.1C397.6,180.7,397.6,180.7,397.5,180.7
	z"/>
<path class="st10" d="M292.6,334.9l-28.9,3.4l0.1,1.1l28.9-3.4L292.6,334.9z"/>
<path class="st10" d="M314.8,332.2l-11.9,1.4l0.1,1.1l11.9-1.4L314.8,332.2z"/>
<path class="st9" d="M479.5,264l-256,30.5l5.4,45.2l256-30.5L479.5,264z"/>
<path class="st10" d="M441.7,280.9l-117.6,14l2.5,20.8l117.6-14L441.7,280.9z"/>
<path class="st10" d="M262.2,324.2c5.7-4.6,6.6-12.9,2.1-18.6c-4.6-5.7-12.9-6.6-18.6-2.1c-5.7,4.6-6.6,12.9-2.1,18.6
	C248.1,327.9,256.4,328.8,262.2,324.2z"/>
<path class="st10" d="M301.9,317.5c4.5-5.8,3.4-14.1-2.4-18.6c-5.8-4.5-14.1-3.4-18.6,2.4c-4.5,5.8-3.4,14.1,2.4,18.6
	C289.1,324.4,297.4,323.3,301.9,317.5z"/>
<path class="st16" d="M437,221.9c0.7,1.5,1.3,2.8,1.8,4.3c0.6,1.4,1.1,2.8,1.6,4.3c1.1,2.8,2,5.7,2.8,8.6c0.8,2.9,1.5,5.9,2,8.9
	l0.4,2.3l0.3,2.3c0.1,0.8,0.1,1.6,0.2,2.4l0.1,1.2v0.3v0.5c0,0.4,0,0.7,0,1.1c-0.2,2.1-0.8,4.1-1.8,6c-0.8,1.5-1.6,3-2.6,4.3
	c-1.8,2.5-3.7,4.9-5.8,7.2c-4,4.4-8.4,8.5-13,12.2l-4.3-4.3c3.5-4.4,7-9,10.1-13.6c1.5-2.2,3-4.5,4.3-6.9c0.6-1.1,1.1-2.2,1.5-3.3
	c0.3-0.7,0.5-1.5,0.5-2.3c0-0.1,0,0,0,0c0,0.1,0,0.1,0,0v-0.2l-0.1-1c-0.1-0.7-0.2-1.3-0.3-1.9l-0.4-1.9l-0.5-2
	c-0.7-2.6-1.4-5.2-2.2-7.8c-0.8-2.6-1.8-5.2-2.7-7.8c-0.5-1.3-1-2.6-1.5-3.9l-1.6-4L437,221.9z"/>
<path class="st10" d="M435.6,216.1c7.2,2.8,12.3,29,12.3,29l-17.1,6.7c0,0-5.7-13.2-7.7-22.9C421.1,218.7,427.4,213,435.6,216.1z"/>
<path class="st18" d="M435.6,216.1c7.2,2.8,12.3,29,12.3,29l-17.1,6.7c0,0-5.7-13.2-7.7-22.9C421.1,218.7,427.4,213,435.6,216.1z"/>
<path class="st10" d="M428.1,425.6c-0.5,0-1.1-0.1-1.6-0.4c-0.1-0.1-0.3-0.3-0.3-0.5c-0.1-0.2-0.1-0.4-0.1-0.6c0-0.1,0-0.2,0.1-0.3
	c0.1-0.1,0.1-0.2,0.2-0.2c0.9-0.5,3.5,1.1,3.8,1.3c0,0,0.1,0,0.1,0.1c0,0,0,0.1,0,0.1c0,0,0,0.1,0,0.1c0,0-0.1,0-0.1,0.1
	C429.5,425.5,428.8,425.6,428.1,425.6z M426.9,424c-0.1,0-0.2,0-0.3,0.1c-0.1,0-0.1,0.1-0.1,0.2c0,0.1,0,0.3,0,0.4
	c0,0.1,0.1,0.2,0.2,0.3c0.9,0.4,1.9,0.5,2.9,0.1C428.8,424.6,427.9,424.2,426.9,424z"/>
<path class="st10" d="M430.2,425.4C430.1,425.4,430.1,425.4,430.2,425.4c-0.9-0.4-2.5-2.2-2.4-3.1c0-0.1,0.1-0.3,0.2-0.4
	c0.1-0.1,0.2-0.1,0.4-0.1c0.1,0,0.3,0,0.4,0c0.1,0,0.3,0.1,0.4,0.2c0.9,0.8,1.1,3.1,1.1,3.2c0,0,0,0.1,0,0.1c0,0,0,0.1-0.1,0.1
	C430.2,425.4,430.2,425.4,430.2,425.4z M428.6,422.1L428.6,422.1c-0.3,0-0.4,0.1-0.4,0.2c-0.1,0.5,0.9,1.9,1.8,2.5
	c-0.1-0.9-0.4-1.8-0.9-2.5C428.9,422.2,428.8,422.1,428.6,422.1z"/>
<path class="st10" d="M379.8,425.6c-0.7,0.1-1.4-0.1-2-0.5c-0.1-0.1-0.2-0.3-0.3-0.4c-0.1-0.2-0.1-0.3-0.1-0.5c0-0.1,0-0.2,0.1-0.3
	c0.1-0.1,0.1-0.2,0.2-0.2c1-0.5,4.2,1.1,4.6,1.3c0,0,0.1,0,0.1,0.1c0,0,0,0.1,0,0.1c0,0,0,0.1,0,0.1c0,0-0.1,0-0.1,0.1
	C381.5,425.5,380.6,425.6,379.8,425.6z M378.3,424c-0.1,0-0.2,0-0.4,0.1c0,0-0.1,0-0.1,0.1c0,0,0,0.1,0,0.1c0,0.1,0,0.2,0,0.3
	c0,0.1,0.1,0.2,0.2,0.3c0.5,0.4,1.8,0.5,3.6,0.2C380.6,424.5,379.5,424.2,378.3,424z"/>
<path class="st10" d="M382.3,425.4L382.3,425.4c-1-0.4-3-2.1-2.8-3.1c0-0.2,0.2-0.5,0.7-0.5c0.2,0,0.4,0,0.6,0
	c0.2,0.1,0.4,0.1,0.5,0.3c1.1,0.8,1.2,3,1.2,3.1c0,0,0,0.1,0,0.1c0,0,0,0.1-0.1,0.1C382.3,425.4,382.3,425.4,382.3,425.4z
	 M380.3,422.1h-0.1c-0.4,0-0.4,0.2-0.4,0.2c-0.1,0.6,1.2,1.9,2.2,2.5c-0.1-0.9-0.5-1.8-1.1-2.5C380.8,422.2,380.5,422.1,380.3,422.1
	z"/>
<path class="st16" d="M420.6,282.3l-7.9,2.1l6.5,7.9c0,0,6.3-3.3,5-6.8L420.6,282.3z"/>
<path class="st16" d="M407,291.1l5.7,6.2l6.5-4.9l-6.5-7.9L407,291.1z"/>
<path class="st24" d="M152,197c-1.8,1.8-3.7,3.8-5.4,5.8c-1.8,2-3.5,4.1-5.2,6.2c-1.7,2.1-3.2,4.3-4.7,6.4l-1.1,1.7l-1.1,1.7
	c-0.4,0.6-0.7,1.1-1,1.7l-0.8,1.5c-0.3,0.9-0.5,1.8-0.6,2.8c-0.1,1.2-0.1,2.4,0,3.7c0.2,2.6,0.5,5.3,1,7.9c0.5,2.7,1.1,5.3,1.7,8
	c0.6,2.6,1.3,5.3,2,8l-3.9,1.5c-2.4-5.2-4.4-10.5-5.9-16c-0.8-2.8-1.4-5.6-1.9-8.5c-0.2-1.5-0.3-3.1-0.3-4.7c0-1.8,0.3-3.7,0.9-5.4
	c0.2-0.6,0.4-0.8,0.5-1.2l0.5-1c0.3-0.7,0.7-1.3,1-2l1.1-1.9l1.1-1.9c1.5-2.5,3.1-4.9,4.9-7.2c1.7-2.3,3.5-4.6,5.4-6.7
	c1.9-2.2,3.8-4.3,6-6.3L152,197z"/>
<path class="st10" d="M152.5,184.3c-5.7,0.3-11.1,9.7-11.1,9.7l6.8,13.8c0,0,11-6.9,11.2-15.3C159.3,187.2,158.1,184.1,152.5,184.3z
	"/>
<path class="st25" d="M152.5,184.3c-5.7,0.3-11.1,9.7-11.1,9.7l6.8,13.8c0,0,11-6.9,11.2-15.3C159.3,187.2,158.1,184.1,152.5,184.3z
	"/>
<path class="st24" d="M135.8,250.7l7,2.1l-4.6,4.7c0,0-5-1.5-5.7-4.9L135.8,250.7z"/>
<path class="st24" d="M146.9,258.1l-1.2,4.5l-7.7-5.1l4.6-4.7L146.9,258.1z"/>
<path class="st10" d="M306.3,211.7l-168.6,4l1.5,63.6l168.6-4L306.3,211.7z"/>
<path class="st9" d="M306.3,211.7l-168.6,4l1.5,63.6l168.6-4L306.3,211.7z"/>
<path class="st10" d="M291,219.8l-49.1,1.2l0.4,18.5l49.1-1.2L291,219.8z"/>
<path class="st10" d="M257,249.4l-48.5,1.2l0.4,18.3l48.5-1.2L257,249.4z"/>
<path class="st17" d="M191.9,163.3c-0.1,0.6,0.1,1.2,0.6,1.3c0.4,0.1,0.9-0.4,1-1.1c0.1-0.7-0.2-1.2-0.6-1.3
	C192.4,162.2,191.9,162.7,191.9,163.3z"/>
<path class="st17" d="M192.6,162.3l1.6-0.1C194.2,162.1,193.2,163.2,192.6,162.3z"/>
<path class="st26" d="M192.3,164.1c0.3,1.6,0.9,3.2,1.7,4.6c-0.4,0.2-0.8,0.3-1.2,0.3s-0.8-0.1-1.2-0.3L192.3,164.1z"/>
<path class="st17" d="M193.4,159.2c-0.1,0-0.1,0-0.2-0.1c-0.4-0.2-0.9-0.4-1.4-0.4c-0.5,0-1,0.1-1.5,0.3c0,0-0.1,0-0.1,0
	c-0.1,0-0.1,0-0.2,0c0,0-0.1,0-0.1-0.1c0,0-0.1-0.1-0.1-0.1c0,0,0-0.1,0-0.1c0-0.1,0-0.1,0-0.2s0-0.1,0.1-0.1c0,0,0.1-0.1,0.1-0.1
	c0.6-0.3,1.2-0.4,1.8-0.3c0.6,0,1.2,0.2,1.8,0.5c0,0,0.1,0.1,0.1,0.1c0,0,0.1,0.1,0.1,0.1c0,0,0,0.1,0,0.2c0,0,0,0.1,0,0.1
	c0,0.1-0.1,0.1-0.1,0.2C193.6,159.1,193.5,159.2,193.4,159.2z"/>
<path class="st24" d="M171,168.7c0.2,5-0.4,14-4.3,16.5c0,0,0.5,5.1,9.5,6.9c9.9,1.9,5.5-3.9,5.5-3.9c-5.2-2.3-4.4-6.3-2.8-9.8
	L171,168.7z"/>
<path class="st24" d="M197.8,197.8c0.6,2.5,1.4,5.2,2.2,7.8c0.9,2.6,1.8,5.1,2.9,7.6c1.1,2.4,2.3,4.8,3.7,7c1.3,2.1,2.8,4.1,4.6,5.8
	c0.8,0.8,1.7,1.4,2.7,2c0.5,0.3,0.9,0.5,1.4,0.7l0.4,0.2c0.1,0,0.2,0.1,0.4,0.1c0.9,0,1.7-0.2,2.5-0.5c1.1-0.5,2.1-1.1,3.1-1.8
	c4.3-3.3,8.3-7,11.7-11.2l3.5,2.3c-0.7,1.3-1.5,2.6-2.3,3.8c-0.8,1.2-1.7,2.4-2.6,3.6c-1.8,2.4-3.9,4.7-6.2,6.7
	c-1.2,1.1-2.6,2.1-4.1,2.9c-1.7,1-3.7,1.5-5.7,1.6c-0.6,0-1.2,0-1.8-0.1c-0.5-0.1-1.1-0.2-1.6-0.4c-0.8-0.3-1.7-0.6-2.5-1.1
	c-1.5-0.8-3-1.8-4.3-2.9c-5.1-4.4-8.2-9.8-10.7-15.3c-1.3-2.7-2.4-5.5-3.3-8.3c-1-2.8-1.8-5.7-2.4-8.7L197.8,197.8z"/>
<path class="st24" d="M233,215.8l2.4-4.4l6.7,1.8c0,0-4,6.1-7.5,6.1L233,215.8z"/>
<path class="st24" d="M240.9,209.8l5.1,3.4h-3.9l-6.7-1.8L240.9,209.8z"/>
<path class="st24" d="M149.5,424.6l8.2,0.6l2.4-18.9l-8.2-0.6L149.5,424.6z"/>
<path class="st24" d="M84.8,384l5.7,6.1l15.4-11l-5.7-6.1L84.8,384z"/>
<path class="st17" d="M93,389.1l-4.8-8.1c-0.1-0.1-0.2-0.2-0.3-0.3c-0.1-0.1-0.3-0.1-0.5,0l-6.8,2.7c-0.2,0.1-0.3,0.2-0.4,0.3
	c-0.1,0.1-0.2,0.3-0.3,0.5c-0.1,0.2-0.1,0.4,0,0.6c0,0.2,0.1,0.4,0.2,0.5c1.7,2.8,2.7,4.1,4.7,7.6c1.3,2.1,2.9,5.5,4.7,8.5
	c1.8,3,4.8,1.5,4.3,0.1c-2.1-6.3-1.1-8.2-0.6-11C93.3,390.1,93.2,389.5,93,389.1z"/>
<path class="st17" d="M158.3,424H149c-0.2,0-0.3,0-0.4,0.2c-0.1,0.1-0.2,0.2-0.2,0.4l-1.3,7.3c0,0.2,0,0.4,0,0.5
	c0.1,0.2,0.1,0.3,0.3,0.5c0.1,0.1,0.3,0.2,0.4,0.3c0.2,0.1,0.4,0.1,0.5,0.1c3.2-0.1,4.8-0.2,8.9-0.2c2.5,0,7.7,0.3,11.1,0.3
	s3.7-3.4,2.3-3.7c-6.4-1.4-8.9-3.3-11-5.1C159.2,424.2,158.8,424,158.3,424z"/>
<path class="st27" d="M160.2,406.3l-1.4,10.5l-8.1-1.4l1.3-9.7L160.2,406.3z"/>
<path class="st27" d="M100.2,372.9l5.7,6.1l-6.4,4.6l-5.9-6L100.2,372.9z"/>
<path class="st10" d="M150.2,234.5l33.1,6.4c15.6-46,11.9-47.4,11.9-47.4c-2.4-1.3-4.9-2.5-7.5-3.5l-0.4-0.2
	c-2.1-0.8-2.6-0.9-5.4-1.7c-4.9-1.1-9.4-2.1-15-2.9l-1.1-0.1c-1-0.1-2-0.2-3-0.3c-0.7-0.1-1.3-0.1-1.9-0.2l-2.1-0.1
	c-3.6-0.2-6.2-0.1-6.2-0.1C154.3,213,152.9,221.2,150.2,234.5z"/>
<path class="st25" d="M150.2,234.5l33.1,6.4c15.6-46,11.9-47.4,11.9-47.4c-2.4-1.3-4.9-2.5-7.5-3.5l-0.4-0.2
	c-2.1-0.8-2.6-0.9-5.4-1.7c-4.9-1.1-9.4-2.1-15-2.9l-1.1-0.1c-1-0.1-2-0.2-3-0.3c-0.7-0.1-1.3-0.1-1.9-0.2l-2.1-0.1
	c-3.6-0.2-6.2-0.1-6.2-0.1C154.3,213,152.9,221.2,150.2,234.5z"/>
<path class="st10" d="M188.4,207.4c-0.9,4.8-0.6,9.8,1,14.4c2.7-9,4.3-15.1,5.1-19.3C192,202.2,189.3,203,188.4,207.4z"/>
<path class="st28" d="M188.4,207.4c-0.9,4.8-0.6,9.8,1,14.4c2.7-9,4.3-15.1,5.1-19.3C192,202.2,189.3,203,188.4,207.4z"/>
<path class="st10" d="M194.8,193.3c5.5,3.6,9,11.6,9.9,16.2l-12.8,10.4c0,0-7-15.5-4.7-19.5C189.6,196.2,192.7,192,194.8,193.3z"/>
<path class="st25" d="M194.8,193.3c5.5,3.6,9,11.6,9.9,16.2l-12.8,10.4c0,0-7-15.5-4.7-19.5C189.6,196.2,192.7,192,194.8,193.3z"/>
<path class="st24" d="M170.2,157.3c-0.8,8.1-1.4,11.5,2,16.4c5.1,7.4,15.3,6.9,18.5-0.7c2.9-6.9,3.8-19-3.6-23.7
	c-1.6-1.1-3.4-1.7-5.3-1.9c-1.9-0.1-3.8,0.2-5.5,1c-1.7,0.8-3.2,2-4.3,3.6C171,153.6,170.4,155.4,170.2,157.3z"/>
<path class="st17" d="M170.3,140.7c-5,3.7-1.8,4.6-3.9,8.3c-2.3,4-4.7-0.6-9.2,3.8c-2.9,2.8,2.1,5.9-1.6,10.9
	c-2.8,3.9-5.9,0.5-4.7,8.5c0.8,5.4-2.5,4.8-4.8,7.8c-3.2,4.4-0.3,7.6,7.9,9.2c8.2,1.7,2.4,9.9,10.1,10.2c8.4,0.3,6.5-10.7,10.6-8.1
	c4.1,2.7,11.6,0.2,11.2-6.3c-0.4-6-7.1-5.8-1.7-9.9c4.3-3.2,5.6-3.2,2.5-10.1c-2.5-5.8,6.8-4.9,6.6-10c-0.3-9.1-6.6-6.4-8.6-11.1
	C183.5,141,176.7,136,170.3,140.7z"/>
<path class="st24" d="M185.9,161.5c0,1.5,0.6,3,1.5,4.2c1.3,1.7,2.7,1.3,3.1-0.3c0.3-1.4,0.1-4-1.5-5.2
	C187.3,159,185.9,159.8,185.9,161.5z"/>
<path class="st10" d="M174.5,239.2c0,0-16.1,53.9-23.9,84.9c-8.3,32.7-47.9,59.4-47.9,59.4l-8.4-8.4c0,0,26.4-22.3,34.5-52.9
	c16.3-62,8.5-75.1,21.5-87.7L174.5,239.2z"/>
<path class="st29" d="M174.5,239.2c0,0-16.1,53.9-23.9,84.9c-8.3,32.7-47.9,59.4-47.9,59.4l-8.4-8.4c0,0,26.4-22.3,34.5-52.9
	c16.3-62,8.5-75.1,21.5-87.7L174.5,239.2z"/>
<path class="st10" d="M103.4,384.7l-10.5-10.5l2.9-3.2l12.8,10.9L103.4,384.7z"/>
<path class="st10" d="M166.9,250.7c-10.6,8.1-11.3,39.1-11,53.2c5.3-19.6,11.7-41.4,15.4-54C170.3,249,168.9,249.2,166.9,250.7z"/>
<path class="st30" d="M166.9,250.7c-10.6,8.1-11.3,39.1-11,53.2c5.3-19.6,11.7-41.4,15.4-54C170.3,249,168.9,249.2,166.9,250.7z"/>
<path class="st10" d="M94.7,393.5c-0.1,0-0.2,0-0.3,0c-1-0.3-1.7-2.1-2.1-3.2c0,0,0-0.1,0-0.1c0,0,0-0.1,0.1-0.1c0,0,0.1,0,0.1,0
	c0,0,0.1,0,0.1,0c0.3,0.1,3,1.5,3.1,2.6c0,0.1,0,0.2-0.1,0.3c0,0.1-0.1,0.2-0.2,0.3C95.2,393.5,94.9,393.5,94.7,393.5z M92.8,390.6
	c0.5,1.4,1.1,2.3,1.6,2.5c0.1,0,0.2,0,0.4,0c0.1,0,0.2-0.1,0.3-0.2c0,0,0.1-0.1,0.1-0.1c0,0,0-0.1,0-0.1
	C95.2,392.1,93.9,391.2,92.8,390.6z"/>
<path class="st10" d="M182.7,240.9c0,0,2.1,65.2-2.5,89.7c-4.8,25.5-19.4,83.6-19.4,83.6l-11.9-1.5c0,0,7.5-58.6,10.7-84
	c3.5-27.7-1.1-92.4-1.1-92.4L182.7,240.9z"/>
<path class="st29" d="M182.7,240.9c0,0,2.1,65.2-2.5,89.7c-4.8,25.5-19.4,83.6-19.4,83.6l-11.9-1.5c0,0,7.5-58.6,10.7-84
	c3.5-27.7-1.1-92.4-1.1-92.4L182.7,240.9z"/>
<path class="st10" d="M163.3,414.9l-16.9-2.2l0.2-4l18.4,0.8L163.3,414.9z"/>
<path class="st10" d="M94.9,390.9c-0.9,0-1.7-0.2-2.5-0.6c0,0-0.1,0-0.1-0.1c0,0,0-0.1,0-0.1c0,0,0-0.1,0-0.1c0,0,0-0.1,0.1-0.1
	c0.1-0.1,2.1-1.2,3.2-0.8c0.1,0,0.3,0.1,0.4,0.2c0.1,0.1,0.2,0.2,0.3,0.4c0.1,0.1,0.1,0.3,0.1,0.5c0,0.2-0.1,0.3-0.2,0.4
	C95.8,390.9,95.3,391,94.9,390.9z M92.9,390.2c0.9,0.4,2.5,0.5,3,0.1c0.1-0.1,0.1-0.2,0-0.4c0-0.1-0.1-0.2-0.2-0.2
	c-0.1-0.1-0.2-0.1-0.3-0.1C94.6,389.5,93.7,389.7,92.9,390.2z"/>
<path class="st10" d="M161.3,425.5c-0.9,0-1.7-0.1-2.6-0.3c0,0-0.1,0-0.1-0.1c0,0,0-0.1-0.1-0.1c0,0,0-0.1,0-0.1c0,0,0-0.1,0.1-0.1
	c0.4-0.2,3.7-1.9,4.7-1.3c0.1,0.1,0.2,0.1,0.2,0.2c0.1,0.1,0.1,0.2,0.1,0.3c0,0.2,0,0.4-0.1,0.5c-0.1,0.2-0.2,0.3-0.3,0.4
	C162.8,425.4,162.1,425.5,161.3,425.5z M159.4,424.9c1.8,0.3,3.2,0.2,3.7-0.2c0.1-0.1,0.2-0.2,0.2-0.3c0-0.1,0.1-0.2,0-0.3
	c0,0,0-0.1,0-0.1c0,0-0.1-0.1-0.1-0.1C162.7,423.5,160.8,424.2,159.4,424.9z"/>
<path class="st10" d="M158.8,425.2c0,0-0.1,0-0.1,0c0,0-0.1,0-0.1-0.1c0,0,0-0.1,0-0.1c0-0.1,0.4-3.7,2.4-3.5
	c0.5,0.1,0.7,0.3,0.7,0.5C161.9,423,159.9,424.8,158.8,425.2L158.8,425.2z M160.9,421.8c-1.2,0-1.7,2-1.8,2.8c1.1-0.6,2.4-2,2.3-2.6
	c0,0,0-0.2-0.4-0.2L160.9,421.8z"/>
<path class="st10" d="M150,232.5l-2,2.6c-0.2,0.2,0.1,0.5,0.5,0.6l34.6,6.7c0.3,0.1,0.6,0,0.6-0.2l0.8-2.9c0-0.2-0.2-0.4-0.5-0.5
	l-33.4-6.5c-0.1,0-0.2,0-0.3,0S150.1,232.4,150,232.5z"/>
<path class="st10" d="M153.9,237l-0.9-0.2c-0.2,0-0.3-0.2-0.3-0.3l1.1-3.7c0-0.1,0.2-0.2,0.4-0.1l0.9,0.2c0.2,0,0.3,0.2,0.3,0.3
	l-1.1,3.7C154.2,237,154,237.1,153.9,237z"/>
<path class="st29" d="M153.9,237l-0.9-0.2c-0.2,0-0.3-0.2-0.3-0.3l1.1-3.7c0-0.1,0.2-0.2,0.4-0.1l0.9,0.2c0.2,0,0.3,0.2,0.3,0.3
	l-1.1,3.7C154.2,237,154,237.1,153.9,237z"/>
<path class="st10" d="M176.5,241.5l-0.9-0.2c-0.2,0-0.3-0.1-0.3-0.3l1.1-3.7c0-0.1,0.2-0.2,0.4-0.1l0.9,0.2c0.2,0,0.3,0.1,0.3,0.3
	l-1.1,3.7C176.8,241.5,176.7,241.5,176.5,241.5z"/>
<path class="st29" d="M176.5,241.5l-0.9-0.2c-0.2,0-0.3-0.1-0.3-0.3l1.1-3.7c0-0.1,0.2-0.2,0.4-0.1l0.9,0.2c0.2,0,0.3,0.1,0.3,0.3
	l-1.1,3.7C176.8,241.5,176.7,241.5,176.5,241.5z"/>
<radialGradient id="SVGID_00000132086226417042015880000016634892774374385058_" cx="-9.2642" cy="667.1929" r="1" gradientTransform="matrix(98.7288 -20.6779 -20.6779 -98.7288 15201.9678 66016.5)" gradientUnits="userSpaceOnUse">
	<stop  offset="0" style="stop-color:#504ED8"/>
	<stop  offset="1" style="stop-color:#504ED8"/>
</radialGradient>
<path style="fill:url(#SVGID_00000132086226417042015880000016634892774374385058_);" d="M508.9,427c37.6,0,68-30.4,68-68
	s-30.4-68-68-68s-68,30.4-68,68S471.4,427,508.9,427z"/>
<radialGradient id="SVGID_00000119113795242446301790000000439436045956338336_" cx="-9.2376" cy="667.3641" r="1" gradientTransform="matrix(109.8114 -22.999 -22.999 -109.8114 16857.6523 73408.5234)" gradientUnits="userSpaceOnUse">
	<stop  offset="0" style="stop-color:#00CAD7"/>
	<stop  offset="0.1121" style="stop-color:#00CAD7;stop-opacity:0.8879"/>
	<stop  offset="0.2691" style="stop-color:#00CAD7;stop-opacity:0.7309"/>
	<stop  offset="0.3703" style="stop-color:#00CAD7;stop-opacity:0.5537"/>
	<stop  offset="0.5109" style="stop-color:#00CAD7;stop-opacity:0.3412"/>
	<stop  offset="0.6672" style="stop-color:#00CAD7;stop-opacity:0"/>
</radialGradient>
<path style="fill:url(#SVGID_00000119113795242446301790000000439436045956338336_);" d="M508.9,427c37.6,0,68-30.4,68-68
	s-30.4-68-68-68s-68,30.4-68,68S471.4,427,508.9,427z"/>
<linearGradient id="SVGID_00000063595852703520714110000005819834162506619059_" gradientUnits="userSpaceOnUse" x1="149.6897" y1="398.7057" x2="0.7345" y2="398.2738" gradientTransform="matrix(1 0 0 -1 0 495.8898)">
	<stop  offset="0.4588" style="stop-color:#504ED8"/>
	<stop  offset="1" style="stop-color:#00CAD7"/>
</linearGradient>
<path style="fill:url(#SVGID_00000063595852703520714110000005819834162506619059_);" d="M114.9,194.4l-114-36.8L149.4,0
	L114.9,194.4z"/>
<linearGradient id="SVGID_00000177468769885520604340000008036598905872860325_" gradientUnits="userSpaceOnUse" x1="135.7487" y1="455.302" x2="-38.7631" y2="345.1825" gradientTransform="matrix(1 0 0 -1 0 495.8898)">
	<stop  offset="0" style="stop-color:#00CAD7"/>
	<stop  offset="0.3911" style="stop-color:#504ED8"/>
</linearGradient>
<path style="fill:url(#SVGID_00000177468769885520604340000008036598905872860325_);" d="M0.9,157.6l38.2-86.2L149.4,0L0.9,157.6z"
	/>
<radialGradient id="SVGID_00000064353630174053184900000005876545839181034410_" cx="-9.4278" cy="666.1424" r="1" gradientTransform="matrix(60.9795 -12.7716 -12.7716 -60.9795 9162.5938 40799.9688)" gradientUnits="userSpaceOnUse">
	<stop  offset="0" style="stop-color:#504ED8"/>
	<stop  offset="1" style="stop-color:#504ED8"/>
</radialGradient>
<path style="fill:url(#SVGID_00000064353630174053184900000005876545839181034410_);" d="M90.9,355c23.2,0,42-18.8,42-42
	s-18.8-42-42-42c-23.2,0-42,18.8-42,42S67.7,355,90.9,355z"/>
<radialGradient id="SVGID_00000181050614096437574860000000457503392604241810_" cx="-9.3847" cy="666.4197" r="1" gradientTransform="matrix(67.8248 -14.2053 -14.2053 -67.8248 10185.248 45365.75)" gradientUnits="userSpaceOnUse">
	<stop  offset="0" style="stop-color:#00CAD7"/>
	<stop  offset="0.1121" style="stop-color:#00CAD7;stop-opacity:0.8879"/>
	<stop  offset="0.2691" style="stop-color:#00CAD7;stop-opacity:0.7309"/>
	<stop  offset="0.3703" style="stop-color:#00CAD7;stop-opacity:0.5537"/>
	<stop  offset="0.5109" style="stop-color:#00CAD7;stop-opacity:0.3412"/>
	<stop  offset="0.6672" style="stop-color:#00CAD7;stop-opacity:0"/>
</radialGradient>
<path style="fill:url(#SVGID_00000181050614096437574860000000457503392604241810_);" d="M90.9,355c23.2,0,42-18.8,42-42
	s-18.8-42-42-42c-23.2,0-42,18.8-42,42S67.7,355,90.9,355z"/>
<linearGradient id="SVGID_00000060709196180187547550000012612631701632074174_" gradientUnits="userSpaceOnUse" x1="148.1935" y1="22.0379" x2="31.8751" y2="-12.7241" gradientTransform="matrix(1 0 0 -1 0 495.8898)">
	<stop  offset="0" style="stop-color:#504ED8"/>
	<stop  offset="1" style="stop-color:#00CAD7"/>
</linearGradient>
<path style="fill:url(#SVGID_00000060709196180187547550000012612631701632074174_);" d="M130.8,464c1.3,0,2.4,1.1,2.4,2.4v25.3
	c0,1.3-1.1,2.4-2.4,2.4s-2.4-1.1-2.4-2.4v-25.3C128.4,465.1,129.5,464,130.8,464z"/>
<linearGradient id="SVGID_00000110443909911344030570000007179145639945453207_" gradientUnits="userSpaceOnUse" x1="146.9139" y1="26.3176" x2="30.5957" y2="-8.4444" gradientTransform="matrix(1 0 0 -1 0 495.8898)">
	<stop  offset="0" style="stop-color:#504ED8"/>
	<stop  offset="1" style="stop-color:#00CAD7"/>
</linearGradient>
<path style="fill:url(#SVGID_00000110443909911344030570000007179145639945453207_);" d="M115.2,464c1.3,0,2.4,1.1,2.4,2.4v25.3
	c0,1.3-1.1,2.4-2.4,2.4c-1.3,0-2.4-1.1-2.4-2.4v-25.3C112.8,465.1,113.9,464,115.2,464z"/>
<linearGradient id="SVGID_00000000204371544866247360000000027672635540596375_" gradientUnits="userSpaceOnUse" x1="145.6355" y1="30.5965" x2="29.3171" y2="-4.1655" gradientTransform="matrix(1 0 0 -1 0 495.8898)">
	<stop  offset="0" style="stop-color:#504ED8"/>
	<stop  offset="1" style="stop-color:#00CAD7"/>
</linearGradient>
<path style="fill:url(#SVGID_00000000204371544866247360000000027672635540596375_);" d="M99.6,464c1.3,0,2.4,1.1,2.4,2.4v25.3
	c0,1.3-1.1,2.4-2.4,2.4c-1.3,0-2.4-1.1-2.4-2.4v-25.3C97.3,465.1,98.3,464,99.6,464z"/>
<linearGradient id="SVGID_00000111904926226839584410000015661049372675072144_" gradientUnits="userSpaceOnUse" x1="144.3647" y1="34.85" x2="28.0465" y2="8.804064e-02" gradientTransform="matrix(1 0 0 -1 0 495.8898)">
	<stop  offset="0" style="stop-color:#504ED8"/>
	<stop  offset="1" style="stop-color:#00CAD7"/>
</linearGradient>
<path style="fill:url(#SVGID_00000111904926226839584410000015661049372675072144_);" d="M84.1,464c1.3,0,2.4,1.1,2.4,2.4v25.3
	c0,1.3-1.1,2.4-2.4,2.4c-1.3,0-2.4-1.1-2.4-2.4v-25.3C81.7,465.1,82.8,464,84.1,464z"/>
<linearGradient id="SVGID_00000028313288821531887490000003767425836080735399_" gradientUnits="userSpaceOnUse" x1="143.0861" y1="39.1299" x2="26.7674" y2="4.3679" gradientTransform="matrix(1 0 0 -1 0 495.8898)">
	<stop  offset="0" style="stop-color:#504ED8"/>
	<stop  offset="1" style="stop-color:#00CAD7"/>
</linearGradient>
<path style="fill:url(#SVGID_00000028313288821531887490000003767425836080735399_);" d="M68.5,464c1.3,0,2.4,1.1,2.4,2.4v25.3
	c0,1.3-1.1,2.4-2.4,2.4c-1.3,0-2.4-1.1-2.4-2.4v-25.3C66.1,465.1,67.2,464,68.5,464z"/>
<linearGradient id="SVGID_00000003808845088410386670000011312028096586999177_" gradientUnits="userSpaceOnUse" x1="141.806" y1="43.408" x2="25.489" y2="8.647" gradientTransform="matrix(1 0 0 -1 0 495.8898)">
	<stop  offset="0" style="stop-color:#504ED8"/>
	<stop  offset="1" style="stop-color:#00CAD7"/>
</linearGradient>
<path style="fill:url(#SVGID_00000003808845088410386670000011312028096586999177_);" d="M52.9,464c1.3,0,2.4,1.1,2.4,2.4v25.3
	c0,1.3-1.1,2.4-2.4,2.4c-1.3,0-2.4-1.1-2.4-2.4v-25.3C50.6,465.1,51.6,464,52.9,464z"/>
<linearGradient id="SVGID_00000114071129510589071630000016187203346958005678_" gradientUnits="userSpaceOnUse" x1="140.5362" y1="47.6614" x2="24.2177" y2="12.9004" gradientTransform="matrix(1 0 0 -1 0 495.8898)">
	<stop  offset="0" style="stop-color:#504ED8"/>
	<stop  offset="1" style="stop-color:#00CAD7"/>
</linearGradient>
<path style="fill:url(#SVGID_00000114071129510589071630000016187203346958005678_);" d="M37.4,464c1.3,0,2.4,1.1,2.4,2.4v25.3
	c0,1.3-1.1,2.4-2.4,2.4c-1.3,0-2.4-1.1-2.4-2.4v-25.3C35,465.1,36.1,464,37.4,464z"/>
<linearGradient id="SVGID_00000078751782835776239250000013946197886145788308_" gradientUnits="userSpaceOnUse" x1="176.8099" y1="403.6067" x2="214.6209" y2="484.6302" gradientTransform="matrix(1 0 0 -1 0 495.8898)">
	<stop  offset="0.6255" style="stop-color:#504ED8"/>
	<stop  offset="1" style="stop-color:#00CAD7"/>
</linearGradient>
<path style="fill:url(#SVGID_00000078751782835776239250000013946197886145788308_);" d="M204.9,43c-6.1,0-11-4.9-11-11
	s4.9-11,11-11s11,4.9,11,11S211,43,204.9,43z M204.9,26.7c-2.9,0-5.3,2.4-5.3,5.3s2.4,5.3,5.3,5.3s5.3-2.4,5.3-5.3
	S207.8,26.7,204.9,26.7z"/>
<linearGradient id="SVGID_00000011015544927408623480000014141163613375798666_" gradientUnits="userSpaceOnUse" x1="517.1465" y1="344.3922" x2="450.6245" y2="271.3492" gradientTransform="matrix(1 0 0 -1 0 495.8898)">
	<stop  offset="0" style="stop-color:#504ED8"/>
	<stop  offset="1" style="stop-color:#00CAD7"/>
</linearGradient>
<path style="fill:url(#SVGID_00000011015544927408623480000014141163613375798666_);" d="M479.3,222.8l-28.4-28.4h28.4V222.8z"/>
<linearGradient id="SVGID_00000053541310219937529370000010778316278683370682_" gradientUnits="userSpaceOnUse" x1="517.8089" y1="343.7889" x2="451.2869" y2="270.745" gradientTransform="matrix(1 0 0 -1 0 495.8898)">
	<stop  offset="0" style="stop-color:#504ED8"/>
	<stop  offset="1" style="stop-color:#00CAD7"/>
</linearGradient>
<path style="fill:url(#SVGID_00000053541310219937529370000010778316278683370682_);" d="M493.9,208.1l-28.4-28.4h28.4V208.1z"/>
<linearGradient id="SVGID_00000163780412542023420300000010745873893000830133_" gradientUnits="userSpaceOnUse" x1="518.5269" y1="343.136" x2="452.0049" y2="270.092" gradientTransform="matrix(1 0 0 -1 0 495.8898)">
	<stop  offset="0" style="stop-color:#504ED8"/>
	<stop  offset="1" style="stop-color:#00CAD7"/>
</linearGradient>
<path style="fill:url(#SVGID_00000163780412542023420300000010745873893000830133_);" d="M508.6,193.4L480.2,165h28.4V193.4z"/>
</svg>
