<svg width="560" height="480" viewBox="0 0 560 480" fill="none" xmlns="http://www.w3.org/2000/svg">
<path d="M449.37 384.277H436.029V384.5H449.37V384.277Z" fill="#E0E0E0"/>
<path d="M331.116 100.627C331.114 107.7 329.394 114.666 326.104 120.927C322.814 127.188 318.052 132.556 312.228 136.569C306.404 140.583 299.693 143.122 292.671 143.967C285.649 144.813 278.526 143.94 271.916 141.425C280.172 138.266 287.275 132.676 292.286 125.394C297.297 118.112 299.98 109.48 299.98 100.64C299.98 91.8007 297.297 83.1691 292.286 75.8869C287.275 68.6047 280.172 63.0147 271.916 59.8561C278.524 57.341 285.644 56.4681 292.664 57.3125C299.684 58.1569 306.394 60.6933 312.217 64.7037C318.04 68.7141 322.802 74.0785 326.094 80.3359C329.386 86.5933 331.11 93.5564 331.116 100.627Z" fill="#EAEAEA"/>
<path d="M301.324 72.2967C301.862 73.2494 302.181 74.3094 302.26 75.4004C302.338 76.4915 302.174 77.5863 301.778 78.6062C301.387 76.7056 300.695 74.8795 299.729 73.1968C298.781 71.4972 297.579 69.9525 296.164 68.6162C297.242 68.8108 298.264 69.2418 299.157 69.8781C300.049 70.5145 300.789 71.3404 301.324 72.2967Z" fill="#868686"/>
<path d="M322.865 91.4662C322.582 92.5222 322.07 93.5026 321.364 94.3376C320.658 95.1726 319.777 95.8414 318.783 96.2963C319.83 94.6459 320.612 92.8417 321.1 90.9493C321.607 89.0743 321.827 87.1332 321.751 85.1924C322.392 86.0893 322.824 87.118 323.017 88.2034C323.21 89.2887 323.158 90.4035 322.865 91.4662Z" fill="#868686"/>
<path d="M320.164 120.233C319.406 121.019 318.482 121.627 317.461 122.014C316.439 122.4 315.345 122.556 314.256 122.47C315.961 121.544 317.512 120.359 318.854 118.958C320.208 117.567 321.341 115.978 322.214 114.244C322.334 115.332 322.213 116.432 321.859 117.468C321.504 118.503 320.926 119.447 320.164 120.233Z" fill="#868686"/>
<path d="M300.211 134.848C299.453 135.635 298.53 136.245 297.509 136.633C296.487 137.021 295.392 137.179 294.303 137.094C297.726 135.215 300.5 132.344 302.261 128.859C302.384 129.947 302.264 131.049 301.91 132.084C301.555 133.12 300.975 134.064 300.211 134.848Z" fill="#868686"/>
<path d="M310.743 105.778C310.513 106.846 310.049 107.85 309.385 108.717C308.721 109.584 307.873 110.294 306.902 110.795C308.821 107.397 309.671 103.5 309.344 99.6113C310.022 100.47 310.499 101.469 310.742 102.536C310.984 103.603 310.984 104.711 310.743 105.778Z" fill="#868686"/>
<path d="M370.975 170.104C370.716 170.104 370.464 170.029 370.247 169.888C370.03 169.747 369.859 169.547 369.754 169.31C367.223 163.589 381.499 153.679 396.908 146.853C412.316 140.027 429.248 136.097 431.788 141.818C431.859 141.979 431.897 142.152 431.901 142.328C431.905 142.504 431.874 142.679 431.81 142.842C431.747 143.006 431.651 143.156 431.53 143.283C431.408 143.41 431.263 143.512 431.102 143.582C430.941 143.653 430.768 143.692 430.592 143.696C430.416 143.699 430.241 143.669 430.077 143.605C429.914 143.541 429.764 143.446 429.637 143.324C429.51 143.203 429.408 143.057 429.337 142.896C428.205 140.348 415.435 141.56 397.995 149.295C380.555 157.03 371.064 165.666 372.151 168.223C372.226 168.384 372.269 168.559 372.275 168.737C372.282 168.914 372.253 169.092 372.19 169.258C372.127 169.424 372.031 169.576 371.908 169.704C371.785 169.833 371.637 169.935 371.474 170.006C371.316 170.071 371.146 170.104 370.975 170.104Z" fill="#504ED8"/>
<path d="M400.866 178.895C413.539 178.895 423.813 168.621 423.813 155.948C423.813 143.274 413.539 133 400.866 133C388.192 133 377.918 143.274 377.918 155.948C377.918 168.621 388.192 178.895 400.866 178.895Z" fill="#D0D0D0"/>
<path d="M376.463 172.09C372.827 172.09 370.572 171.199 369.753 169.31C369.68 169.148 369.64 168.973 369.635 168.796C369.63 168.618 369.661 168.442 369.725 168.276C369.788 168.11 369.884 167.959 370.007 167.83C370.129 167.702 370.276 167.599 370.439 167.528C370.6 167.452 370.774 167.41 370.952 167.403C371.13 167.397 371.307 167.426 371.473 167.489C371.639 167.552 371.791 167.648 371.92 167.771C372.048 167.894 372.151 168.042 372.221 168.205C372.578 169.007 375.001 170.041 381.855 168.864C389.345 167.373 396.634 165.007 403.572 161.815C420.986 154.107 430.486 145.453 429.336 142.878C429.193 142.553 429.185 142.184 429.314 141.854C429.442 141.523 429.697 141.256 430.022 141.113C430.347 140.97 430.716 140.962 431.047 141.091C431.377 141.22 431.644 141.475 431.787 141.8C434.318 147.521 420.041 157.431 404.633 164.257C397.491 167.536 389.99 169.967 382.282 171.502C380.362 171.861 378.416 172.058 376.463 172.09Z" fill="#09C4D0"/>
<path d="M365.334 100.939L366.091 102.463C366.135 102.551 366.199 102.627 366.278 102.684C366.357 102.741 366.449 102.779 366.546 102.793L368.23 103.043C368.342 103.058 368.447 103.105 368.534 103.178C368.621 103.251 368.686 103.346 368.721 103.454C368.756 103.562 368.761 103.677 368.734 103.787C368.707 103.897 368.65 103.997 368.568 104.076L367.348 105.271C367.277 105.338 367.225 105.423 367.195 105.516C367.165 105.61 367.16 105.709 367.178 105.805L367.463 107.481C367.485 107.594 367.474 107.711 367.431 107.818C367.388 107.925 367.316 108.018 367.222 108.085C367.129 108.152 367.018 108.192 366.903 108.198C366.787 108.205 366.673 108.179 366.572 108.122L365.066 107.329C364.978 107.285 364.88 107.262 364.781 107.262C364.682 107.262 364.584 107.285 364.496 107.329L362.99 108.122C362.889 108.179 362.775 108.205 362.659 108.198C362.544 108.192 362.433 108.152 362.34 108.085C362.246 108.018 362.174 107.925 362.131 107.818C362.088 107.711 362.077 107.594 362.099 107.481L362.384 105.805C362.403 105.708 362.397 105.608 362.365 105.514C362.334 105.421 362.279 105.337 362.206 105.271L360.976 104.076C360.895 103.997 360.837 103.897 360.81 103.787C360.783 103.677 360.788 103.562 360.823 103.454C360.858 103.346 360.923 103.251 361.01 103.178C361.097 103.105 361.202 103.058 361.314 103.043L362.999 102.793C363.095 102.779 363.187 102.741 363.266 102.684C363.346 102.627 363.41 102.551 363.453 102.463L364.211 100.939C364.256 100.828 364.334 100.732 364.434 100.665C364.534 100.597 364.652 100.562 364.772 100.562C364.893 100.562 365.01 100.597 365.11 100.665C365.21 100.732 365.288 100.828 365.334 100.939Z" fill="#F5F5F5"/>
<path d="M87.5027 250.878L88.278 252.402C88.3222 252.49 88.3863 252.566 88.4652 252.625C88.5441 252.684 88.6357 252.724 88.7325 252.741L90.4168 252.981C90.5289 252.999 90.634 253.047 90.7203 253.121C90.8066 253.195 90.8709 253.291 90.906 253.399C90.941 253.507 90.9455 253.622 90.919 253.733C90.8924 253.843 90.8358 253.944 90.7555 254.024L89.5346 255.209C89.4647 255.278 89.4127 255.362 89.3832 255.456C89.3537 255.549 89.3475 255.648 89.3653 255.744L89.6504 257.428C89.6719 257.542 89.6606 257.659 89.6178 257.766C89.5751 257.873 89.5027 257.965 89.4091 258.033C89.3155 258.1 89.2047 258.139 89.0896 258.146C88.9745 258.153 88.8599 258.126 88.7593 258.07L87.2532 257.277C87.1659 257.228 87.0678 257.203 86.968 257.203C86.8682 257.203 86.7701 257.228 86.6828 257.277L85.1768 258.07C85.0761 258.126 84.9615 258.153 84.8464 258.146C84.7313 258.139 84.6205 258.1 84.5269 258.033C84.4334 257.965 84.361 257.873 84.3182 257.766C84.2755 257.659 84.2642 257.542 84.2856 257.428L84.5708 255.744C84.5885 255.648 84.5823 255.549 84.5528 255.456C84.5233 255.362 84.4713 255.278 84.4015 255.209L83.1806 254.024C83.1002 253.944 83.0436 253.843 83.0171 253.733C82.9905 253.622 82.995 253.507 83.0301 253.399C83.0651 253.291 83.1294 253.195 83.2157 253.121C83.302 253.047 83.4071 252.999 83.5192 252.981L85.2035 252.741C85.3004 252.724 85.3919 252.684 85.4708 252.625C85.5497 252.566 85.6138 252.49 85.658 252.402L86.4155 250.878C86.4655 250.777 86.5429 250.691 86.639 250.631C86.7351 250.572 86.846 250.54 86.9591 250.54C87.0723 250.54 87.1831 250.572 87.2792 250.631C87.3753 250.691 87.4527 250.777 87.5027 250.878Z" fill="#E6E6E6"/>
<path d="M304.448 317.368L305.196 318.892C305.24 318.981 305.305 319.058 305.386 319.116C305.467 319.173 305.561 319.21 305.66 319.222L307.344 319.471C307.455 319.488 307.56 319.536 307.645 319.61C307.731 319.683 307.795 319.779 307.829 319.886C307.863 319.993 307.867 320.108 307.839 320.218C307.812 320.327 307.755 320.426 307.674 320.505L306.462 321.699C306.39 321.767 306.337 321.851 306.306 321.944C306.274 322.037 306.267 322.137 306.283 322.234L306.569 323.918C306.59 324.031 306.579 324.148 306.536 324.255C306.493 324.363 306.421 324.455 306.327 324.523C306.234 324.59 306.123 324.629 306.008 324.636C305.893 324.642 305.778 324.616 305.677 324.56L304.171 323.767C304.086 323.718 303.989 323.693 303.891 323.693C303.792 323.693 303.696 323.718 303.61 323.767L302.095 324.56C301.994 324.612 301.88 324.636 301.767 324.628C301.653 324.619 301.544 324.58 301.452 324.513C301.359 324.447 301.287 324.356 301.244 324.251C301.2 324.146 301.186 324.031 301.204 323.918L301.498 322.234C301.512 322.137 301.504 322.038 301.473 321.945C301.442 321.852 301.389 321.768 301.32 321.699L300.099 320.505C300.018 320.426 299.96 320.326 299.933 320.216C299.906 320.106 299.911 319.99 299.946 319.883C299.981 319.775 300.046 319.679 300.133 319.607C300.22 319.534 300.325 319.487 300.437 319.471L302.122 319.222C302.22 319.208 302.313 319.171 302.394 319.114C302.475 319.056 302.54 318.98 302.585 318.892L303.334 317.368C303.383 317.262 303.462 317.173 303.561 317.11C303.659 317.047 303.774 317.014 303.891 317.014C304.008 317.014 304.122 317.047 304.221 317.11C304.319 317.173 304.398 317.262 304.448 317.368Z" fill="#E6E6E6"/>
<path d="M293.639 66.1751L294.093 67.0662C294.119 67.1181 294.156 67.1631 294.203 67.1972C294.249 67.2314 294.304 67.2537 294.361 67.2623L295.368 67.4049C295.436 67.4142 295.499 67.4424 295.552 67.4862C295.604 67.5301 295.644 67.5878 295.665 67.6528C295.686 67.7178 295.689 67.7875 295.673 67.854C295.656 67.9204 295.622 67.981 295.573 68.0287L294.842 68.7416C294.801 68.783 294.77 68.8338 294.753 68.8898C294.736 68.9457 294.733 69.005 294.744 69.0625L294.913 70.0606C294.928 70.1278 294.922 70.1978 294.897 70.262C294.873 70.3262 294.83 70.3819 294.774 70.4225C294.719 70.463 294.653 70.4865 294.584 70.4903C294.515 70.4941 294.447 70.4779 294.387 70.4438L293.496 69.9714C293.444 69.9448 293.386 69.931 293.327 69.931C293.268 69.931 293.21 69.9448 293.158 69.9714L292.267 70.4438C292.206 70.4741 292.139 70.4873 292.072 70.4819C292.005 70.4765 291.941 70.4526 291.886 70.413C291.832 70.3734 291.79 70.3195 291.764 70.2573C291.738 70.1951 291.73 70.127 291.741 70.0606L291.919 69.0625C291.927 69.0044 291.921 68.9452 291.903 68.8896C291.884 68.834 291.853 68.7834 291.812 68.7416L291.081 68.0287C291.032 67.981 290.998 67.9204 290.981 67.854C290.965 67.7875 290.968 67.7178 290.989 67.6528C291.01 67.5878 291.05 67.5301 291.102 67.4862C291.155 67.4424 291.218 67.4142 291.286 67.4049L292.293 67.2623C292.35 67.2537 292.405 67.2314 292.451 67.1972C292.498 67.1631 292.535 67.1181 292.561 67.0662L293.015 66.1751C293.048 66.1216 293.094 66.0774 293.148 66.0468C293.203 66.0161 293.264 66 293.327 66C293.39 66 293.451 66.0161 293.506 66.0468C293.56 66.0774 293.606 66.1216 293.639 66.1751Z" fill="#E6E6E6"/>
<path d="M135.172 223.796L135.626 224.687C135.652 224.739 135.689 224.784 135.736 224.818C135.782 224.852 135.837 224.874 135.894 224.883L136.901 225.034C136.969 225.042 137.033 225.068 137.086 225.111C137.139 225.154 137.179 225.211 137.201 225.276C137.222 225.341 137.225 225.41 137.208 225.477C137.191 225.543 137.156 225.603 137.106 225.649L136.375 226.362C136.334 226.404 136.303 226.454 136.286 226.51C136.269 226.566 136.266 226.626 136.277 226.683L136.446 227.69C136.457 227.757 136.449 227.825 136.423 227.887C136.397 227.949 136.355 228.003 136.301 228.043C136.246 228.082 136.182 228.106 136.115 228.111C136.048 228.117 135.981 228.104 135.92 228.073L135.029 227.601C134.978 227.57 134.92 227.554 134.86 227.554C134.8 227.554 134.742 227.57 134.691 227.601L133.8 228.073C133.739 228.106 133.671 228.121 133.602 228.117C133.534 228.113 133.468 228.089 133.412 228.049C133.356 228.009 133.313 227.954 133.287 227.891C133.261 227.827 133.253 227.758 133.265 227.69L133.443 226.683C133.451 226.625 133.445 226.566 133.427 226.51C133.408 226.455 133.377 226.404 133.336 226.362L132.605 225.649C132.555 225.603 132.52 225.543 132.503 225.477C132.486 225.41 132.489 225.341 132.51 225.276C132.532 225.211 132.572 225.154 132.625 225.111C132.678 225.068 132.742 225.042 132.81 225.034L133.817 224.883C133.874 224.874 133.929 224.852 133.975 224.818C134.022 224.784 134.059 224.739 134.085 224.687L134.539 223.796C134.569 223.738 134.615 223.689 134.67 223.655C134.726 223.621 134.79 223.604 134.856 223.604C134.921 223.604 134.985 223.621 135.041 223.655C135.096 223.689 135.142 223.738 135.172 223.796Z" fill="#F5F5F5"/>
<path d="M89.6593 308.911L90.1049 309.802C90.1306 309.856 90.1692 309.903 90.2174 309.939C90.2656 309.975 90.3218 309.998 90.3811 310.007L91.3882 310.15C91.4552 310.16 91.518 310.19 91.5694 310.234C91.6208 310.278 91.6588 310.336 91.6792 310.401C91.6995 310.466 91.7014 310.535 91.6846 310.601C91.6679 310.667 91.6331 310.726 91.5842 310.774L90.8624 311.486C90.8187 311.526 90.786 311.577 90.7673 311.633C90.7485 311.689 90.7445 311.749 90.7554 311.807L90.9515 312.823C90.9657 312.89 90.9602 312.96 90.9356 313.025C90.911 313.089 90.8683 313.145 90.8127 313.185C90.7571 313.226 90.691 313.249 90.6223 313.253C90.5537 313.257 90.4854 313.241 90.4257 313.206L89.5345 312.734C89.4821 312.707 89.4241 312.694 89.3652 312.694C89.3064 312.694 89.2484 312.707 89.1959 312.734L88.3047 313.206C88.245 313.241 88.1767 313.257 88.1081 313.253C88.0394 313.249 87.9733 313.226 87.9177 313.185C87.8621 313.145 87.8195 313.089 87.7948 313.025C87.7702 312.96 87.7647 312.89 87.7789 312.823L87.9483 311.825C87.9592 311.767 87.9552 311.707 87.9364 311.651C87.9177 311.595 87.885 311.544 87.8413 311.504L87.1106 310.791C87.0615 310.744 87.0269 310.683 87.0105 310.617C86.9942 310.55 86.9969 310.48 87.0183 310.415C87.0396 310.35 87.0788 310.293 87.1314 310.249C87.1839 310.205 87.2477 310.177 87.3155 310.168L88.3225 310.025C88.3814 310.015 88.437 309.991 88.485 309.955C88.5329 309.92 88.5719 309.873 88.5988 309.82L89.0444 308.929C89.0774 308.878 89.1222 308.836 89.1749 308.807C89.2276 308.777 89.2867 308.761 89.3472 308.759C89.4076 308.757 89.4676 308.77 89.5219 308.797C89.5763 308.823 89.6234 308.862 89.6593 308.911Z" fill="#F5F5F5"/>
<path d="M407.12 309.045L407.575 309.936C407.601 309.989 407.64 310.035 407.688 310.069C407.737 310.103 407.793 310.125 407.851 310.132L408.858 310.275C408.925 310.285 408.988 310.315 409.039 310.359C409.091 310.403 409.129 310.461 409.149 310.526C409.17 310.591 409.171 310.66 409.155 310.726C409.138 310.792 409.103 310.851 409.054 310.899L408.332 311.611C408.289 311.652 408.257 311.702 408.239 311.758C408.22 311.814 408.215 311.874 408.226 311.932L408.395 312.93C408.409 312.998 408.404 313.068 408.379 313.132C408.354 313.196 408.312 313.252 408.256 313.292C408.2 313.333 408.134 313.356 408.066 313.36C407.997 313.364 407.929 313.348 407.869 313.314L406.978 312.841C406.925 312.815 406.867 312.801 406.809 312.801C406.75 312.801 406.692 312.815 406.639 312.841L405.748 313.314C405.688 313.346 405.619 313.362 405.551 313.357C405.482 313.353 405.416 313.33 405.361 313.29C405.305 313.25 405.261 313.195 405.235 313.131C405.209 313.068 405.202 312.998 405.213 312.93L405.392 311.932C405.402 311.874 405.397 311.814 405.379 311.758C405.36 311.702 405.328 311.652 405.285 311.611L404.554 310.899C404.505 310.851 404.47 310.79 404.454 310.724C404.438 310.657 404.44 310.588 404.462 310.523C404.483 310.458 404.522 310.4 404.575 310.356C404.627 310.312 404.691 310.284 404.759 310.275L405.766 310.132C405.824 310.123 405.879 310.101 405.927 310.067C405.975 310.033 406.015 309.988 406.042 309.936L406.488 309.045C406.52 308.989 406.566 308.943 406.621 308.911C406.677 308.879 406.74 308.862 406.804 308.862C406.868 308.862 406.931 308.879 406.987 308.911C407.042 308.943 407.088 308.989 407.12 309.045Z" fill="#E6E6E6"/>
<path d="M187.189 94.8793C187.844 94.8793 188.374 94.3486 188.374 93.694C188.374 93.0394 187.844 92.5088 187.189 92.5088C186.535 92.5088 186.004 93.0394 186.004 93.694C186.004 94.3486 186.535 94.8793 187.189 94.8793Z" fill="#E6E6E6"/>
<path d="M181.119 202.284C181.773 202.284 182.304 201.753 182.304 201.098C182.304 200.444 181.773 199.913 181.119 199.913C180.464 199.913 179.934 200.444 179.934 201.098C179.934 201.753 180.464 202.284 181.119 202.284Z" fill="#F5F5F5"/>
<path d="M143.378 290.152C143.38 290.387 143.312 290.618 143.182 290.814C143.053 291.01 142.868 291.163 142.651 291.254C142.434 291.345 142.195 291.369 141.964 291.324C141.733 291.278 141.521 291.165 141.355 290.999C141.189 290.833 141.076 290.621 141.03 290.39C140.985 290.159 141.009 289.92 141.1 289.703C141.191 289.486 141.344 289.301 141.54 289.172C141.736 289.042 141.967 288.974 142.202 288.976C142.514 288.976 142.813 289.1 143.034 289.32C143.254 289.541 143.378 289.84 143.378 290.152Z" fill="#F5F5F5"/>
<path d="M390.677 220.106C391.332 220.106 391.863 219.575 391.863 218.921C391.863 218.266 391.332 217.735 390.677 217.735C390.023 217.735 389.492 218.266 389.492 218.921C389.492 219.575 390.023 220.106 390.677 220.106Z" fill="#E6E6E6"/>
<path d="M166.359 151.966C166.144 151.966 165.932 151.918 165.737 151.827C165.543 151.736 165.37 151.603 165.232 151.439C165.094 151.274 164.993 151.081 164.937 150.874C164.88 150.667 164.87 150.449 164.906 150.238L165.397 147.413C165.411 147.319 165.403 147.224 165.373 147.134C165.344 147.044 165.294 146.963 165.227 146.896L163.169 144.891C162.971 144.699 162.83 144.455 162.764 144.188C162.698 143.921 162.708 143.64 162.793 143.378C162.879 143.116 163.036 142.883 163.247 142.706C163.459 142.529 163.716 142.415 163.988 142.377L166.831 141.968C166.924 141.952 167.012 141.915 167.088 141.86C167.164 141.804 167.226 141.731 167.268 141.647L168.533 139.071C168.653 138.818 168.843 138.604 169.079 138.455C169.316 138.305 169.59 138.226 169.87 138.226C170.15 138.226 170.424 138.305 170.661 138.455C170.898 138.604 171.087 138.818 171.207 139.071L172.472 141.647C172.516 141.732 172.579 141.806 172.656 141.861C172.734 141.917 172.823 141.954 172.918 141.968L175.752 142.404C176.025 142.442 176.282 142.556 176.493 142.733C176.704 142.91 176.862 143.143 176.947 143.405C177.033 143.667 177.043 143.947 176.976 144.215C176.91 144.482 176.77 144.726 176.572 144.917L174.486 146.86C174.42 146.927 174.37 147.009 174.342 147.099C174.314 147.189 174.309 147.284 174.326 147.377L174.807 150.202C174.854 150.473 174.825 150.752 174.721 151.007C174.618 151.262 174.445 151.483 174.222 151.645C173.999 151.806 173.735 151.902 173.461 151.921C173.186 151.94 172.911 151.882 172.668 151.753L170.129 150.416C170.045 150.37 169.952 150.346 169.857 150.346C169.762 150.346 169.668 150.37 169.585 150.416L167.045 151.744C166.839 151.874 166.603 151.951 166.359 151.966ZM169.861 139.143C169.752 139.139 169.644 139.167 169.55 139.224C169.457 139.281 169.382 139.364 169.335 139.463L168.061 142.039C167.957 142.254 167.801 142.44 167.609 142.581C167.416 142.722 167.192 142.815 166.956 142.85L164.113 143.26C164.006 143.275 163.905 143.32 163.823 143.39C163.74 143.46 163.678 143.551 163.645 143.654C163.611 143.757 163.607 143.868 163.634 143.973C163.66 144.078 163.715 144.174 163.792 144.249L165.851 146.254C166.022 146.422 166.149 146.629 166.222 146.857C166.295 147.086 166.311 147.328 166.27 147.564L165.789 150.389C165.77 150.496 165.781 150.605 165.821 150.706C165.862 150.806 165.929 150.893 166.016 150.957C166.103 151.021 166.207 151.059 166.315 151.068C166.422 151.076 166.53 151.054 166.626 151.004L169.175 149.667C169.385 149.557 169.619 149.5 169.857 149.5C170.094 149.5 170.328 149.557 170.539 149.667L173.087 151.004C173.181 151.064 173.291 151.095 173.402 151.094C173.513 151.093 173.622 151.06 173.715 150.999C173.808 150.938 173.882 150.851 173.927 150.749C173.972 150.647 173.987 150.535 173.97 150.425L173.488 147.6C173.449 147.364 173.467 147.122 173.539 146.894C173.612 146.666 173.738 146.459 173.907 146.29L175.966 144.285C176.046 144.21 176.102 144.114 176.129 144.008C176.156 143.902 176.152 143.791 176.117 143.687C176.083 143.584 176.021 143.493 175.937 143.424C175.854 143.354 175.753 143.31 175.645 143.295L172.802 142.885C172.566 142.85 172.342 142.758 172.149 142.617C171.957 142.475 171.802 142.289 171.697 142.074L170.405 139.463C170.357 139.362 170.279 139.277 170.182 139.219C170.085 139.162 169.974 139.135 169.861 139.143Z" fill="#09C4D0"/>
<path opacity="0.5" d="M166.359 151.966C166.144 151.966 165.932 151.918 165.737 151.827C165.543 151.736 165.37 151.603 165.232 151.439C165.094 151.274 164.993 151.081 164.937 150.874C164.88 150.667 164.87 150.449 164.906 150.238L165.397 147.413C165.411 147.319 165.403 147.224 165.373 147.134C165.344 147.044 165.294 146.963 165.227 146.896L163.169 144.891C162.971 144.699 162.83 144.455 162.764 144.188C162.698 143.921 162.708 143.64 162.793 143.378C162.879 143.116 163.036 142.883 163.247 142.706C163.459 142.529 163.716 142.415 163.988 142.377L166.831 141.968C166.924 141.952 167.012 141.915 167.088 141.86C167.164 141.804 167.226 141.731 167.268 141.647L168.533 139.071C168.653 138.818 168.843 138.604 169.079 138.455C169.316 138.305 169.59 138.226 169.87 138.226C170.15 138.226 170.424 138.305 170.661 138.455C170.898 138.604 171.087 138.818 171.207 139.071L172.472 141.647C172.516 141.732 172.579 141.806 172.656 141.861C172.734 141.917 172.823 141.954 172.918 141.968L175.752 142.404C176.025 142.442 176.282 142.556 176.493 142.733C176.704 142.91 176.862 143.143 176.947 143.405C177.033 143.667 177.043 143.947 176.976 144.215C176.91 144.482 176.77 144.726 176.572 144.917L174.486 146.86C174.42 146.927 174.37 147.009 174.342 147.099C174.314 147.189 174.309 147.284 174.326 147.377L174.807 150.202C174.854 150.473 174.825 150.752 174.721 151.007C174.618 151.262 174.445 151.483 174.222 151.645C173.999 151.806 173.735 151.902 173.461 151.921C173.186 151.94 172.911 151.882 172.668 151.753L170.129 150.416C170.045 150.37 169.952 150.346 169.857 150.346C169.762 150.346 169.668 150.37 169.585 150.416L167.045 151.744C166.839 151.874 166.603 151.951 166.359 151.966ZM169.861 139.143C169.752 139.139 169.644 139.167 169.55 139.224C169.457 139.281 169.382 139.364 169.335 139.463L168.061 142.039C167.957 142.254 167.801 142.44 167.609 142.581C167.416 142.722 167.192 142.815 166.956 142.85L164.113 143.26C164.006 143.275 163.905 143.32 163.823 143.39C163.74 143.46 163.678 143.551 163.645 143.654C163.611 143.757 163.607 143.868 163.634 143.973C163.66 144.078 163.715 144.174 163.792 144.249L165.851 146.254C166.022 146.422 166.149 146.629 166.222 146.857C166.295 147.086 166.311 147.328 166.27 147.564L165.789 150.389C165.77 150.496 165.781 150.605 165.821 150.706C165.862 150.806 165.929 150.893 166.016 150.957C166.103 151.021 166.207 151.059 166.315 151.068C166.422 151.076 166.53 151.054 166.626 151.004L169.175 149.667C169.385 149.557 169.619 149.5 169.857 149.5C170.094 149.5 170.328 149.557 170.539 149.667L173.087 151.004C173.181 151.064 173.291 151.095 173.402 151.094C173.513 151.093 173.622 151.06 173.715 150.999C173.808 150.938 173.882 150.851 173.927 150.749C173.972 150.647 173.987 150.535 173.97 150.425L173.488 147.6C173.449 147.364 173.467 147.122 173.539 146.894C173.612 146.666 173.738 146.459 173.907 146.29L175.966 144.285C176.046 144.21 176.102 144.114 176.129 144.008C176.156 143.902 176.152 143.791 176.117 143.687C176.083 143.584 176.021 143.493 175.937 143.424C175.854 143.354 175.753 143.31 175.645 143.295L172.802 142.885C172.566 142.85 172.342 142.758 172.149 142.617C171.957 142.475 171.802 142.289 171.697 142.074L170.405 139.463C170.357 139.362 170.279 139.277 170.182 139.219C170.085 139.162 169.974 139.135 169.861 139.143Z" fill="white"/>
<path d="M217.323 125.909L217.582 131.407C217.592 131.723 217.678 132.031 217.833 132.306C217.988 132.58 218.208 132.813 218.473 132.985L223.143 135.89C223.454 136.084 223.704 136.362 223.866 136.691C224.027 137.02 224.094 137.388 224.058 137.753C224.021 138.118 223.884 138.466 223.661 138.757C223.438 139.048 223.138 139.271 222.795 139.401L217.653 141.344C217.355 141.454 217.088 141.637 216.877 141.874C216.666 142.112 216.516 142.398 216.441 142.707L215.122 148.054C215.035 148.411 214.85 148.737 214.587 148.994C214.324 149.252 213.995 149.43 213.636 149.51C213.277 149.59 212.903 149.567 212.556 149.446C212.209 149.324 211.904 149.107 211.673 148.821L208.233 144.525C208.037 144.274 207.78 144.076 207.488 143.948C207.196 143.821 206.876 143.768 206.558 143.794L201.077 144.187C200.712 144.211 200.348 144.133 200.025 143.962C199.701 143.791 199.432 143.533 199.247 143.218C199.062 142.902 198.969 142.542 198.977 142.176C198.986 141.81 199.096 141.454 199.295 141.148L202.316 136.549C202.487 136.288 202.592 135.99 202.623 135.68C202.654 135.37 202.61 135.057 202.494 134.767L200.427 129.669C200.281 129.329 200.234 128.953 200.292 128.587C200.35 128.221 200.51 127.878 200.754 127.599C200.998 127.32 201.316 127.115 201.671 127.008C202.026 126.901 202.404 126.897 202.762 126.996L208.064 128.449C208.371 128.532 208.693 128.54 209.003 128.471C209.314 128.403 209.603 128.261 209.846 128.056L214.053 124.492C214.333 124.245 214.678 124.082 215.047 124.024C215.417 123.966 215.795 124.014 216.138 124.162C216.481 124.311 216.774 124.554 216.984 124.863C217.194 125.173 217.312 125.535 217.323 125.909Z" fill="#09C4D0"/>
<path d="M330.93 220.72C330.6 220.716 330.274 220.645 329.973 220.511C329.671 220.377 329.399 220.184 329.174 219.942C328.95 219.701 328.776 219.416 328.664 219.105C328.552 218.795 328.505 218.465 328.524 218.135L328.898 212.646C328.915 212.4 328.872 212.154 328.773 211.929C328.674 211.704 328.521 211.507 328.328 211.354L324.024 207.932C323.671 207.653 323.403 207.281 323.25 206.859C323.097 206.436 323.065 205.979 323.157 205.539C323.25 205.099 323.463 204.694 323.774 204.369C324.084 204.043 324.48 203.811 324.915 203.699L330.262 202.362C330.502 202.305 330.724 202.188 330.908 202.023C331.091 201.858 331.231 201.65 331.313 201.417L333.238 196.266C333.397 195.845 333.669 195.477 334.025 195.203C334.382 194.928 334.808 194.759 335.255 194.714C335.702 194.668 336.154 194.749 336.558 194.946C336.962 195.143 337.303 195.449 337.543 195.83L340.466 200.49C340.595 200.7 340.774 200.875 340.987 200.999C341.2 201.123 341.44 201.193 341.687 201.203L347.185 201.444C347.637 201.458 348.076 201.599 348.452 201.85C348.828 202.102 349.126 202.454 349.311 202.866C349.497 203.278 349.563 203.734 349.503 204.183C349.442 204.631 349.256 205.053 348.967 205.401L345.403 209.616C345.235 209.805 345.118 210.033 345.06 210.278C345.003 210.524 345.007 210.78 345.073 211.024L346.543 216.326C346.666 216.759 346.664 217.218 346.538 217.65C346.411 218.081 346.166 218.469 345.83 218.768C345.494 219.069 345.081 219.27 344.637 219.349C344.193 219.427 343.736 219.381 343.317 219.214L338.22 217.155C337.991 217.063 337.744 217.028 337.498 217.053C337.253 217.078 337.018 217.162 336.812 217.298L332.231 220.337C331.842 220.584 331.391 220.717 330.93 220.72ZM335.52 195.589H335.359C335.075 195.613 334.804 195.718 334.578 195.892C334.352 196.066 334.181 196.301 334.085 196.569L332.16 201.72C332.026 202.088 331.802 202.418 331.51 202.679C331.218 202.94 330.866 203.125 330.485 203.217L325.138 204.554C324.861 204.623 324.609 204.767 324.411 204.972C324.213 205.176 324.076 205.432 324.015 205.71C323.955 205.989 323.974 206.279 324.07 206.547C324.166 206.815 324.335 207.051 324.558 207.228L328.863 210.65C329.166 210.893 329.406 211.207 329.562 211.564C329.717 211.921 329.783 212.311 329.754 212.699L329.38 218.189C329.356 218.472 329.414 218.756 329.547 219.007C329.679 219.258 329.881 219.466 330.128 219.606C330.369 219.756 330.647 219.836 330.93 219.836C331.214 219.836 331.492 219.756 331.732 219.606L336.322 216.567C336.647 216.351 337.019 216.218 337.407 216.177C337.795 216.137 338.187 216.191 338.55 216.335L343.656 218.394C343.916 218.495 344.198 218.522 344.473 218.474C344.747 218.426 345.003 218.303 345.212 218.119C345.422 217.935 345.577 217.697 345.661 217.432C345.745 217.166 345.754 216.882 345.688 216.612L344.217 211.309C344.112 210.933 344.1 210.537 344.183 210.155C344.265 209.773 344.439 209.416 344.69 209.117L348.254 204.902C348.435 204.682 348.55 204.418 348.589 204.136C348.628 203.855 348.587 203.569 348.473 203.309C348.358 203.05 348.174 202.827 347.94 202.666C347.707 202.505 347.433 202.412 347.149 202.397L341.66 202.166C341.269 202.148 340.888 202.036 340.549 201.839C340.211 201.642 339.925 201.366 339.717 201.034L336.803 196.373C336.677 196.141 336.492 195.946 336.267 195.808C336.042 195.671 335.784 195.595 335.52 195.589Z" fill="#09C4D0"/>
<path opacity="0.5" d="M330.93 220.72C330.6 220.716 330.274 220.645 329.973 220.511C329.671 220.377 329.399 220.184 329.174 219.942C328.95 219.701 328.776 219.416 328.664 219.105C328.552 218.795 328.505 218.465 328.524 218.135L328.898 212.646C328.915 212.4 328.872 212.154 328.773 211.929C328.674 211.704 328.521 211.507 328.328 211.354L324.024 207.932C323.671 207.653 323.403 207.281 323.25 206.859C323.097 206.436 323.065 205.979 323.157 205.539C323.25 205.099 323.463 204.694 323.774 204.369C324.084 204.043 324.48 203.811 324.915 203.699L330.262 202.362C330.502 202.305 330.724 202.188 330.908 202.023C331.091 201.858 331.231 201.65 331.313 201.417L333.238 196.266C333.397 195.845 333.669 195.477 334.025 195.203C334.382 194.928 334.808 194.759 335.255 194.714C335.702 194.668 336.154 194.749 336.558 194.946C336.962 195.143 337.303 195.449 337.543 195.83L340.466 200.49C340.595 200.7 340.774 200.875 340.987 200.999C341.2 201.123 341.44 201.193 341.687 201.203L347.185 201.444C347.637 201.458 348.076 201.599 348.452 201.85C348.828 202.102 349.126 202.454 349.311 202.866C349.497 203.278 349.563 203.734 349.503 204.183C349.442 204.631 349.256 205.053 348.967 205.401L345.403 209.616C345.235 209.805 345.118 210.033 345.06 210.278C345.003 210.524 345.007 210.78 345.073 211.024L346.543 216.326C346.666 216.759 346.664 217.218 346.538 217.65C346.411 218.081 346.166 218.469 345.83 218.768C345.494 219.069 345.081 219.27 344.637 219.349C344.193 219.427 343.736 219.381 343.317 219.214L338.22 217.155C337.991 217.063 337.744 217.028 337.498 217.053C337.253 217.078 337.018 217.162 336.812 217.298L332.231 220.337C331.842 220.584 331.391 220.717 330.93 220.72ZM335.52 195.589H335.359C335.075 195.613 334.804 195.718 334.578 195.892C334.352 196.066 334.181 196.301 334.085 196.569L332.16 201.72C332.026 202.088 331.802 202.418 331.51 202.679C331.218 202.94 330.866 203.125 330.485 203.217L325.138 204.554C324.861 204.623 324.609 204.767 324.411 204.972C324.213 205.176 324.076 205.432 324.015 205.71C323.955 205.989 323.974 206.279 324.07 206.547C324.166 206.815 324.335 207.051 324.558 207.228L328.863 210.65C329.166 210.893 329.406 211.207 329.562 211.564C329.717 211.921 329.783 212.311 329.754 212.699L329.38 218.189C329.356 218.472 329.414 218.756 329.547 219.007C329.679 219.258 329.881 219.466 330.128 219.606C330.369 219.756 330.647 219.836 330.93 219.836C331.214 219.836 331.492 219.756 331.732 219.606L336.322 216.567C336.647 216.351 337.019 216.218 337.407 216.177C337.795 216.137 338.187 216.191 338.55 216.335L343.656 218.394C343.916 218.495 344.198 218.522 344.473 218.474C344.747 218.426 345.003 218.303 345.212 218.119C345.422 217.935 345.577 217.697 345.661 217.432C345.745 217.166 345.754 216.882 345.688 216.612L344.217 211.309C344.112 210.933 344.1 210.537 344.183 210.155C344.265 209.773 344.439 209.416 344.69 209.117L348.254 204.902C348.435 204.682 348.55 204.418 348.589 204.136C348.628 203.855 348.587 203.569 348.473 203.309C348.358 203.05 348.174 202.827 347.94 202.666C347.707 202.505 347.433 202.412 347.149 202.397L341.66 202.166C341.269 202.148 340.888 202.036 340.549 201.839C340.211 201.642 339.925 201.366 339.717 201.034L336.803 196.373C336.677 196.141 336.492 195.946 336.267 195.808C336.042 195.671 335.784 195.595 335.52 195.589Z" fill="white"/>
<path d="M335.084 256.972L334.353 259.717C334.314 259.872 334.313 260.034 334.35 260.189C334.387 260.344 334.462 260.488 334.567 260.608L336.411 262.765C336.535 262.909 336.616 263.085 336.644 263.273C336.673 263.461 336.648 263.653 336.573 263.828C336.497 264.002 336.375 264.152 336.219 264.26C336.063 264.369 335.879 264.431 335.69 264.44L332.856 264.592C332.691 264.603 332.532 264.653 332.391 264.739C332.25 264.824 332.131 264.942 332.045 265.082L330.565 267.506C330.462 267.656 330.32 267.776 330.155 267.853C329.989 267.931 329.806 267.962 329.624 267.945C329.443 267.928 329.269 267.862 329.121 267.755C328.973 267.648 328.856 267.504 328.783 267.337L327.767 264.663C327.706 264.51 327.609 264.374 327.486 264.266C327.362 264.157 327.214 264.08 327.054 264.039L324.291 263.38C324.105 263.337 323.935 263.243 323.8 263.108C323.665 262.974 323.571 262.803 323.528 262.617C323.485 262.431 323.496 262.237 323.558 262.057C323.621 261.876 323.733 261.717 323.882 261.598L326.092 259.815C326.222 259.709 326.323 259.571 326.387 259.416C326.45 259.26 326.475 259.091 326.457 258.924L326.234 256.09C326.228 255.906 326.273 255.723 326.363 255.561C326.453 255.4 326.585 255.267 326.746 255.175C326.906 255.083 327.088 255.037 327.273 255.041C327.458 255.046 327.638 255.1 327.794 255.199L330.182 256.741C330.321 256.829 330.479 256.883 330.644 256.899C330.808 256.914 330.973 256.891 331.127 256.83L333.747 255.734C333.924 255.67 334.115 255.655 334.3 255.693C334.484 255.73 334.655 255.817 334.793 255.945C334.931 256.073 335.031 256.237 335.082 256.418C335.134 256.599 335.134 256.791 335.084 256.972Z" fill="#09C4D0"/>
<path d="M168.791 260.564L168.292 262.427C168.266 262.535 168.265 262.647 168.29 262.755C168.314 262.864 168.364 262.965 168.435 263.05L169.691 264.494C169.774 264.593 169.828 264.712 169.847 264.84C169.865 264.967 169.848 265.097 169.798 265.215C169.747 265.334 169.664 265.436 169.559 265.51C169.453 265.584 169.33 265.627 169.201 265.635L167.276 265.742C167.165 265.747 167.058 265.78 166.963 265.838C166.868 265.895 166.789 265.976 166.733 266.072L165.726 267.711C165.66 267.822 165.564 267.911 165.449 267.97C165.334 268.029 165.206 268.054 165.077 268.043C164.949 268.032 164.826 267.985 164.724 267.907C164.621 267.829 164.542 267.725 164.496 267.604L163.801 265.822C163.762 265.717 163.697 265.623 163.613 265.548C163.529 265.474 163.429 265.421 163.32 265.394L161.448 264.949C161.323 264.92 161.208 264.856 161.117 264.765C161.026 264.674 160.962 264.559 160.933 264.434C160.905 264.308 160.912 264.177 160.954 264.055C160.996 263.934 161.072 263.826 161.172 263.746L162.66 262.534C162.748 262.464 162.817 262.374 162.862 262.272C162.907 262.169 162.927 262.057 162.918 261.945L162.758 260.021C162.749 259.892 162.776 259.763 162.836 259.649C162.896 259.535 162.987 259.44 163.098 259.374C163.209 259.309 163.336 259.275 163.464 259.277C163.593 259.28 163.719 259.318 163.827 259.388L165.44 260.43C165.534 260.493 165.642 260.531 165.754 260.542C165.865 260.553 165.978 260.536 166.082 260.493L167.864 259.753C167.983 259.704 168.113 259.689 168.239 259.709C168.366 259.73 168.484 259.786 168.58 259.87C168.677 259.955 168.748 260.064 168.785 260.187C168.822 260.31 168.824 260.44 168.791 260.564Z" fill="#09C4D0"/>
<path d="M334.338 351.112C309.698 351.112 283.673 341.036 267.4 323.82C250.98 306.437 246.58 284.458 255.016 261.949L258.689 263.323C250.832 284.369 254.918 304.895 270.258 321.129C290.97 343.049 328.201 352.86 356.828 343.942C388.53 334.122 400.825 310.729 412.718 288.141C426.035 262.842 438.577 238.948 476.878 238.948V242.877C440.992 242.877 429.502 264.698 416.195 289.967C404.498 312.172 391.25 337.343 357.997 347.684C350.328 350.01 342.352 351.166 334.338 351.112Z" fill="#09C4D0"/>
<path opacity="0.5" d="M334.338 351.112C309.698 351.112 283.673 341.036 267.4 323.82C250.98 306.437 246.58 284.458 255.016 261.949L258.689 263.323C250.832 284.369 254.918 304.895 270.258 321.129C290.97 343.049 328.201 352.86 356.828 343.942C388.53 334.122 400.825 310.729 412.718 288.141C426.035 262.842 438.577 238.948 476.878 238.948V242.877C440.992 242.877 429.502 264.698 416.195 289.967C404.498 312.172 391.25 337.343 357.997 347.684C350.328 350.01 342.352 351.166 334.338 351.112Z" fill="white"/>
<path d="M248.25 235.481L246.924 236.002L245.696 236.463L243.241 237.298C241.601 237.838 239.951 238.28 238.331 238.761C234.944 239.661 231.508 240.359 228.039 240.853C224.337 241.4 220.592 241.604 216.853 241.462C214.749 241.358 212.656 241.082 210.597 240.637C208.503 240.164 206.456 239.507 204.479 238.673C196.809 235.285 191.289 229.932 186.929 224.344C184.791 221.555 182.88 218.6 181.213 215.506C180.398 213.973 179.622 212.451 178.925 210.88C178.571 210.094 178.237 209.299 177.943 208.503C177.648 207.708 177.353 206.922 177.01 205.97L185.731 201.658L187.056 203.328C187.528 203.907 187.989 204.487 188.48 205.056C189.463 206.205 190.445 207.335 191.427 208.425C193.366 210.584 195.429 212.63 197.604 214.553C199.633 216.378 201.818 218.021 204.135 219.463C205.202 220.12 206.304 220.72 207.435 221.261C208.49 221.738 209.58 222.135 210.695 222.449C212.736 223.065 214.883 223.253 217 222.999C219.625 222.795 222.231 222.398 224.798 221.811C227.528 221.221 230.327 220.495 233.116 219.67C234.52 219.287 235.915 218.845 237.31 218.412L239.765 217.519L248.25 235.481Z" fill="#263238"/>
<path d="M239.666 217.52C239.666 217.52 222.205 234.676 215.645 276.896L257.52 293.434C260.035 287.886 266.359 259.533 283.055 235.325C279.093 232.202 274.791 229.54 270.229 227.389C264.416 224.748 258.473 222.401 252.423 220.358C248.241 219.121 243.979 218.173 239.666 217.52Z" fill="#263238"/>
<path d="M273.262 208.179C270.315 212.834 265.641 221.672 267.841 226.436C267.841 226.436 266.633 228.527 258.118 225.139C251.165 222.37 252.176 220.229 252.176 220.229C258.324 221.103 259.827 216.88 260.396 212.569L273.262 208.179Z" fill="#E4897B"/>
<path d="M268.019 209.987L260.408 212.59C260.283 213.587 260.076 214.573 259.789 215.536C262.058 216.066 265.937 214.878 267.056 212.717C267.537 211.872 267.863 210.947 268.019 209.987Z" fill="#CE6F64"/>
<path d="M268.676 183.951C264.747 183.381 256.891 192.318 259.621 196.718C262.351 201.118 276.09 185.07 268.676 183.951Z" fill="#263238"/>
<path d="M277.073 202.798C272.487 208.553 270.1 212.148 264.905 213.1C257.048 214.544 251.598 206.589 254.367 199.587C256.862 193.282 263.942 184.934 271.504 186.673C273.172 187.047 274.717 187.842 275.991 188.982C277.265 190.121 278.227 191.567 278.785 193.183C279.342 194.799 279.478 196.53 279.178 198.213C278.879 199.896 278.154 201.474 277.073 202.798Z" fill="#E4897B"/>
<path d="M272.527 208.395C268.441 207.472 271.044 192.014 281.601 194.862C294.388 198.309 279.136 209.878 272.527 208.395Z" fill="#263238"/>
<path d="M281.906 198.909C276.995 197.092 263.531 190.227 265.996 181.929C267.204 177.892 274.913 178.531 280.265 181.389C271.574 181.703 275.935 185.837 281.621 187.625C290.872 190.532 288.476 201.364 281.906 198.909Z" fill="#263238"/>
<path d="M283.172 196.817C283.172 196.817 288.397 196.129 287.306 200.873C287.021 199.9 286.491 199.017 285.767 198.307C285.043 197.597 284.15 197.084 283.172 196.817Z" fill="#263238"/>
<path d="M283.408 196.385C283.408 196.385 286.6 200.568 289.202 196.463C288.31 196.944 287.309 197.189 286.295 197.175C285.281 197.162 284.288 196.89 283.408 196.385Z" fill="#263238"/>
<path d="M275.138 211.322C274.293 211.672 273.387 211.853 272.472 211.853C271.557 211.853 270.651 211.672 269.805 211.322C267.537 210.34 267.92 207.993 269.805 206.647C271.514 205.439 274.716 204.477 276.405 206.196C278.094 207.914 277.22 210.468 275.138 211.322Z" fill="#E4897B"/>
<path d="M215.644 276.896C215.644 276.896 182.763 301.654 172.511 321.796C161.875 342.764 151.857 385.278 151.857 385.278L167.443 390.935C167.443 390.935 180.475 354.843 192.319 335.025C205.233 313.419 226.633 308.46 243.201 287.728L215.644 276.896Z" fill="#263238"/>
<path d="M230.532 282.759C230.532 282.759 208.926 317.976 205.98 339.631C202.788 363.338 210.369 407.945 210.369 407.945L225.886 404.223C225.886 404.223 222.174 371.883 227.576 349.285C233.468 324.733 250.694 310.699 257.519 293.434L230.532 282.759Z" fill="#263238"/>
<path d="M266.781 198.084C266.438 198.575 265.898 198.791 265.584 198.565C265.269 198.339 265.279 197.77 265.584 197.279C265.888 196.788 266.467 196.572 266.781 196.798C267.096 197.023 267.125 197.603 266.781 198.084Z" fill="#263238"/>
<path d="M261.252 194.204C260.908 194.695 260.368 194.911 260.054 194.685C259.74 194.459 259.75 193.89 260.054 193.399C260.359 192.908 260.938 192.692 261.252 192.918C261.566 193.144 261.596 193.772 261.252 194.204Z" fill="#263238"/>
<path d="M262.842 195.737C261.209 196.823 259.435 197.679 257.568 198.281C257.863 199.695 259.591 200.363 259.591 200.363L262.842 195.737Z" fill="#DE5753"/>
<path d="M263.108 203.653C262.018 203.65 260.957 203.307 260.073 202.671C260.051 202.658 260.033 202.642 260.018 202.622C260.004 202.602 259.993 202.579 259.988 202.555C259.983 202.53 259.983 202.505 259.988 202.481C259.993 202.457 260.003 202.434 260.018 202.414C260.032 202.394 260.051 202.377 260.073 202.365C260.094 202.352 260.118 202.344 260.142 202.342C260.167 202.339 260.192 202.342 260.215 202.349C260.239 202.357 260.261 202.369 260.279 202.386C260.878 202.826 261.573 203.119 262.307 203.24C263.041 203.361 263.793 203.308 264.502 203.083C264.545 203.069 264.592 203.072 264.634 203.09C264.675 203.108 264.709 203.14 264.728 203.181C264.744 203.224 264.743 203.272 264.725 203.314C264.706 203.356 264.672 203.39 264.63 203.407C264.141 203.581 263.626 203.664 263.108 203.653Z" fill="#263238"/>
<path d="M269.904 197.533C269.813 197.533 269.726 197.499 269.66 197.437C269.595 197.374 269.555 197.29 269.55 197.199C269.547 196.759 269.439 196.325 269.236 195.935C269.033 195.544 268.74 195.207 268.382 194.951C268.301 194.903 268.243 194.824 268.22 194.733C268.197 194.642 268.211 194.546 268.259 194.465C268.307 194.384 268.386 194.326 268.477 194.303C268.568 194.28 268.664 194.294 268.745 194.342C269.202 194.66 269.577 195.083 269.838 195.574C270.099 196.066 270.24 196.613 270.247 197.17C270.251 197.216 270.246 197.263 270.231 197.307C270.216 197.351 270.192 197.391 270.161 197.425C270.129 197.459 270.091 197.487 270.048 197.505C270.006 197.524 269.96 197.533 269.913 197.533H269.904Z" fill="#263238"/>
<path d="M260.368 190.679C260.304 190.678 260.241 190.661 260.186 190.628C260.131 190.595 260.085 190.548 260.054 190.492C260.012 190.411 260.002 190.317 260.028 190.229C260.053 190.141 260.112 190.067 260.192 190.021C260.673 189.739 261.214 189.576 261.771 189.545C262.327 189.515 262.883 189.617 263.393 189.844C263.434 189.866 263.471 189.896 263.501 189.932C263.531 189.968 263.553 190.009 263.567 190.054C263.58 190.099 263.585 190.146 263.58 190.192C263.576 190.239 263.562 190.284 263.54 190.325C263.496 190.407 263.422 190.468 263.334 190.495C263.246 190.523 263.151 190.515 263.069 190.473C262.664 190.296 262.223 190.218 261.783 190.245C261.342 190.272 260.915 190.404 260.535 190.63C260.485 190.661 260.427 190.678 260.368 190.679Z" fill="#263238"/>
<path d="M283.094 235.325L283.742 235.964L284.479 236.946L285.883 238.91C286.777 240.226 287.651 241.552 288.476 242.907C289.301 244.262 290.096 245.647 290.862 247.061C291.628 248.475 292.335 249.909 293.033 251.372C294.445 254.372 295.646 257.467 296.627 260.633C296.882 261.429 297.108 262.264 297.315 263.108L297.639 264.365L297.717 264.68L297.815 265.131L298.012 266.025C298.402 268.136 298.53 270.286 298.395 272.428C298.138 275.939 297.479 279.409 296.431 282.77C295.5 285.831 294.382 288.832 293.082 291.756C291.825 294.623 290.43 297.373 288.947 300.064C287.464 302.755 285.893 305.318 284.037 307.921L275.316 303.599C276.809 298.208 278.36 292.62 279.529 287.248C280.079 284.547 280.619 281.886 280.924 279.322C281.081 278.026 281.189 276.789 281.277 275.59C281.342 274.482 281.342 273.37 281.277 272.261C281.211 271.47 281.052 270.689 280.806 269.934L280.737 269.767V269.678L280.649 269.482L280.295 268.647C280.059 268.097 279.824 267.537 279.539 266.978C278.458 264.66 277.262 262.399 275.954 260.201C275.306 259.062 274.628 257.933 273.912 256.803C273.195 255.674 272.507 254.545 271.761 253.425C271.014 252.305 270.288 251.186 269.541 250.076L267.4 246.914L283.094 235.325Z" fill="#263238"/>
<path opacity="0.1" d="M279.513 226.634C293.752 220.522 300.341 204.023 294.229 189.784C288.117 175.544 271.619 168.955 257.379 175.067C243.139 181.179 236.55 197.677 242.662 211.917C248.774 226.157 265.273 232.746 279.513 226.634Z" fill="#09C4D0"/>
<path d="M268.46 229.903C264.219 229.896 260.032 228.965 256.188 227.174C252.345 225.383 248.938 222.775 246.206 219.533C246.123 219.433 246.061 219.319 246.023 219.195C245.984 219.072 245.971 218.943 245.983 218.814C245.995 218.685 246.032 218.56 246.092 218.446C246.152 218.332 246.234 218.231 246.333 218.148C246.433 218.065 246.547 218.003 246.671 217.965C246.794 217.927 246.924 217.913 247.052 217.925C247.181 217.937 247.306 217.974 247.42 218.034C247.534 218.094 247.635 218.176 247.718 218.276C250.723 221.845 254.597 224.578 258.967 226.213C263.336 227.847 268.054 228.327 272.663 227.605C272.923 227.565 273.189 227.63 273.402 227.785C273.615 227.941 273.757 228.175 273.797 228.435C273.838 228.696 273.773 228.962 273.617 229.174C273.462 229.387 273.228 229.529 272.967 229.57C271.476 229.799 269.969 229.91 268.46 229.903Z" fill="#263238"/>
<path d="M227.959 407.394L208.936 412.275L207.531 393.596L226.063 391.269L227.959 407.394Z" fill="#09C4D0"/>
<path d="M209.918 408.347L226.181 404.713C226.417 404.672 226.66 404.711 226.87 404.826C227.081 404.94 227.246 405.122 227.34 405.342L231.603 415.457C231.703 415.704 231.747 415.971 231.731 416.237C231.715 416.504 231.639 416.763 231.509 416.996C231.378 417.229 231.197 417.43 230.979 417.583C230.761 417.737 230.511 417.839 230.247 417.883C225.582 418.649 223.274 418.786 217.421 419.847C213.817 420.505 206.451 422.234 201.482 423.137C196.513 424.041 195.099 419.523 196.915 418.423C203.584 414.357 205.685 412.58 208.131 409.417C208.576 408.855 209.212 408.474 209.918 408.347Z" fill="#504ED8"/>
<path d="M167.148 393.852L148.057 389.217L154.381 372.148L173.051 378.728L167.148 393.852Z" fill="#09C4D0"/>
<path d="M150.827 386.26L166.884 390.709C167.111 390.78 167.308 390.927 167.44 391.125C167.572 391.324 167.632 391.562 167.61 391.799L166.628 402.73C166.603 402.996 166.517 403.253 166.378 403.482C166.239 403.71 166.05 403.904 165.825 404.049C165.599 404.193 165.345 404.285 165.079 404.317C164.813 404.349 164.544 404.32 164.291 404.232C159.813 402.72 157.711 401.757 152.035 399.941C148.548 398.831 141.232 396.896 136.429 395.354C131.627 393.812 132.501 389.167 134.613 389.049C142.41 388.598 145.101 388.018 148.745 386.378C149.401 386.086 150.142 386.044 150.827 386.26Z" fill="#504ED8"/>
<path d="M257.873 296.438C229.825 289.004 213.297 278.761 212.609 278.339L215.732 273.34C215.89 273.448 232.261 283.553 259.386 290.742L257.873 296.438Z" fill="#09C4D0"/>
<path d="M173.856 332.403C173.302 332.407 172.754 332.283 172.256 332.039C170.832 331.313 169.977 329.673 169.859 327.414C169.871 324.908 170.47 322.441 171.61 320.21C172.749 317.979 174.397 316.046 176.42 314.568C178.305 313.341 180.142 313.066 181.566 313.792C182.99 314.519 183.854 316.159 183.972 318.408C184.012 320.93 183.411 323.421 182.224 325.646C181.118 327.937 179.424 329.892 177.313 331.313C176.283 331.987 175.087 332.365 173.856 332.403ZM179.857 313.586C178.67 313.641 177.525 314.036 176.557 314.725C174.565 316.187 172.943 318.095 171.822 320.297C170.702 322.499 170.114 324.933 170.105 327.404C170.213 329.565 171.018 331.136 172.373 331.823C173.729 332.511 175.32 332.177 177.156 331.057C179.24 329.662 180.915 327.737 182.008 325.479C183.175 323.297 183.766 320.853 183.726 318.379C183.608 316.218 182.803 314.647 181.458 313.959C180.961 313.711 180.412 313.583 179.857 313.586Z" fill="#09C4D0"/>
<path d="M209.643 352.3H209.408C206.127 352.035 203.82 347.232 204.271 341.595C204.703 336.105 207.571 331.774 210.743 331.774H211.018C214.298 332.03 216.596 336.832 216.155 342.469C215.644 348.48 212.462 352.3 209.643 352.3ZM210.733 332.059C207.689 332.059 204.929 336.253 204.507 341.615C204.085 346.977 206.275 351.799 209.417 352.054C212.128 352.27 215.447 348.401 215.909 342.509C216.341 337.009 214.141 332.324 210.999 332.079L210.733 332.059Z" fill="#09C4D0"/>
<path d="M244.832 258.373C243.645 258.377 242.47 258.143 241.375 257.686C235.895 255.398 233.735 248.052 236.543 241.295C237.801 238.144 240.099 235.517 243.055 233.851C244.324 233.071 245.761 232.604 247.246 232.49C248.732 232.375 250.223 232.616 251.597 233.191C252.971 233.767 254.188 234.661 255.148 235.801C256.108 236.94 256.784 238.291 257.118 239.743C258.006 243.001 257.76 246.464 256.421 249.564C255.163 252.715 252.865 255.342 249.909 257.008C248.358 257.882 246.612 258.352 244.832 258.373ZM248.122 232.741C246.4 232.767 244.713 233.223 243.212 234.067C240.304 235.707 238.045 238.292 236.808 241.393C234.049 248.022 236.16 255.231 241.513 257.46C242.858 257.988 244.306 258.203 245.748 258.089C247.189 257.975 248.585 257.535 249.831 256.802C252.738 255.162 254.998 252.577 256.234 249.476L256.342 249.525L256.234 249.476C257.56 246.417 257.802 242.998 256.921 239.783C256.566 238.381 255.895 237.078 254.961 235.974C254.027 234.869 252.853 233.992 251.53 233.409C250.449 232.963 249.291 232.736 248.122 232.741Z" fill="#09C4D0"/>
<path d="M177.765 210.586L189.187 204.979C189.187 204.979 182.99 189.766 176.518 191.112C169.83 192.496 171.755 199.057 177.765 210.586Z" fill="#504ED8"/>
<path d="M183.236 200.893L188.342 203.839C188.342 203.839 188.716 193.134 186.201 192.643C183.687 192.152 182.666 195.138 183.236 200.893Z" fill="#3735CF"/>
<path d="M288.005 302.95L276.603 297.283C276.603 297.283 268.294 311.464 273.303 315.786C278.498 320.254 282.505 314.735 288.005 302.95Z" fill="#504ED8"/>
<path d="M276.995 304.522L276.258 298.63C276.258 298.63 267.527 304.846 268.676 307.135C269.826 309.423 272.752 308.451 276.995 304.522Z" fill="#3735CF"/>
<path d="M290.594 250.518L281.82 254.952L284.664 260.579L293.438 256.145L290.594 250.518Z" fill="#09C4D0"/>
<path d="M257.519 280.657C257.389 280.643 257.267 280.589 257.169 280.502C257.071 280.415 257.003 280.3 256.973 280.173C256.944 280.046 256.955 279.912 257.005 279.792C257.055 279.671 257.141 279.569 257.252 279.499C257.362 279.43 257.492 279.397 257.622 279.404C257.753 279.412 257.878 279.46 257.98 279.542C258.081 279.624 258.155 279.736 258.19 279.862C258.226 279.987 258.221 280.121 258.177 280.244C258.142 280.385 258.054 280.506 257.931 280.583C257.808 280.66 257.661 280.686 257.519 280.657Z" fill="#09C4D0"/>
<path d="M256.646 283.083C256.529 283.005 256.441 282.89 256.397 282.757C256.353 282.624 256.355 282.479 256.402 282.347C256.45 282.214 256.54 282.102 256.659 282.027C256.778 281.952 256.919 281.919 257.059 281.934C257.176 282.012 257.264 282.126 257.308 282.26C257.352 282.393 257.351 282.538 257.303 282.67C257.256 282.802 257.165 282.915 257.046 282.99C256.927 283.065 256.786 283.097 256.646 283.083Z" fill="#09C4D0"/>
<path d="M255.771 285.498C255.64 285.486 255.516 285.434 255.417 285.348C255.318 285.263 255.248 285.148 255.217 285.021C255.186 284.893 255.196 284.759 255.245 284.638C255.294 284.516 255.38 284.413 255.49 284.342C255.601 284.272 255.731 284.238 255.862 284.245C255.993 284.252 256.118 284.3 256.22 284.382C256.323 284.464 256.397 284.576 256.432 284.702C256.468 284.828 256.463 284.963 256.419 285.086C256.386 285.226 256.3 285.347 256.179 285.424C256.057 285.501 255.911 285.528 255.771 285.498Z" fill="#09C4D0"/>
<path d="M258.394 282.346C258.263 282.334 258.139 282.282 258.04 282.196C257.941 282.11 257.871 281.996 257.84 281.868C257.809 281.741 257.819 281.607 257.868 281.485C257.917 281.364 258.003 281.26 258.113 281.19C258.224 281.12 258.354 281.086 258.485 281.093C258.616 281.1 258.741 281.148 258.843 281.23C258.946 281.312 259.02 281.424 259.056 281.55C259.091 281.676 259.086 281.81 259.042 281.934C259.009 282.073 258.923 282.195 258.802 282.272C258.681 282.349 258.534 282.375 258.394 282.346Z" fill="#09C4D0"/>
<path d="M257.521 284.762C257.39 284.75 257.266 284.698 257.167 284.612C257.068 284.526 256.998 284.412 256.967 284.284C256.936 284.157 256.946 284.023 256.995 283.901C257.044 283.78 257.13 283.676 257.24 283.606C257.351 283.536 257.481 283.502 257.612 283.509C257.743 283.516 257.868 283.564 257.97 283.646C258.073 283.728 258.147 283.84 258.182 283.966C258.218 284.092 258.213 284.226 258.169 284.35C258.136 284.489 258.05 284.611 257.929 284.688C257.807 284.765 257.661 284.791 257.521 284.762Z" fill="#09C4D0"/>
<path d="M256.645 287.188C256.517 287.121 256.42 287.006 256.376 286.868C256.332 286.73 256.344 286.581 256.409 286.452C256.418 286.38 256.442 286.311 256.481 286.25C256.52 286.189 256.572 286.137 256.633 286.099C256.694 286.061 256.764 286.037 256.836 286.029C256.907 286.021 256.98 286.03 257.048 286.054C257.116 286.078 257.178 286.118 257.229 286.169C257.28 286.22 257.319 286.283 257.342 286.351C257.366 286.419 257.373 286.492 257.365 286.564C257.356 286.636 257.332 286.705 257.293 286.766C257.262 286.907 257.177 287.031 257.056 287.11C256.934 287.189 256.787 287.217 256.645 287.188Z" fill="#09C4D0"/>
<g opacity="0.2">
<path opacity="0.2" d="M257.521 280.657C257.391 280.643 257.269 280.589 257.171 280.502C257.073 280.415 257.005 280.3 256.975 280.173C256.946 280.046 256.957 279.912 257.007 279.792C257.057 279.671 257.143 279.569 257.254 279.499C257.364 279.43 257.494 279.397 257.624 279.404C257.755 279.412 257.88 279.46 257.981 279.542C258.083 279.624 258.157 279.736 258.192 279.862C258.228 279.987 258.223 280.121 258.179 280.244C258.144 280.385 258.056 280.506 257.933 280.583C257.81 280.66 257.663 280.686 257.521 280.657Z" fill="#263238"/>
<path opacity="0.2" d="M256.646 283.082C256.529 283.004 256.441 282.889 256.397 282.756C256.353 282.623 256.355 282.478 256.402 282.346C256.45 282.213 256.54 282.101 256.659 282.026C256.778 281.951 256.919 281.918 257.059 281.933C257.176 282.011 257.264 282.125 257.308 282.259C257.352 282.392 257.351 282.537 257.303 282.669C257.256 282.801 257.165 282.914 257.046 282.989C256.927 283.064 256.786 283.096 256.646 283.082Z" fill="#263238"/>
<path opacity="0.2" d="M255.773 285.497C255.642 285.485 255.518 285.433 255.419 285.347C255.32 285.262 255.25 285.147 255.219 285.02C255.188 284.892 255.198 284.758 255.247 284.637C255.296 284.515 255.382 284.412 255.492 284.341C255.603 284.271 255.733 284.237 255.864 284.244C255.995 284.251 256.12 284.299 256.222 284.381C256.325 284.463 256.399 284.575 256.434 284.701C256.47 284.827 256.465 284.962 256.421 285.085C256.388 285.225 256.302 285.346 256.181 285.423C256.059 285.5 255.913 285.527 255.773 285.497Z" fill="#263238"/>
<path opacity="0.2" d="M258.394 282.346C258.263 282.334 258.139 282.282 258.04 282.196C257.941 282.11 257.871 281.996 257.84 281.868C257.809 281.741 257.819 281.607 257.868 281.485C257.917 281.364 258.003 281.26 258.113 281.19C258.224 281.12 258.354 281.086 258.485 281.093C258.616 281.1 258.741 281.148 258.843 281.23C258.946 281.312 259.02 281.424 259.056 281.55C259.091 281.676 259.086 281.81 259.042 281.934C259.009 282.073 258.923 282.195 258.802 282.272C258.681 282.349 258.534 282.375 258.394 282.346Z" fill="#263238"/>
<path opacity="0.2" d="M257.521 284.761C257.39 284.749 257.266 284.697 257.167 284.611C257.068 284.525 256.998 284.411 256.967 284.283C256.936 284.156 256.946 284.022 256.995 283.9C257.044 283.779 257.13 283.675 257.24 283.605C257.351 283.535 257.481 283.501 257.612 283.508C257.743 283.515 257.868 283.563 257.97 283.645C258.073 283.727 258.147 283.839 258.182 283.965C258.218 284.091 258.213 284.225 258.169 284.349C258.136 284.488 258.05 284.61 257.929 284.687C257.807 284.764 257.661 284.79 257.521 284.761Z" fill="#263238"/>
<path opacity="0.2" d="M256.647 287.186C256.519 287.119 256.422 287.004 256.378 286.866C256.334 286.729 256.346 286.579 256.411 286.45C256.42 286.378 256.444 286.309 256.483 286.248C256.522 286.187 256.573 286.135 256.635 286.097C256.696 286.059 256.766 286.035 256.837 286.027C256.909 286.019 256.982 286.028 257.05 286.052C257.118 286.076 257.18 286.116 257.231 286.167C257.282 286.219 257.321 286.281 257.344 286.349C257.368 286.418 257.375 286.49 257.367 286.562C257.358 286.634 257.334 286.703 257.295 286.764C257.264 286.905 257.179 287.029 257.058 287.108C256.936 287.187 256.789 287.215 256.647 287.186Z" fill="#263238"/>
</g>
</svg>
