<?xml version="1.0" encoding="utf-8"?>
<!-- Generator: Adobe Illustrator 28.0.0, SVG Export Plug-In . SVG Version: 6.00 Build 0)  -->
<svg version="1.1" id="Layer_1" xmlns="http://www.w3.org/2000/svg" xmlns:xlink="http://www.w3.org/1999/xlink" x="0px" y="0px"
	 viewBox="0 0 577 495" style="enable-background:new 0 0 577 495;" xml:space="preserve">
<style type="text/css">
	.st0{opacity:0.13;}
	.st1{fill:none;stroke:url(#SVGID_1_);stroke-width:7;}
	.st2{fill:none;stroke:url(#SVGID_00000063625732033761131160000000942485364726458805_);stroke-width:7;}
	.st3{fill:none;stroke:url(#SVGID_00000011732383319848124520000012348097564658130831_);stroke-width:7;}
	.st4{fill:none;stroke:url(#SVGID_00000110447920308628758020000003706520688185889444_);stroke-width:7;}
	.st5{fill:none;stroke:url(#SVGID_00000101810013070302319140000005129604634024542125_);stroke-width:7;}
	.st6{fill:#EBEBEB;}
	.st7{fill:#FAFAFA;}
	.st8{fill:#F5F5F5;}
	.st9{fill:#FFFFFF;}
	.st10{fill:#504ED8;}
	.st11{opacity:0.8;fill:#FFFFFF;enable-background:new    ;}
	.st12{opacity:0.2;fill:#504ED8;enable-background:new    ;}
	.st13{fill:#09C4D0;}
	.st14{opacity:0.2;enable-background:new    ;}
	.st15{opacity:0.9;fill:#FFFFFF;enable-background:new    ;}
	.st16{opacity:0.5;fill:#504ED8;enable-background:new    ;}
	.st17{opacity:0.4;fill:#09C4D0;enable-background:new    ;}
	.st18{fill:#263238;}
	.st19{fill:none;stroke:#504ED8;stroke-width:0.75;stroke-linecap:round;stroke-linejoin:round;}
	.st20{fill:#7573ED;}
	.st21{fill:#44E0EA;}
	.st22{fill:#B7B6FF;}
	.st23{fill:#8CF1F8;}
	.st24{fill:#D8D7FF;}
	.st25{fill:#ABFAFF;}
	.st26{fill:#05ABB6;}
	.st27{fill:none;stroke:#263238;stroke-linecap:round;stroke-linejoin:round;stroke-dasharray:5,5;}
	.st28{fill:#B55B52;}
	.st29{fill:none;stroke:#263238;stroke-width:0.5;stroke-linecap:round;stroke-linejoin:round;}
	.st30{fill:none;stroke:#263238;stroke-width:0.75;stroke-linecap:round;stroke-linejoin:round;}
	.st31{fill:#A02724;}
	.st32{fill:#039EA8;}
	.st33{opacity:0.4;enable-background:new    ;}
	.st34{fill:none;stroke:#504ED8;stroke-miterlimit:10;}
	.st35{fill:#FFFFFF;stroke:#504ED8;}
	.st36{fill:#FFFFFF;stroke:#09C4D0;}
	.st37{fill:none;stroke:#09C4D0;stroke-miterlimit:10;}
	.st38{fill:#9DE7EC;}
	.st39{fill:none;stroke:#504ED8;stroke-linecap:round;stroke-linejoin:round;}
	.st40{fill:none;stroke:#FAFAFA;stroke-linecap:round;stroke-linejoin:round;}
	.st41{fill:url(#SVGID_00000154419609534079424310000011784807498683757721_);}
	.st42{fill:url(#SVGID_00000090284267949160788140000004216077267453894827_);}
	.st43{fill:url(#SVGID_00000042002918921868179220000010884714020884871579_);}
	.st44{fill:url(#SVGID_00000052787616936412933710000009119358844973589422_);}
	.st45{fill:url(#SVGID_00000099628407524859881140000003499128372964988600_);}
	.st46{fill:url(#SVGID_00000121973187642712172620000005368558321671118007_);}
	.st47{fill:url(#SVGID_00000036932876856837206310000003397408282292594584_);}
	.st48{fill:url(#SVGID_00000038403971970059028050000014654513272312595079_);}
	.st49{fill:url(#SVGID_00000026157322834067281590000013605577158458843809_);}
	.st50{fill:url(#SVGID_00000129181111507616103010000003682187883988471461_);}
	.st51{fill:url(#SVGID_00000005254151117522894230000009919831420526272681_);}
	.st52{fill:url(#SVGID_00000070114230199112866710000009867133079992317848_);}
	.st53{fill:url(#SVGID_00000181076282961899159740000018134268421383382931_);}
	.st54{fill:url(#SVGID_00000085212034410202779240000006928973043922986655_);}
	.st55{fill:url(#SVGID_00000021120739978846023470000015427345385334192542_);}
	.st56{fill:url(#SVGID_00000067931734130757851780000000200028800216023739_);}
	.st57{fill:url(#SVGID_00000147901332276512039140000004162654309332263808_);}
</style>
<g class="st0">
	
		<linearGradient id="SVGID_1_" gradientUnits="userSpaceOnUse" x1="494.8749" y1="468.3492" x2="72.7211" y2="46.1959" gradientTransform="matrix(1 0 0 -1 0 495.8898)">
		<stop  offset="0" style="stop-color:#00CAD7"/>
		<stop  offset="1" style="stop-color:#504ED8"/>
	</linearGradient>
	<path class="st1" d="M487.1,21.1c38.8,52.9-17.4,126.6-11.5,192c5.2,58.3,66.6,111.8,43.5,165.7c-23,53.7-97,57.2-149.8,82.3
		c-50.8,24.1-96.6,65-152.6,61.5c-58.2-3.7-113.5-35.5-150.2-80.8c-34.8-43-44.7-101.1-41.9-156.4c2.5-48,38.8-84.3,56.6-129
		c20.5-51.6,12.1-118.1,55.6-152.7c45.2-35.9,109.4-27.3,166.9-24.4C367.9-17.6,449-30.7,487.1,21.1z"/>
	
		<linearGradient id="SVGID_00000028295431343803298790000018446111361738471552_" gradientUnits="userSpaceOnUse" x1="475.646" y1="449.1205" x2="91.9469" y2="65.4208" gradientTransform="matrix(1 0 0 -1 0 495.8898)">
		<stop  offset="0" style="stop-color:#00CAD7"/>
		<stop  offset="1" style="stop-color:#504ED8"/>
	</linearGradient>
	<path style="fill:none;stroke:url(#SVGID_00000028295431343803298790000018446111361738471552_);stroke-width:7;" d="M468.6,40.9
		c35.3,48.1-15.8,115-10.5,174.5c4.7,53,60.5,101.6,39.5,150.6c-20.9,48.8-88.2,52-136.1,74.8c-46.1,21.9-87.8,59.1-138.7,55.9
		c-52.9-3.4-103.2-32.3-136.5-73.4C54.6,384.1,45.6,331.3,48.2,281c2.2-43.7,35.2-76.6,51.4-117.3c18.7-46.9,11-107.3,50.5-138.8
		c41-32.7,99.4-24.8,151.7-22.2C360.2,5.7,434-6.2,468.6,40.9z"/>
	
		<linearGradient id="SVGID_00000067196254436507812560000003713934692767356854_" gradientUnits="userSpaceOnUse" x1="451.1188" y1="424.5953" x2="116.4728" y2="89.948" gradientTransform="matrix(1 0 0 -1 0 495.8898)">
		<stop  offset="0" style="stop-color:#00CAD7"/>
		<stop  offset="1" style="stop-color:#504ED8"/>
	</linearGradient>
	<path style="fill:none;stroke:url(#SVGID_00000067196254436507812560000003713934692767356854_);stroke-width:7;" d="M444.9,66.2
		c30.8,41.9-13.8,100.3-9.2,152.2c4.1,46.2,52.8,88.6,34.5,131.3c-18.2,42.5-76.9,45.3-118.7,65.2c-40.2,19.1-76.5,51.6-120.9,48.7
		c-46.2-2.9-90-28.2-119.1-64.1c-27.6-34.1-35.5-80.1-33.2-124c2-38.1,30.7-66.8,44.8-102.3c16.3-40.9,9.6-93.6,44-121
		c35.8-28.5,86.7-21.6,132.3-19.3C350.5,35.5,414.8,25.1,444.9,66.2z"/>
	
		<linearGradient id="SVGID_00000159470228146574256240000003072959264053699745_" gradientUnits="userSpaceOnUse" x1="419.6439" y1="393.121" x2="147.9489" y2="121.425" gradientTransform="matrix(1 0 0 -1 0 495.8898)">
		<stop  offset="0" style="stop-color:#00CAD7"/>
		<stop  offset="1" style="stop-color:#504ED8"/>
	</linearGradient>
	<path style="fill:none;stroke:url(#SVGID_00000159470228146574256240000003072959264053699745_);stroke-width:7;" d="M414.6,98.6
		c25,34-11.2,81.5-7.4,123.6c3.4,37.5,42.9,71.9,28,106.6c-14.8,34.5-62.5,36.8-96.4,52.9c-32.7,15.5-62.1,41.9-98.2,39.6
		c-37.5-2.4-73.1-22.9-96.7-52c-22.4-27.7-28.8-65.1-27-100.7c1.6-30.9,25-54.3,36.4-83.1c13.2-33.2,7.8-76,35.8-98.3
		c29.1-23.1,70.4-17.6,107.4-15.7C337.9,73.7,390.1,65.3,414.6,98.6z"/>
	
		<linearGradient id="SVGID_00000150074487652762230670000009755315965849665436_" gradientUnits="userSpaceOnUse" x1="385.037" y1="358.5199" x2="182.545" y2="156.0289" gradientTransform="matrix(1 0 0 -1 0 495.8898)">
		<stop  offset="0" style="stop-color:#00CAD7"/>
		<stop  offset="1" style="stop-color:#504ED8"/>
	</linearGradient>
	<path style="fill:none;stroke:url(#SVGID_00000150074487652762230670000009755315965849665436_);stroke-width:7;" d="M381.3,134.3
		c18.6,25.4-8.3,60.7-5.5,92.1c2.5,28,31.9,53.6,20.8,79.5c-11,25.7-46.6,27.4-71.8,39.5c-24.3,11.6-46.3,31.2-73.2,29.5
		c-27.9-1.8-54.5-17-72-38.8c-16.7-20.6-21.5-48.5-20.1-75c1.2-23,18.6-40.4,27.1-61.9c9.8-24.7,5.8-56.7,26.6-73.2
		c21.7-17.2,52.5-13.1,80.1-11.7C324.1,115.7,363,109.4,381.3,134.3z"/>
</g>
<path class="st6" d="M268.7,340.3H46.6c-1.7,0-3.4-0.7-4.6-1.9c-1.2-1.2-1.9-2.9-1.9-4.6V21.5c0-1.7,0.7-3.4,1.9-4.6
	c1.2-1.2,2.9-1.9,4.6-1.9h222.1c1.7,0,3.4,0.7,4.6,1.9c1.2,1.2,1.9,2.9,1.9,4.6v312.2c0,1.7-0.7,3.4-1.9,4.6
	C272.1,339.6,270.4,340.3,268.7,340.3z M46.6,15.2c-1.7,0-3.3,0.7-4.4,1.8c-1.2,1.2-1.8,2.8-1.8,4.4v312.2c0,1.7,0.7,3.3,1.8,4.4
	c1.2,1.2,2.8,1.8,4.4,1.8h222.1c1.7,0,3.3-0.7,4.4-1.8c1.2-1.2,1.8-2.8,1.8-4.4V21.5c0-1.7-0.7-3.3-1.8-4.4
	c-1.2-1.2-2.8-1.8-4.4-1.8H46.6z"/>
<path class="st6" d="M517.5,340.3H295.4c-1.7,0-3.4-0.7-4.6-1.9c-1.2-1.2-1.9-2.9-1.9-4.6V21.5c0-1.7,0.7-3.4,1.9-4.6
	c1.2-1.2,2.9-1.9,4.6-1.9h222.1c1.7,0,3.4,0.7,4.6,1.9c1.2,1.2,1.9,2.9,1.9,4.6v312.2c0,1.7-0.7,3.4-1.9,4.6
	C520.9,339.6,519.3,340.3,517.5,340.3z M295.4,15.2c-1.7,0-3.3,0.7-4.4,1.8c-1.2,1.2-1.8,2.8-1.8,4.4v312.2c0,1.7,0.7,3.3,1.8,4.4
	c1.2,1.2,2.8,1.8,4.4,1.8h222.1c1.7,0,3.3-0.7,4.4-1.8c1.2-1.2,1.8-2.8,1.8-4.4V21.5c0-1.7-0.7-3.3-1.8-4.4
	c-1.2-1.2-2.8-1.8-4.4-1.8H295.4z"/>
<path class="st7" d="M480.4,128.4H201.1c-7.8,0-14.2,6.3-14.2,14.2v172.1c0,7.8,6.3,14.2,14.2,14.2h279.3c7.8,0,14.2-6.3,14.2-14.2
	V142.6C494.6,134.8,488.3,128.4,480.4,128.4z"/>
<path class="st8" d="M494.4,320.8h-3.6v-1.2h3.5L494.4,320.8z M487.3,320.8h-3.5v-1.2h3.5L487.3,320.8z M480.2,320.8h-3.5v-1.2h3.5
	V320.8z M473.1,320.8h-3.5v-1.2h3.5V320.8z M466,320.8h-3.5v-1.2h3.5V320.8z M459,320.8h-3.5v-1.2h3.5V320.8z M451.9,320.8h-3.5
	v-1.2h3.5V320.8z M444.8,320.8h-3.6v-1.2h3.5L444.8,320.8z M437.7,320.8h-3.5v-1.2h3.5V320.8z M430.6,320.8h-3.5v-1.2h3.5V320.8z
	 M423.6,320.8H420v-1.2h3.5V320.8z M416.5,320.8h-3.5v-1.2h3.5V320.8z M409.4,320.8h-3.5v-1.2h3.5V320.8z M402.3,320.8h-3.5v-1.2
	h3.5V320.8z M395.2,320.8h-3.5v-1.2h3.5L395.2,320.8z M388.2,320.8h-3.5v-1.2h3.5V320.8z M381.1,320.8h-3.5v-1.2h3.5V320.8z
	 M374,320.8h-3.5v-1.2h3.5V320.8z M366.9,320.8h-3.5v-1.2h3.5V320.8z M359.8,320.8h-3.5v-1.2h3.5V320.8z M352.8,320.8h-3.5v-1.2h3.5
	L352.8,320.8z M345.7,320.8h-3.5v-1.2h3.5V320.8z M338.6,320.8h-3.5v-1.2h3.5V320.8z M331.5,320.8H328v-1.2h3.5V320.8z M324.4,320.8
	h-3.5v-1.2h3.5V320.8z M317.4,320.8h-3.5v-1.2h3.5V320.8z M310.3,320.8h-3.5v-1.2h3.5V320.8z M303.2,320.8h-3.5v-1.2h3.5V320.8z
	 M296.1,320.8h-3.5v-1.2h3.5V320.8z M289,320.8h-3.5v-1.2h3.5V320.8z M281.9,320.8h-3.5v-1.2h3.5V320.8z M274.9,320.8h-3.5v-1.2h3.5
	V320.8z M267.8,320.8h-3.5v-1.2h3.5V320.8z M260.7,320.8h-3.5v-1.2h3.5L260.7,320.8z M253.6,320.8h-3.5v-1.2h3.5V320.8z
	 M246.6,320.8H243v-1.2h3.5V320.8z M239.5,320.8h-3.5v-1.2h3.5V320.8z M232.4,320.8h-3.5v-1.2h3.5V320.8z M225.3,320.8h-3.5v-1.2
	h3.5V320.8z M218.2,320.8h-3.5v-1.2h3.5V320.8z M211.1,320.8h-3.5v-1.2h3.6L211.1,320.8z M204.1,320.8h-3.5v-1.2h3.5V320.8z
	 M197,320.8h-3.5v-1.2h3.5V320.8z M189.9,320.8h-3.5v-1.2h3.5V320.8z M182.8,320.8h-3.5v-1.2h3.5V320.8z M175.7,320.8h-3.5v-1.2h3.5
	V320.8z M168.7,320.8h-0.9c-0.9,0-1.8-0.1-2.7-0.2l0.2-1.2c0.8,0.1,1.7,0.2,2.5,0.2h0.9V320.8z M498.1,320.4l-0.3-1.1
	c1.1-0.2,2.2-0.6,3.2-1.1l0.5,1.1C500.4,319.8,499.3,320.2,498.1,320.4z M161.5,319.7c-1.1-0.4-2.2-1-3.3-1.6l0.6-1
	c1,0.6,2,1.1,3,1.5L161.5,319.7z M504.7,317.5l-0.7-1c0.9-0.7,1.8-1.4,2.6-2.3l0.9,0.8C506.6,315.9,505.7,316.7,504.7,317.5z
	 M155.4,315.8c-0.9-0.9-1.6-1.8-2.3-2.8l1-0.7c0.6,0.9,1.4,1.8,2.2,2.6L155.4,315.8z M509.6,312.1l-1-0.6c0.6-1,1.1-2,1.4-3.1
	l1.1,0.4C510.8,309.9,510.3,311,509.6,312.1z M151.3,309.7c-0.5-1.1-0.8-2.3-1-3.5l1.1-0.2c0.2,1.1,0.5,2.2,0.9,3.3L151.3,309.7z
	 M512,305.2l-1.1-0.1c0.1-0.6,0.1-1.3,0.1-1.9v-1.5h1.2v1.5C512.1,303.8,512,304.5,512,305.2L512,305.2z M151.2,302.6h-1.2V299h1.2
	V302.6z M512.1,298.1h-1.2v-3.5h1.2V298.1z M151.2,295.5h-1.2V292h1.2V295.5z M512.1,291h-1.2v-3.5h1.2V291z M151.2,288.4h-1.2v-3.5
	h1.2V288.4z M512.1,283.9h-1.2v-3.5h1.2V283.9z M151.2,281.3h-1.2v-3.5h1.2V281.3z M512.1,276.8h-1.2v-3.5h1.2V276.8z M151.2,274.3
	h-1.2v-3.5h1.2V274.3z M512.1,269.8h-1.2v-3.5h1.2V269.8z M151.2,267.2h-1.2v-3.5h1.2V267.2z M512.1,262.7h-1.2v-3.5h1.2V262.7z
	 M151.2,260.1h-1.2v-3.5h1.2V260.1z M512.1,255.6h-1.2V252h1.2V255.6z M151.2,253h-1.2v-3.5h1.2V253z M512.1,248.5h-1.2V245h1.2
	V248.5z M151.2,246h-1.2v-3.5h1.2V246z M512.1,241.4h-1.2v-3.5h1.2V241.4z M151.2,238.9h-1.2v-3.5h1.2V238.9z M512.1,234.4h-1.2
	v-3.5h1.2V234.4z M151.2,231.8h-1.2v-3.5h1.2V231.8z M512.1,227.3h-1.2v-3.5h1.2V227.3z M151.2,224.7h-1.2v-3.6h1.2V224.7z
	 M512.1,220.2h-1.2v-3.5h1.2V220.2z M151.2,217.6h-1.2V214h1.2V217.6z M512.1,213.1h-1.2v-3.5h1.2V213.1z M151.2,210.6h-1.2V207h1.2
	V210.6z M512.1,206h-1.2v-3.5h1.2V206z M151.2,203.4h-1.2v-3.5h1.2V203.4z M512.1,198.9h-1.2v-3.5h1.2V198.9z M151.2,196.3h-1.2
	v-3.5h1.2V196.3z M512.1,191.8h-1.2v-3.5h1.2V191.8z M151.2,189.3h-1.2v-3.5h1.2V189.3z M512.1,184.8h-1.2v-3.5h1.2V184.8z
	 M151.2,182.2h-1.2v-3.5h1.2V182.2z M512.1,177.7h-1.2v-3.5h1.2V177.7z M151.2,175.1h-1.2v-3.5h1.2V175.1z M512.1,170.6h-1.2v-3.5
	h1.2V170.6z M151.2,168h-1.2v-3.5h1.2V168z M512.1,163.5h-1.2v-3.5h1.2V163.5z M151.2,160.9h-1.2v-3.5h1.2V160.9z M512.1,156.5h-1.2
	V153h1.2V156.5z M151.2,153.9h-1.2v-3.5h1.2V153.9z M512.1,149.4h-1.2v-3.5h1.2V149.4z M151.2,146.9h-1.2v-3.5h1.2V146.9z
	 M512.1,142.3h-1.2v-3.5h1.2V142.3z M151.2,139.8h-1.2v-3.5h1.2V139.8z M512.1,135.2h-1.2v-3.5h1.2V135.2z M151.2,132.7h-1.2v-3.5
	h1.2V132.7z M512.1,128.2h-1.2v-3.5h1.2V128.2z M151.2,125.6h-1.2V122h1.2V125.6z M512.1,121h-1.2v-3.5h1.2V121z M151.2,118.5h-1.2
	V115h1.2V118.5z M512.1,113.9h-1.2v-3.5h1.2V113.9z M151.2,111.4h-1.2v-3.5h1.2V111.4z M512.1,106.8h-1.2v-3.5h1.2V106.8z
	 M151.2,104.3h-1.2v-3.5h1.2V104.3z M512.1,99.8h-1.2v-3.5h1.2V99.8z M151.2,97.2h-1.2v-3.5h1.2V97.2z M512.1,92.7h-1.2v-3.5h1.2
	V92.7z M151.2,90.1h-1.2v-1.5c0-0.7,0-1.4,0.1-2.1l1.2,0.1c-0.1,0.7-0.1,1.3-0.1,2L151.2,90.1z M510.6,85.7
	c-0.2-1.1-0.5-2.2-0.9-3.3l1.1-0.4c0.5,1.1,0.8,2.3,1,3.5L510.6,85.7z M152.1,83.3L151,83c0.4-1.2,0.9-2.3,1.5-3.3l1,0.6
	C152.9,81.2,152.5,82.3,152.1,83.3L152.1,83.3z M508.1,79.4c-0.6-0.9-1.4-1.8-2.2-2.6l0.8-0.8c0.9,0.9,1.6,1.8,2.3,2.8L508.1,79.4z
	 M155.6,77.5l-0.9-0.8c0.8-0.9,1.7-1.7,2.7-2.4l0.7,1C157.2,75.9,156.3,76.7,155.6,77.5L155.6,77.5z M503.2,74.7c-1-0.6-2-1.1-3-1.5
	l0.4-1.2c1.1,0.4,2.2,1,3.3,1.6L503.2,74.7z M161.1,73.5l-0.5-1.1c1.1-0.5,2.3-0.9,3.5-1.2l0.2,1.2
	C163.2,72.7,162.1,73.1,161.1,73.5L161.1,73.5z M496.9,72.3c-0.8-0.1-1.7-0.2-2.5-0.2h-0.9V71h0.9c0.9,0,1.8,0.1,2.7,0.2L496.9,72.3
	z M489.9,72.1h-3.5V71h3.5V72.1z M482.8,72.1h-3.5V71h3.5V72.1z M475.7,72.1h-3.5V71h3.6L475.7,72.1z M468.6,72.1h-3.5V71h3.5V72.1z
	 M461.6,72.1H458V71h3.5V72.1z M454.5,72.1H451V71h3.5V72.1z M447.4,72.1h-3.5V71h3.5V72.1z M440.3,72.1h-3.5V71h3.5V72.1z
	 M433.2,72.1h-3.5V71h3.5L433.2,72.1z M426.2,72.1h-3.5V71h3.5V72.1z M419.1,72.1h-3.5V71h3.5V72.1z M412,72.1h-3.5V71h3.5V72.1z
	 M404.9,72.1h-3.5V71h3.5V72.1z M397.8,72.1h-3.5V71h3.5V72.1z M390.8,72.1h-3.6V71h3.5L390.8,72.1z M383.7,72.1h-3.5V71h3.6
	L383.7,72.1z M376.6,72.1h-3.5V71h3.5V72.1z M369.5,72.1H366V71h3.5V72.1z M362.4,72.1h-3.5V71h3.5V72.1z M355.4,72.1h-3.5V71h3.5
	V72.1z M348.3,72.1h-3.5V71h3.5V72.1z M341.2,72.1h-3.5V71h3.5L341.2,72.1z M334.1,72.1h-3.5V71h3.5V72.1z M327,72.1h-3.5V71h3.5
	V72.1z M320,72.1h-3.5V71h3.5V72.1z M312.9,72.1h-3.5V71h3.5V72.1z M305.8,72.1h-3.5V71h3.5V72.1z M298.7,72.1h-3.6V71h3.5
	L298.7,72.1z M291.6,72.1h-3.5V71h3.6L291.6,72.1z M284.5,72.1H281V71h3.5V72.1z M277.5,72.1h-3.5V71h3.5V72.1z M270.4,72.1h-3.5V71
	h3.5V72.1z M263.3,72.1h-3.5V71h3.5V72.1z M256.2,72.1h-3.5V71h3.5V72.1z M249.2,72.1h-3.5V71h3.5L249.2,72.1z M242.1,72.1h-3.5V71
	h3.5V72.1z M235,72.1h-3.5V71h3.5V72.1z M227.9,72.1h-3.5V71h3.5V72.1z M220.8,72.1h-3.5V71h3.5V72.1z M213.7,72.1h-3.5V71h3.5V72.1
	z M206.7,72.1h-3.5V71h3.5L206.7,72.1z M199.6,72.1H196V71h3.5V72.1z M192.5,72.1H189V71h3.5V72.1z M185.4,72.1h-3.5V71h3.5V72.1z
	 M178.3,72.1h-3.5V71h3.5V72.1z M171.3,72.1h-3.5V71h3.5L171.3,72.1z"/>
<path class="st8" d="M355.1,35.5H75.8c-7.8,0-14.2,6.3-14.2,14.2v172.1c0,7.8,6.3,14.2,14.2,14.2h279.3c7.8,0,14.2-6.3,14.2-14.2
	V49.6C369.3,41.8,362.9,35.5,355.1,35.5z"/>
<path class="st6" d="M355.1,35.5H75.8c-3.8,0-7.4,1.5-10,4.2c-2.7,2.7-4.2,6.3-4.2,10h307.6c0-3.8-1.5-7.4-4.2-10
	C362.4,37,358.8,35.5,355.1,35.5z"/>
<path class="st9" d="M133.3,59.7H80.5v12.6h52.8V59.7z"/>
<path class="st9" d="M222.1,59.7h-80.5v12.6h80.5V59.7z"/>
<path class="st9" d="M157,80.7H88.9v12.6H157V80.7z"/>
<path class="st9" d="M269.2,80.7H165.3v12.6h103.8V80.7z"/>
<path class="st9" d="M222.1,101.7h-80.5v12.6h80.5V101.7z"/>
<path class="st9" d="M173.7,122.6h-68.1v12.6h68.1V122.6z"/>
<path class="st9" d="M285.9,122.6H182.1v12.6h103.8V122.6z"/>
<path class="st9" d="M166.8,206.5H114v12.6h52.8V206.5z"/>
<path class="st9" d="M255.6,206.5h-80.5v12.6h80.5V206.5z"/>
<path class="st9" d="M190.4,185.6h-68.1v12.6h68.1V185.6z"/>
<path class="st9" d="M302.7,185.6H198.8v12.6h103.8V185.6z"/>
<path class="st9" d="M141.6,143.6h-36v12.6h36V143.6z"/>
<path class="st9" d="M253.9,143.6H150v12.6h103.8V143.6z"/>
<path class="st9" d="M344.7,42.5c0,0.9-0.3,1.7-0.7,2.4c-0.5,0.7-1.2,1.3-1.9,1.6c-0.8,0.3-1.7,0.4-2.5,0.2
	c-0.8-0.2-1.6-0.6-2.2-1.2c-0.6-0.6-1-1.4-1.2-2.2c-0.2-0.8-0.1-1.7,0.2-2.5c0.3-0.8,0.9-1.5,1.6-1.9c0.7-0.5,1.6-0.7,2.4-0.7
	c0.6,0,1.1,0.1,1.7,0.3s1,0.5,1.4,0.9c0.4,0.4,0.7,0.9,0.9,1.4C344.6,41.4,344.7,42,344.7,42.5z"/>
<path class="st9" d="M328,42.5c0,0.9-0.3,1.7-0.7,2.4c-0.5,0.7-1.2,1.3-1.9,1.6c-0.8,0.3-1.7,0.4-2.5,0.2c-0.8-0.2-1.6-0.6-2.2-1.2
	c-0.6-0.6-1-1.4-1.2-2.2c-0.2-0.8-0.1-1.7,0.2-2.5c0.3-0.8,0.9-1.5,1.6-1.9c0.7-0.5,1.6-0.7,2.4-0.7c0.6,0,1.1,0.1,1.7,0.3
	c0.5,0.2,1,0.5,1.4,0.9c0.4,0.4,0.7,0.9,0.9,1.4C327.9,41.4,328,42,328,42.5z"/>
<path class="st9" d="M306.9,46.9c2.4,0,4.3-1.9,4.3-4.3s-1.9-4.3-4.3-4.3c-2.4,0-4.3,1.9-4.3,4.3S304.5,46.9,306.9,46.9z"/>
<path class="st8" d="M489.9,61.6c0-3.6-0.9-7.1-2.6-10.2c-1.7-3.1-4.1-5.8-7.1-7.8c-3-2-6.4-3.2-9.9-3.6c-3.6-0.4-7.1,0.1-10.4,1.5
	c-2.4-4.9-6.3-9-11.1-11.6c-4.8-2.6-10.3-3.7-15.8-3c-5.4,0.6-10.5,3-14.6,6.6c-4.1,3.7-6.9,8.5-8.1,13.8c-5.9,0.4-11.4,3-15.4,7.4
	c-4,4.4-6.1,10.1-5.9,16c0.2,5.9,2.7,11.5,6.9,15.6c4.3,4.1,9.9,6.4,15.9,6.4h72.4c3.8,0,7.5-1.3,10.4-3.7c2.9-2.4,4.9-5.8,5.6-9.5
	c0.7-3.7,0-7.6-1.8-10.9C496.5,65.4,493.5,62.9,489.9,61.6L489.9,61.6z"/>
<path class="st6" d="M449.7,68.2l-18.6-18.6l-18.6,18.6h9.9v45.9h17.4V68.2H449.7z"/>
<path class="st6" d="M436.8,122.4l18.6,18.6l18.6-18.6h-9.9V76.5h-17.4v45.9H436.8z"/>
<path class="st8" d="M277.9,443.6c123.2,0,223-5.8,223-13c0-7.2-99.9-13-223-13c-123.2,0-223,5.8-223,13
	C54.8,437.8,154.7,443.6,277.9,443.6z"/>
<path class="st10" d="M353.6,106.7v125.5H242.4V77.1H324L353.6,106.7z"/>
<path class="st11" d="M353.6,106.7v125.5H242.4V77.1H324L353.6,106.7z"/>
<path class="st12" d="M353.6,160.9H242.4v7.6h111.2V160.9z"/>
<path class="st13" d="M353.6,106.7H324V77.1L353.6,106.7z"/>
<path class="st10" d="M322.3,331.9h-80.8c0,0,5.1,66.5-9.8,93.5H332C317.2,398.4,322.3,331.9,322.3,331.9z"/>
<path class="st14" d="M323.8,396.7c-4.3-29.6-1.6-64.8-1.6-64.8h-80.8c0,0,2.4,31.7-1,60.2L323.8,396.7z"/>
<path class="st10" d="M343.7,423.1H220c-1.1,0-2.1,0.4-2.9,1.2s-1.2,1.8-1.2,2.9h132c0-1.1-0.4-2.1-1.2-2.9S344.8,423.1,343.7,423.1
	z"/>
<path class="st10" d="M460.3,295.5h-1.2v8.1h1.2V295.5z"/>
<path class="st10" d="M460.3,264.9h-1.2v23.2h1.2V264.9z"/>
<path class="st10" d="M448,166.6H115.8c-4.5,0-8.1,3.6-8.1,8.1v201.2c0,4.5,3.6,8.1,8.1,8.1H448c4.5,0,8.1-3.6,8.1-8.1V174.7
	C456.1,170.2,452.5,166.6,448,166.6z"/>
<path class="st9" d="M444.8,171.8H119c-3.4,0-6.2,2.8-6.2,6.2v147.7c0,3.4,2.8,6.2,6.2,6.2h325.8c3.4,0,6.2-2.8,6.2-6.2V178
	C451,174.6,448.2,171.8,444.8,171.8z"/>
<path class="st15" d="M107.6,337.1v38.8c0,2.2,0.9,4.2,2.4,5.7c1.5,1.5,3.6,2.4,5.7,2.4H448c2.2,0,4.2-0.9,5.7-2.4
	c1.5-1.5,2.4-3.6,2.4-5.7v-38.8H107.6z"/>
<path class="st16" d="M281.9,368.4c4.3,0,7.8-3.5,7.8-7.8c0-4.3-3.5-7.8-7.8-7.8c-4.3,0-7.8,3.5-7.8,7.8
	C274,364.9,277.5,368.4,281.9,368.4z"/>
<path class="st17" d="M200.1,142.9v113.3h113.3L200.1,142.9z M225,203l28.3,28.3H225V203z"/>
<path class="st9" d="M329.9,274.2v23.3c0,3.8,1.5,7.4,4.2,10c2.7,2.7,6.3,4.2,10,4.2h82.2c3.8,0,7.4-1.5,10-4.2
	c2.7-2.7,4.2-6.3,4.2-10v-82.2c0-3.8-1.5-7.4-4.2-10c-2.7-2.7-6.3-4.2-10-4.2h-82.2c-3.8,0-7.4,1.5-10,4.2c-2.7,2.7-4.2,6.3-4.2,10
	v25.6"/>
<path class="st10" d="M426.3,312.3h-4.6v-1.2h4.7v1.2H426.3z M417,312.3h-4.7v-1.2h4.7V312.3z M407.5,312.3h-4.7v-1.2h4.7V312.3z
	 M398,312.3h-4.8v-1.2h4.7L398,312.3z M388.5,312.3h-4.7v-1.2h4.7V312.3z M379.1,312.3h-4.8v-1.2h4.8V312.3z M369.6,312.3h-4.7v-1.2
	h4.7V312.3z M360.1,312.3h-4.7v-1.2h4.7V312.3z M350.6,312.3h-4.8v-1.2h4.8V312.3z M341,312c-1.6-0.3-3.2-1-4.6-1.8l0.6-1
	c1.3,0.8,2.7,1.4,4.2,1.7L341,312z M431.3,311.4l-0.4-1.2c1.4-0.5,2.8-1.3,3.9-2.2l0.7,0.9C434.3,310,432.9,310.8,431.3,311.4
	L431.3,311.4z M332.7,307c-1.1-1.3-1.9-2.7-2.5-4.2l1.2-0.4c0.5,1.4,1.3,2.7,2.3,3.9L332.7,307z M438.9,305.3l-1-0.6
	c0.8-1.3,1.4-2.7,1.7-4.2l1.2,0.3C440.4,302.4,439.7,303.9,438.9,305.3L438.9,305.3z M329.3,297.9c0-0.1,0-0.3,0-0.4v-4.3h1.2v4.7
	L329.3,297.9z M441.1,295.9H440v-4.7h1.2V295.9z M330.5,288.4h-1.2v-4.7h1.2V288.4z M441.1,286.5h-1.2v-4.7h1.2V286.5z M330.5,279
	h-1.1v-4.8h1.1V279z M441.1,277h-1.2v-4.8h1.2V277z M441.1,267.5h-1.2v-4.7h1.2V267.5z M441.1,258h-1.2v-4.7h1.2V258z M441.1,248.6
	h-1.2v-4.8h1.2V248.6z M330.5,240.2h-1.1v-4.8h1.1V240.2z M441.1,239h-1.2v-4.7h1.2V239z M330.5,230.7h-1.1v-4.7h1.1V230.7z
	 M441.1,229.5h-1.2v-4.7h1.2V229.5z M330.5,221.1h-1.1v-4.7h1.1V221.1z M441.1,220h-1.2v-4.8h1.2V220z M330.9,211.8l-1.2-0.3
	c0.4-1.6,1.1-3.1,2-4.5l1,0.7C331.9,209,331.3,210.4,330.9,211.8L330.9,211.8z M439.2,210.8c-0.5-1.4-1.2-2.8-2.2-4l0.9-0.7
	c1,1.3,1.8,2.8,2.4,4.3L439.2,210.8z M335.9,204.4l-0.7-0.9c1.3-1,2.8-1.8,4.3-2.3l0.4,1.2C338.4,202.8,337.1,203.5,335.9,204.4
	L335.9,204.4z M433.6,203.8c-1.3-0.8-2.7-1.4-4.2-1.8l0.3-1.1c1.6,0.4,3.2,1.1,4.6,2L433.6,203.8z M424.9,201.6h-4.7v-1.1h4.7
	L424.9,201.6z M415.4,201.6h-4.7v-1.1h4.7V201.6z M406,201.6h-4.8v-1.1h4.8V201.6z M396.5,201.6h-4.7v-1.1h4.7L396.5,201.6z
	 M387,201.6h-4.7v-1.1h4.7V201.6z M377.5,201.6h-4.8v-1.1h4.8V201.6z M368,201.6h-4.7v-1.1h4.7V201.6z M358.5,201.6h-4.7v-1.1h4.7
	L358.5,201.6z M349.1,201.6h-4.7v-1.1h4.7V201.6z"/>
<path class="st13" d="M330.1,258.7v-14.4c-1.8,3.7-2.7,7.8-2.7,11.9l1.9,1.9v1.4l-2.9,2.9c0-0.2,0-0.4-0.1-0.6s-0.2-0.3-0.3-0.5
	c-0.7-0.7-2.1-0.4-3.2,0.7c-1.1,1.1-1.4,2.5-0.7,3.2c0.7,0.7,2.1,0.4,3.2-0.7l3.9-3.9v6.3c0,1.5,0.8,2.8,1.8,2.8
	c1,0,1.8-1.2,1.8-2.8c0-1.5-0.8-2.7-1.8-2.7c-0.2,0-0.4,0.1-0.5,0.1c-0.2,0.1-0.3,0.2-0.4,0.3v-4.8l1.5-1.5h2.7
	c2.9-2.9,5.1-6.5,6.5-10.4L330.1,258.7z M325,264.2c-0.8,0.8-1.8,1-2.3,0.5c-0.5-0.5-0.3-1.5,0.5-2.3c0.8-0.8,1.8-1,2.3-0.5
	C326,262.4,325.8,263.5,325,264.2z M331.1,264.9c0.7,0,1.3,0.9,1.3,2c0,1.1-0.6,2-1.3,2c-0.7,0-1.3-0.9-1.3-2
	C329.8,265.8,330.4,264.9,331.1,264.9z"/>
<path class="st18" d="M285.5,285.3c-1.3-1.3-2-3.1-2-4.9c0-1.9,0.7-3.6,2-4.9l4.4-4.4c1.3-1.3,3.1-2,5-2c1.9,0,3.6,0.7,5,2
	c1.3,1.3,2,3.1,2,4.9c0,1.9-0.7,3.6-2,4.9l-4.4,4.4c-1.3,1.3-3.1,2-5,2C288.6,287.3,286.8,286.6,285.5,285.3z"/>
<path class="st9" d="M263.1,316.1l27.2-27.2l-8.4-8.4l-27.2,27.2c-0.3,0.3-0.5,0.7-0.6,1.2c-0.1,0.4,0,0.9,0.2,1.3
	c0.2,0.3,0.2,0.6,0.2,0.9s-0.1,0.7-0.2,0.9c-0.3,0.6-0.5,1.3-0.4,2c0.1,0.7,0.4,1.3,0.9,1.8c0.5,0.5,1.1,0.8,1.8,0.9
	c0.7,0.1,1.4,0,2-0.4c0.3-0.2,0.6-0.2,0.9-0.2c0.3,0,0.7,0.1,0.9,0.2c0.4,0.2,0.9,0.3,1.3,0.2C262.3,316.6,262.7,316.4,263.1,316.1z
	"/>
<path class="st10" d="M257.2,318.1c-0.8,0-1.5-0.2-2.2-0.6c-0.7-0.4-1.2-0.9-1.6-1.6c-0.4-0.7-0.6-1.4-0.6-2.2
	c0-0.8,0.2-1.5,0.5-2.2c0.1-0.1,0.1-0.3,0.1-0.4c0-0.1,0-0.3-0.1-0.4c-0.3-0.6-0.4-1.3-0.3-2c0.1-0.7,0.4-1.3,0.9-1.8l27.2-27.2
	c0.1-0.1,0.2-0.2,0.4-0.3c0.1-0.1,0.3-0.1,0.5-0.1c0.2,0,0.3,0,0.5,0.1c0.1,0.1,0.3,0.2,0.4,0.3l8.4,8.4c0.1,0.1,0.2,0.2,0.3,0.4
	c0.1,0.1,0.1,0.3,0.1,0.5c0,0.2,0,0.3-0.1,0.5c-0.1,0.1-0.2,0.3-0.3,0.4L263.9,317c-0.5,0.5-1.1,0.8-1.8,0.9c-0.7,0.1-1.4,0-2-0.3
	c-0.1-0.1-0.3-0.1-0.4-0.1s-0.3,0-0.4,0.1C258.7,317.9,257.9,318.1,257.2,318.1z M281.9,282.2l-26.4,26.4c-0.2,0.1-0.3,0.3-0.3,0.5
	c0,0.2,0,0.4,0.1,0.6c0.2,0.5,0.4,1,0.4,1.5c0,0.5-0.1,1-0.4,1.5c-0.2,0.4-0.3,0.8-0.2,1.3c0.1,0.4,0.3,0.9,0.6,1.2
	c0.3,0.3,0.7,0.5,1.2,0.6c0.4,0.1,0.9,0,1.3-0.2c0.5-0.2,1-0.4,1.5-0.4s1,0.1,1.5,0.4c0.2,0.1,0.4,0.1,0.6,0.1
	c0.2,0,0.4-0.1,0.5-0.3l26.5-26.4L281.9,282.2z"/>
<path class="st18" d="M279.7,276c0.6-0.6,1.5-1,2.4-1c0.9,0,1.8,0.4,2.4,1l10.2,10.2c0.6,0.6,1,1.5,1,2.4c0,0.9-0.4,1.8-1,2.4
	c-0.6,0.6-1.5,1-2.4,1c-0.9,0-1.8-0.4-2.4-1l-10.2-10.2c-0.6-0.6-1-1.5-1-2.4S279.1,276.6,279.7,276z"/>
<path class="st19" d="M160.7,183.1h-36.5v61.1h36.5V183.1z"/>
<path class="st10" d="M138.7,188.2H131v8.5h7.6V188.2z"/>
<path class="st13" d="M155.6,188.2h-8.5v8.5h8.5V188.2z"/>
<path class="st20" d="M138.7,201.8H131v8.5h7.6V201.8z"/>
<path class="st21" d="M155.6,201.8h-8.5v8.5h8.5V201.8z"/>
<path class="st22" d="M138.7,215.4H131v8.5h7.6V215.4z"/>
<path class="st23" d="M155.6,215.4h-8.5v8.5h8.5V215.4z"/>
<path class="st24" d="M138.7,229.8H131v7.6h7.6V229.8z"/>
<path class="st25" d="M155.6,229.8h-8.5v7.6h8.5V229.8z"/>
<path class="st18" d="M410.9,166.8l-18.7-18.7c-0.8-0.8-2.1-0.8-2.9,0l-8.5,8.5c-0.8,0.8-0.8,2.1,0,2.9l18.7,18.7
	c0.8,0.8,2.1,0.8,2.9,0l8.5-8.5C411.7,168.9,411.7,167.6,410.9,166.8z"/>
<path class="st26" d="M441.2,117.9L404,155l-6.3-6.3c5.4-5.4,2.3-18.1,2.3-18.1l10.3-10.3c16.7-2.3,51.8-27.2,51.8-27.2l1.2,1.2
	l-22.1,21.9c-0.1,0.1-0.2,0.2-0.3,0.4c-0.1,0.1-0.1,0.3-0.1,0.4c0,0.2,0,0.3,0.1,0.5C441,117.6,441,117.8,441.2,117.9z"/>
<path class="st10" d="M438.7,148.7L428.4,159c0,0-12.7-3.2-18.1,2.3l-6.3-6.3l37.1-37.1c0.1,0.1,0.2,0.2,0.4,0.2
	c0.1,0,0.3,0.1,0.5,0.1c0.2,0,0.3-0.1,0.4-0.1c0.1-0.1,0.3-0.2,0.4-0.3l22-22l1.1,1.2C465.9,97,441,132,438.7,148.7z"/>
<path class="st13" d="M438.7,148.7L428.4,159c0,0-12.7-3.2-18.1,2.3l-6.3-6.3l37.1-37.1c0.1,0.1,0.2,0.2,0.4,0.2
	c0.1,0,0.3,0.1,0.5,0.1c0.2,0,0.3-0.1,0.4-0.1c0.1-0.1,0.3-0.2,0.4-0.3l22-22l1.1,1.2C465.9,97,441,132,438.7,148.7z"/>
<path class="st10" d="M470,170.2l-0.7-0.7c5.4-5.2,9.6-11.5,12.6-18.4c2.9-6.9,4.5-14.3,4.5-21.8c0-7.5-1.4-14.9-4.3-21.9
	c-2.9-6.9-7.1-13.3-12.4-18.6c-5.3-5.3-11.6-9.5-18.6-12.4c-6.9-2.9-14.4-4.3-21.9-4.3c-7.5,0-14.9,1.6-21.8,4.5
	c-6.9,2.9-13.2,7.2-18.4,12.6l-0.7-0.7c5.3-5.5,11.7-9.8,18.7-12.8c7-3,14.6-4.5,22.2-4.6s15.2,1.4,22.2,4.3
	c7.1,2.9,13.5,7.2,18.9,12.6c5.4,5.4,9.7,11.8,12.6,18.9c2.9,7.1,4.4,14.6,4.3,22.2c0,7.6-1.6,15.2-4.6,22.2
	C479.8,158.5,475.5,164.8,470,170.2z"/>
<path class="st10" d="M418.8,37.4l-0.7,0.7l102.5,102.5l0.7-0.7L418.8,37.4z"/>
<path class="st13" d="M473.9,88.9l-4.2-4.2l-4.2,4.2l4.2,4.2L473.9,88.9z"/>
<path class="st10" d="M469.7,94l-5-5l5-5l5,5L469.7,94z M466.3,89l3.5,3.5l3.5-3.5l-3.5-3.5L466.3,89z"/>
<path class="st9" d="M393.1,89l-4.2-4.2l-4.2,4.2l4.2,4.2L393.1,89z"/>
<path class="st13" d="M388.8,94l-5-5l5-5l5,5L388.8,94z M385.4,89l3.5,3.5l3.5-3.5l-3.5-3.5L385.4,89z"/>
<path class="st9" d="M474.1,170l-4.2-4.2l-4.2,4.2l4.2,4.2L474.1,170z"/>
<path class="st13" d="M469.9,175l-5-5l5-5l5,5L469.9,175z M466.4,170l3.5,3.5l3.5-3.5l-3.5-3.5L466.4,170z"/>
<path class="st9" d="M523.3,142.5c-0.4,0.4-1,0.7-1.5,0.8c-0.6,0.1-1.2,0.1-1.7-0.2c-0.5-0.2-1-0.6-1.3-1.1
	c-0.3-0.5-0.5-1.1-0.5-1.7c0-0.6,0.2-1.2,0.5-1.7c0.3-0.5,0.8-0.9,1.3-1.1c0.5-0.2,1.1-0.3,1.7-0.2c0.6,0.1,1.1,0.4,1.5,0.8
	c0.6,0.6,0.9,1.3,0.9,2.1C524.1,141.2,523.8,141.9,523.3,142.5z"/>
<path class="st13" d="M521.1,143.9c-0.8,0-1.6-0.3-2.2-0.8c-0.6-0.5-1.1-1.2-1.2-2c-0.2-0.8,0-1.6,0.3-2.4c0.4-0.7,1-1.3,1.8-1.6
	s1.6-0.4,2.4-0.1c0.8,0.2,1.5,0.7,1.9,1.4c0.5,0.7,0.7,1.5,0.6,2.3c-0.1,0.8-0.4,1.6-1,2.2c-0.3,0.3-0.7,0.6-1.1,0.8
	C522.1,143.8,521.6,143.9,521.1,143.9z M521.1,137.9c-0.6,0-1.1,0.2-1.6,0.6c-0.4,0.4-0.7,0.9-0.8,1.4c-0.1,0.6,0,1.1,0.2,1.6
	c0.3,0.5,0.7,0.9,1.2,1.1c0.5,0.2,1.1,0.2,1.6,0.1c0.5-0.2,1-0.5,1.3-1c0.3-0.5,0.5-1,0.4-1.6c-0.1-0.6-0.3-1.1-0.7-1.5
	C522.4,138.2,521.8,137.9,521.1,137.9z"/>
<path class="st9" d="M420.5,39.8c-0.4,0.4-1,0.7-1.5,0.8c-0.6,0.1-1.2,0.1-1.7-0.2c-0.5-0.2-1-0.6-1.3-1.1s-0.5-1.1-0.5-1.7
	c0-0.6,0.2-1.2,0.5-1.7s0.8-0.9,1.3-1.1c0.5-0.2,1.1-0.3,1.7-0.2c0.6,0.1,1.1,0.4,1.5,0.8c0.6,0.6,0.9,1.3,0.9,2.1
	S421.1,39.3,420.5,39.8z"/>
<path class="st13" d="M418.5,41.2c-0.7,0-1.4-0.2-2-0.6c-0.6-0.4-1-0.9-1.3-1.6c-0.3-0.6-0.3-1.4-0.2-2c0.1-0.7,0.5-1.3,1-1.8
	c0.5-0.5,1.1-0.8,1.8-1c0.7-0.1,1.4-0.1,2,0.2c0.6,0.3,1.2,0.7,1.6,1.3s0.6,1.3,0.6,2c0,0.5-0.1,0.9-0.3,1.4
	c-0.2,0.4-0.4,0.8-0.8,1.1c-0.3,0.3-0.7,0.6-1.1,0.8C419.4,41.1,418.9,41.2,418.5,41.2z M418.5,35.2c-0.3,0-0.6,0.1-0.9,0.2
	c-0.3,0.1-0.6,0.3-0.8,0.5c-0.4,0.5-0.6,1.1-0.6,1.7c0,0.6,0.3,1.2,0.7,1.6c0.4,0.4,1,0.7,1.6,0.7c0.6,0,1.2-0.2,1.7-0.6
	c0.2-0.2,0.4-0.5,0.5-0.8c0.1-0.3,0.2-0.6,0.2-0.9c0-0.6-0.3-1.3-0.7-1.7C419.7,35.5,419.1,35.2,418.5,35.2L418.5,35.2z"/>
<path class="st27" d="M192.8,400.3c-7.6,5-11.6,14.6-11.2,23.7c0.2,4.4,1.4,9,4.3,12.4c2.9,3.4,7.1,5.2,11.3,6.5
	c4.3,1.4,8.9,2.3,13.3,1.6c4.5-0.7,8.9-3.2,10.8-7.3c2.1-4.3,1.2-9.4-0.2-13.9c-1.4-4.5-3.4-9-3.3-13.8c0-3.7,1.3-7.2,2.2-10.8
	s1.5-7.4,0.3-10.9c-1.2-3.5-4.9-6.3-8.5-5.6"/>
<path class="st18" d="M145.9,241.8c0,0,5.9-5.3,12.1,0c6.1,5.3,6.9,18.9,11.4,24.9c0,0-2.5,5.1-12.3,5.7c-9.8,0.6-20.4-9.3-20.4-9.3
	S135.1,239.6,145.9,241.8z"/>
<path class="st10" d="M155.7,268.5c0.6,0.2,5,1.4,12.2,6l-5.2,12.1c0,0-1.6,9.3-5.6,15.1l-8.2,7.6l-16.1-7.1l4.3-22.6l-0.4-11.6
	C136.7,268.1,142.3,264.1,155.7,268.5z"/>
<path class="st28" d="M142.3,255.6c0.1,0.8,0.5,1.6,1.1,2.1c0.6,0.6,1.4,0.9,2.2,0.9c0.6,0.9,1.4,1.7,2.2,2.4
	c-0.7,5.5-4.2,5.5-4.2,5.5c5.4,9,12,2.1,12,2.1c-0.7-0.2-1.3-0.7-1.8-1.3c-0.5-0.6-0.8-1.3-0.8-2c-0.1-0.7,0-1.5,0.3-2.1
	c4.7-0.1,7.2-3.3,7-8.1c-0.2-4.8-3-9.2-3-9.2c-3.1,1.2-8.7-0.3-8.7-0.3c0.3,7.4-3.1,8.7-3.1,8.7S141.9,252.5,142.3,255.6z"/>
<path class="st29" d="M155.5,257.1c-0.6,0.2-1.3,0.1-1.9-0.1c-0.6-0.3-1.1-0.7-1.4-1.3"/>
<path class="st18" d="M153.3,252.1c0,0.4,0.2,0.8,0.5,0.8c0.3,0,0.5-0.4,0.5-0.8c0-0.4-0.2-0.8-0.5-0.8
	C153.4,251.3,153.2,251.7,153.3,252.1z"/>
<path class="st18" d="M158.4,251.6c0,0.4,0.2,0.7,0.5,0.7c0.2,0,0.4-0.3,0.4-0.7c0-0.4-0.2-0.7-0.5-0.7
	C158.5,250.9,158.4,251.2,158.4,251.6z"/>
<path class="st30" d="M153.2,249.1c0,0-1.2-0.1-2.1,1.3"/>
<path class="st31" d="M156.4,255.1v-3.5l1.7,3C157.6,255,157,255.2,156.4,255.1z"/>
<path class="st10" d="M160.4,279.3l0.5,11.3l0.7,0.2c0.4,0.1,0.8,0.2,1.2,0.2c7.4,1.3,11.5-3,11.5-3l-6.5-13.5L160.4,279.3z"/>
<path class="st30" d="M157.8,248.3c0.4,0,0.8,0.1,1.2,0.2"/>
<path class="st18" d="M156.3,319.1c0,0-0.7,18.6-2.4,46.4c-1.8,27.8-11.6,65.5-11.6,65.5h-9.5c0,0,5.2-70.1,5.6-87.6
	c0,0-22.9,59-41.1,78.5l-6.1-3.8c0,0,24.8-57.9,27.4-66.3c2.7-8.4,5.6-39.3,14.2-49.5h15.5L156.3,319.1z"/>
<path class="st28" d="M138.9,432.9l-1.4,7.9l-5.9-0.2l1-7.7H138.9z"/>
<path class="st28" d="M95.6,423.5c-0.1,0.3-3.4,5.7-3.4,5.7l-4-4.3l3.7-5.1L95.6,423.5z"/>
<path class="st10" d="M144.2,430.1l-14-1.1l0.7,5l10.9,1L144.2,430.1z"/>
<path class="st10" d="M99.5,423l-9.2-7l-1.3,4.5l7.4,5.1L99.5,423z"/>
<path class="st10" d="M198.9,396.7l-0.1-21.9l-18.5,9.5L198.9,396.7z"/>
<path class="st32" d="M101.1,229.5l79.3,154.7l5.9-3l6.9-3.5l5.8-3L119.6,220l-6.4,3.3l-7.4,3.8L101.1,229.5z"/>
<path class="st33" d="M191.5,391.6l7.5,5l0-8.7L191.5,391.6z"/>
<path class="st13" d="M101.1,229.5l79.3,154.7l5.9-3l-80.5-154.1L101.1,229.5z"/>
<path class="st13" d="M113.2,223.3l79.9,154.4l5.8-3L119.6,220L113.2,223.3z"/>
<path class="st33" d="M180.4,384.2l18.6,12.5l0-9l0-12.9L180.4,384.2z"/>
<path class="st28" d="M117.3,292c11.9,12.1,27.5,5.8,27.5,5.8c1.1-0.2,2-0.9,2.7-1.8l4.3-1.5l-1.6-4.1l-4.7,1.3l-3.4,2.5
	c-12.2,2.1-18.3-5.4-18.3-5.4c0.6-3.3,1.6-6.5,3-9.5l-4.6-8.9l-0.2,0.3C115.1,281.8,117.3,292,117.3,292z"/>
<path class="st28" d="M153.5,304.5l3.3,1.3c2.9,2.3,6.8,1,6.8,1c12.2,3.1,17.5-0.7,17.5-0.7c-1.7-5.5-5.1-11.9-8.2-16.9
	c-1.9,1.2-4.1,1.9-6.3,2.1c3,4.9,5.8,10.9,5.8,10.9c-3.1,1.6-10.4-0.9-10.4-0.9l-7.5-0.7L153.5,304.5z"/>
<path class="st33" d="M138.4,343.4l3.1-11.3c0,0-3.3,17.9-3.4,18.3C138.1,350.8,138.4,343.4,138.4,343.4z"/>
<path class="st34" d="M92.4,430.1c0,0,3.1-1.7,3.5-0.5C96.3,430.8,92.4,430.1,92.4,430.1z"/>
<path class="st34" d="M92.4,430.5c0,0,3.3,0.8,3.2,1.5C95.5,432.8,92.4,430.5,92.4,430.5z"/>
<path class="st18" d="M86.6,425.1l-2.6,2.1c-0.1,0.1-0.3,0.3-0.4,0.4c-0.1,0.2-0.1,0.4-0.2,0.5c0,0.2,0,0.4,0.1,0.6
	c0.1,0.2,0.2,0.3,0.3,0.5l8.4,9.2l0.1,0.1c0.4,0.3,2.2,1.7,3,1c1-0.8-2-3.8-2.1-5.3c-0.2-1.2-0.5-3.7-0.6-4.7c0-0.3-0.2-0.7-0.5-0.9
	l-3.9-3.5c-0.2-0.2-0.6-0.3-0.9-0.3C87.2,424.7,86.8,424.9,86.6,425.1z"/>
<path class="st34" d="M138.9,441.3c0,0,1.5-3.2,2.3-2.6C142,439.3,138.9,441.3,138.9,441.3z"/>
<path class="st34" d="M139.1,441.3c0,0,3.4-1.8,3.8-0.8C143.3,441.6,139.1,441.3,139.1,441.3z"/>
<path class="st18" d="M130.6,440.6h8.2c1.7,1.6,3.8,2.7,6.1,3.3c3.3,0.7,3,1.3,3,1.3s0.5,1.4-1.5,1.7c-2,0.3-14.7,0.4-16.3,0
	C128.6,446.5,130.6,440.6,130.6,440.6z"/>
<path class="st18" d="M153.7,251.3l1.3-0.2c-0.1,0.1-0.2,0.2-0.3,0.3c-0.1,0.1-0.2,0.1-0.3,0.1c-0.1,0-0.3,0-0.4,0
	C153.9,251.5,153.8,251.4,153.7,251.3z"/>
<path class="st18" d="M158.8,250.9l1.1-0.2c0,0.1-0.1,0.2-0.2,0.2c-0.1,0.1-0.2,0.1-0.3,0.1c-0.1,0-0.2,0-0.3,0
	C159,251,158.9,250.9,158.8,250.9z"/>
<path class="st14" d="M150,262.6c0.2,0.7,0.6,1.3,1.2,1.8c0.5,0.5,1.2,0.8,1.9,0.9c-0.1-0.7,0-1.5,0.3-2.1
	C152.2,263,151.1,262.9,150,262.6z"/>
<path class="st14" d="M161.6,290.8c0.4,0.1,0.8,0.2,1.2,0.2l-0.7-6.2L161.6,290.8z"/>
<path class="st35" d="M384.8,226.9l0,0.3l0.3,0.1l0.9,0.3v1.3l-0.9,0.3l-0.3,0.1l0,0.3c-0.1,0.7-0.2,1.3-0.4,1.9l-0.1,0.3l0.3,0.2
	l0.7,0.6l-0.5,1.2l-0.9-0.1l-0.3,0l-0.2,0.3c-0.3,0.6-0.7,1.1-1.1,1.6l-0.2,0.3l0.2,0.3l0.5,0.8l-0.9,0.9l-0.8-0.5l-0.3-0.2
	l-0.3,0.2c-0.5,0.4-1.1,0.8-1.7,1.1l-0.3,0.2l0,0.3l0.1,0.9l-1.2,0.5l-0.6-0.8l-0.2-0.3l-0.3,0.1c-0.6,0.2-1.3,0.3-2,0.4l-0.3,0
	l-0.1,0.3l-0.3,0.9h-1.3l-0.2-0.9l-0.1-0.3l-0.3,0c-0.7-0.1-1.3-0.2-2-0.4l-0.3-0.1l-0.2,0.3l-0.6,0.7l-1.2-0.5l0.1-0.9l0-0.3
	l-0.3-0.2c-0.6-0.3-1.1-0.7-1.6-1.1l-0.3-0.2l-0.3,0.2l-0.8,0.5l-0.9-0.9l0.5-0.8l0.2-0.3l-0.2-0.3c-0.4-0.5-0.8-1.1-1.1-1.7
	l-0.2-0.3l-0.3,0l-0.9,0.1l-0.5-1.2l0.8-0.6l0.3-0.2l-0.1-0.3c-0.2-0.6-0.3-1.3-0.4-2l0-0.3l-0.3-0.1l-0.9-0.3v-1.3l0.9-0.3l0.3-0.1
	l0-0.3c0.1-0.7,0.2-1.3,0.4-2l0.1-0.3l-0.3-0.2l-0.7-0.6l0.5-1.2l0.9,0.1l0.3,0l0.2-0.3c0.3-0.6,0.7-1.1,1.1-1.6l0.2-0.3l-0.2-0.3
	l-0.5-0.8l0.9-0.9l0.8,0.5l0.3,0.2l0.3-0.2c0.5-0.4,1.1-0.8,1.7-1.1l0.3-0.2l0-0.3l-0.1-0.9l1.2-0.5l0.6,0.8l0.2,0.3l0.3-0.1
	c0.6-0.2,1.3-0.3,2-0.4l0.3,0l0.1-0.3l0.3-0.9h1.3l0.3,0.9l0.1,0.3l0.3,0c0.7,0.1,1.3,0.2,1.9,0.4l0.3,0.1l0.2-0.3l0.6-0.7l1.2,0.5
	l-0.1,0.9l0,0.3l0.3,0.2c0.6,0.3,1.1,0.7,1.6,1.1l0.3,0.2l0.3-0.2l0.8-0.5l0.9,0.9l-0.5,0.8l-0.2,0.3l0.2,0.3
	c0.4,0.5,0.8,1.1,1.1,1.7l0.2,0.3l0.3,0l0.9-0.1l0.5,1.2l-0.8,0.6l-0.3,0.2l0.1,0.3C384.6,225.6,384.7,226.2,384.8,226.9z
	 M370,232.5c0.9,0.6,1.9,0.9,2.9,0.9c0.7,0,1.4-0.1,2-0.4c0.6-0.3,1.2-0.6,1.7-1.1c0.5-0.5,0.9-1.1,1.2-1.7c0.3-0.6,0.4-1.3,0.4-2
	c0-1-0.3-2.1-0.9-2.9c-0.6-0.9-1.4-1.5-2.3-2c-1-0.4-2-0.5-3-0.3c-1,0.2-2,0.7-2.7,1.4c-0.7,0.7-1.2,1.7-1.5,2.7
	c-0.2,1-0.1,2.1,0.3,3C368.5,231.1,369.2,231.9,370,232.5z"/>
<path class="st36" d="M366.4,289.6l0,0.3l0.3,0.1l0.6,0.2v0.9l-0.6,0.2l-0.3,0.1l0,0.3c-0.1,0.5-0.2,1-0.3,1.5l-0.1,0.3l0.3,0.2
	l0.5,0.4l-0.3,0.8l-0.7-0.1l-0.3,0l-0.2,0.3c-0.2,0.4-0.5,0.9-0.9,1.3l-0.2,0.3l0.2,0.3l0.3,0.6l-0.6,0.6l-0.6-0.3l-0.3-0.2
	l-0.3,0.2c-0.4,0.3-0.9,0.6-1.3,0.8l-0.3,0.2l0,0.3l0.1,0.7l-0.8,0.3l-0.4-0.5l-0.2-0.3l-0.3,0.1c-0.5,0.1-1,0.2-1.5,0.3l-0.3,0
	l-0.1,0.3l-0.2,0.6h-0.8l-0.2-0.6l-0.1-0.3l-0.3,0c-0.5-0.1-1-0.2-1.5-0.3l-0.3-0.1l-0.2,0.3l-0.4,0.5l-0.8-0.3l0.1-0.7l0-0.3
	l-0.3-0.2c-0.4-0.3-0.9-0.5-1.3-0.9l-0.3-0.2l-0.3,0.2l-0.6,0.3l-0.6-0.6l0.3-0.6l0.2-0.3l-0.2-0.3c-0.3-0.4-0.6-0.8-0.8-1.3
	l-0.2-0.3l-0.3,0l-0.7,0.1l-0.3-0.8l0.5-0.4l0.3-0.2l-0.1-0.3c-0.1-0.5-0.2-1-0.3-1.5l0-0.3l-0.3-0.1l-0.6-0.2v-0.8l0.6-0.2l0.3-0.1
	l0-0.3c0.1-0.5,0.2-1,0.3-1.5l0.1-0.3l-0.3-0.2l-0.5-0.4l0.3-0.8l0.7,0.1l0.3,0l0.2-0.3c0.2-0.4,0.5-0.9,0.9-1.3l0.2-0.3l-0.2-0.3
	l-0.3-0.6l0.6-0.6l0.6,0.3l0.3,0.2l0.3-0.2c0.4-0.3,0.9-0.6,1.3-0.8l0.3-0.2l0-0.3l-0.1-0.7l0.8-0.3l0.4,0.5l0.2,0.3l0.3-0.1
	c0.5-0.1,1-0.2,1.5-0.3l0.3,0l0.1-0.3l0.2-0.6h0.9l0.2,0.6l0.1,0.3l0.3,0c0.5,0.1,1,0.2,1.5,0.3l0.3,0.1l0.2-0.3l0.4-0.5l0.8,0.3
	l-0.1,0.7l0,0.3l0.3,0.2c0.4,0.3,0.9,0.5,1.3,0.9l0.3,0.2l0.3-0.2l0.6-0.3l0.6,0.6l-0.3,0.6l-0.2,0.3l0.2,0.3
	c0.3,0.4,0.6,0.9,0.8,1.3l0.2,0.3l0.3,0l0.7-0.1l0.3,0.8l-0.5,0.4l-0.3,0.2l0.1,0.3C366.2,288.5,366.3,289,366.4,289.6z M354.9,294
	c0.7,0.5,1.5,0.7,2.3,0.7c0.6,0,1.1-0.1,1.6-0.3c0.5-0.2,1-0.5,1.4-0.9c0.4-0.4,0.7-0.9,0.9-1.4c0.2-0.5,0.3-1.1,0.3-1.6
	c0-0.8-0.2-1.6-0.7-2.3c-0.5-0.7-1.1-1.2-1.9-1.6c-0.8-0.3-1.6-0.4-2.4-0.3c-0.8,0.2-1.6,0.6-2.2,1.1c-0.6,0.6-1,1.3-1.2,2.1
	c-0.2,0.8-0.1,1.7,0.2,2.4S354.2,293.5,354.9,294z"/>
<path class="st10" d="M412,248.4v-2.9l-1.8-0.5c-0.1-1-0.3-2-0.6-2.9l1.5-1.2l-1.1-2.7l-1.9,0.2c-0.5-0.9-1-1.7-1.6-2.5l0.9-1.7
	l-2.1-2.1l-1.7,0.9c-0.8-0.6-1.6-1.2-2.5-1.7l0.2-1.9l-2.7-1.1l-1.2,1.5c-1-0.3-1.9-0.5-2.9-0.6l-0.5-1.8h-3l-0.5,1.8
	c-1,0.1-2,0.3-2.9,0.5l-1.2-1.5l-2.7,1.1l0.2,1.9c-0.9,0.5-1.7,1-2.6,1.6l-1.6-0.9l-2.1,2l0.9,1.7c-0.6,0.8-1.2,1.6-1.7,2.5
	l-1.9-0.2l-1.2,2.7l1.5,1.2c-0.3,1-0.5,1.9-0.6,2.9l-1.8,0.5v2.9l1.8,0.5c0.1,1,0.3,2,0.6,2.9l-1.5,1.2l1.1,2.7l1.9-0.2
	c0.5,0.9,1,1.8,1.6,2.5l-0.9,1.7l2.1,2.1l1.7-0.9c0.8,0.6,1.6,1.2,2.5,1.7l-0.2,1.9l2.7,1.1l1.2-1.5c1,0.3,1.9,0.5,2.9,0.6l0.5,1.8
	h2.9l0.5-1.8c1-0.1,2-0.3,2.9-0.6l1.2,1.5l2.7-1.1l-0.2-1.9c0.9-0.5,1.7-1,2.6-1.6l1.7,0.9l2.1-2.1l-0.9-1.7
	c0.6-0.8,1.2-1.6,1.7-2.5l1.9,0.2l1.2-2.7l-1.5-1.2c0.3-1,0.5-1.9,0.6-2.9L412,248.4z M392.4,253.7c-1.4,0-2.7-0.4-3.8-1.2
	c-1.1-0.8-2-1.8-2.5-3.1c-0.5-1.3-0.6-2.6-0.4-3.9c0.3-1.3,0.9-2.5,1.9-3.5c1-0.9,2.2-1.6,3.5-1.8s2.7-0.1,3.9,0.4
	c1.2,0.5,2.3,1.4,3,2.5c0.7,1.1,1.1,2.5,1.1,3.8c0,0.9-0.2,1.8-0.5,2.6c-0.4,0.8-0.9,1.6-1.5,2.2c-0.6,0.6-1.4,1.1-2.2,1.5
	C394.2,253.5,393.3,253.7,392.4,253.7z"/>
<path class="st10" d="M428.2,283.5v-1.2l-0.8-0.2c0-0.4-0.1-0.8-0.2-1.2l0.6-0.5l-0.5-1.1l-0.8,0.1c-0.2-0.4-0.4-0.7-0.7-1.1
	l0.4-0.7l-0.9-0.9l-0.7,0.4c-0.3-0.3-0.7-0.5-1-0.7l0.1-0.8l-1.1-0.5l-0.5,0.6c-0.4-0.1-0.8-0.2-1.2-0.3l-0.2-0.8h-1.2l-0.2,0.8
	c-0.4,0-0.8,0.1-1.2,0.2l-0.5-0.6l-1.1,0.5l0.1,0.8c-0.4,0.2-0.7,0.4-1.1,0.7l-0.7-0.4l-0.9,0.8l0.4,0.7c-0.3,0.3-0.5,0.7-0.7,1
	l-0.8-0.1l-0.5,1.1l0.6,0.5c-0.1,0.4-0.2,0.8-0.3,1.2l-0.8,0.2v1.2l0.8,0.2c0,0.4,0.1,0.8,0.2,1.2l-0.6,0.5l0.5,1.1l0.8-0.1
	c0.2,0.4,0.4,0.7,0.7,1.1l-0.4,0.7l0.9,0.9l0.7-0.4c0.3,0.3,0.7,0.5,1,0.7l-0.1,0.8l1.1,0.5l0.5-0.6c0.4,0.1,0.8,0.2,1.2,0.2
	l0.2,0.8h1.2l0.2-0.8c0.4,0,0.8-0.1,1.2-0.2l0.5,0.6l1.1-0.5l-0.1-0.8c0.4-0.2,0.7-0.4,1.1-0.7l0.7,0.4l0.9-0.9l-0.4-0.7
	c0.3-0.3,0.5-0.7,0.7-1l0.8,0.1l0.5-1.1l-0.6-0.5c0.1-0.4,0.2-0.8,0.2-1.2L428.2,283.5z M420.1,285.7c-0.6,0-1.1-0.2-1.6-0.5
	c-0.5-0.3-0.8-0.8-1-1.3c-0.2-0.5-0.3-1.1-0.1-1.6c0.1-0.5,0.4-1,0.8-1.4c0.4-0.4,0.9-0.7,1.5-0.8c0.5-0.1,1.1,0,1.6,0.2
	c0.5,0.2,1,0.6,1.3,1c0.3,0.5,0.5,1,0.5,1.6c0,0.4-0.1,0.7-0.2,1.1c-0.1,0.3-0.4,0.7-0.6,0.9c-0.3,0.3-0.6,0.5-0.9,0.6
	S420.4,285.7,420.1,285.7z"/>
<path class="st13" d="M210.6,298.3l-2.2-3.3l1.5-3.7l-3.8,1l-3-2.6l-0.2,4l-3.4,2.1l3.7,1.4l0.9,3.8l2.5-3.1L210.6,298.3z"/>
<path class="st13" d="M224,293.1l-1,2.2l-2.4,0.4l1.8,1.7l-0.4,2.4l2.1-1.2l2.2,1.1l-0.5-2.4l1.7-1.7l-2.4-0.3L224,293.1z"/>
<path class="st37" d="M297.1,202.5l4.4-3.7l5.5,1.5l-2.2-5.3l3.2-4.8l-5.7,0.4l-3.6-4.5l-1.4,5.6l-5.4,2l4.9,3L297.1,202.5z"/>
<path class="st13" d="M304.1,214.6l-2.3-0.8l-0.7-2.3l-1.4,2l-2.4-0.1l1.4,2l-0.8,2.3l2.3-0.7l1.9,1.5l0-2.4L304.1,214.6z"/>
<path class="st38" d="M174.8,43c-4.1,0-8.1,0.8-11.9,2.4c-3.8,1.6-7.2,3.8-10.1,6.7c-2.9,2.9-5.2,6.3-6.7,10.1
	c-1.6,3.8-2.4,7.8-2.4,11.9c0,6.2,4.7,15.2,6.9,19c1,1.7,1.9,3.4,2.8,5.1l6.1,12.1c0.4,0.7,0.9,1.3,1.6,1.8c0.7,0.4,1.5,0.7,2.3,0.7
	h22.4c0.8,0,1.6-0.2,2.3-0.7c0.7-0.4,1.3-1.1,1.6-1.8l6.1-12.1c0.9-1.7,1.8-3.4,2.8-5.1c2.2-3.8,6.9-12.8,6.9-19
	c0-8.2-3.3-16.1-9.1-21.9S183,43,174.8,43z"/>
<path class="st39" d="M168.2,112.6c0,0-1.1-28.6-7.3-27.7c-6.3,1-2.9,10.2,12.7,10.7c15.6,0.5,14.8-10.8,11.5-10.8
	c-3.3,0-8.6,12.6-5.1,27.7"/>
<path class="st40" d="M157.9,54c4.2-4.4,10.4-7.5,19.6-6.3"/>
<path class="st40" d="M152.4,60.4c0.8-1.2,1.7-2.4,2.8-3.3"/>
<path class="st9" d="M189.7,126.4c0,0.1,0,0.3,0,0.4c0,0.6-0.1,1.2-0.3,1.8c-0.3,1.4-1,2.7-2,3.8c-0.7,0.8-1.5,1.4-2.5,1.8
	c-0.9,0.4-2,0.7-3,0.7h-16.1c-1.8-0.1-3.5-0.7-4.8-1.9c-1.4-1.1-2.3-2.7-2.6-4.4c-0.1-0.6-0.2-1.2-0.3-1.8c0-0.1,0-0.3,0-0.4
	c0-0.3,0-0.5,0-0.8c0-0.1,0-0.2,0-0.2c0.2-1.9,1-3.6,2.3-5c0.7-0.8,1.5-1.4,2.5-1.8c0.9-0.4,2-0.7,3-0.7h16.1
	c1.7,0.1,3.3,0.7,4.6,1.7c1.3,1.1,2.3,2.5,2.7,4.1c0.2,0.5,0.3,1.1,0.3,1.7c0,0.1,0,0.2,0,0.2C189.6,126,189.7,126.2,189.7,126.4z"
	/>
<path class="st13" d="M189.3,123.8h-30.8c0.4-1.2,1-2.4,1.9-3.3c0.7-0.8,1.5-1.4,2.5-1.8c0.9-0.4,2-0.7,3-0.7h16.1
	c1.7,0.1,3.3,0.7,4.6,1.7C187.9,120.7,188.8,122.1,189.3,123.8z"/>
<path class="st13" d="M189.4,128.7c-0.3,1.4-1,2.7-2,3.8c-0.7,0.8-1.5,1.4-2.5,1.8c-0.9,0.4-2,0.7-3,0.7h-16.1
	c-1.8-0.1-3.5-0.7-4.8-1.9c-1.4-1.1-2.3-2.7-2.6-4.4H189.4z"/>
<path class="st10" d="M189.7,126.4c0,0.1,0,0.3,0,0.4H158c0-0.1,0-0.3,0-0.4c0-0.3,0-0.5,0-0.8c0-0.1,0-0.2,0-0.2h31.6
	c0,0.1,0,0.2,0,0.2C189.6,125.9,189.7,126.2,189.7,126.4z"/>
<path class="st34" d="M171.8,143.8v50.9h11.9v91.8"/>
<radialGradient id="SVGID_00000070105233913964268120000004198125890436116144_" cx="-9.2642" cy="667.1929" r="1" gradientTransform="matrix(98.7288 -20.6779 -20.6779 -98.7288 15201.9668 66016.5)" gradientUnits="userSpaceOnUse">
	<stop  offset="0" style="stop-color:#504ED8"/>
	<stop  offset="1" style="stop-color:#504ED8"/>
</radialGradient>
<path style="fill:url(#SVGID_00000070105233913964268120000004198125890436116144_);" d="M508.9,427c37.6,0,68-30.4,68-68
	s-30.4-68-68-68c-37.6,0-68,30.4-68,68S471.4,427,508.9,427z"/>
<radialGradient id="SVGID_00000103259154117560258300000014477012088867643027_" cx="-9.2376" cy="667.3641" r="1" gradientTransform="matrix(109.8114 -22.999 -22.999 -109.8114 16857.6504 73408.5234)" gradientUnits="userSpaceOnUse">
	<stop  offset="0" style="stop-color:#00CAD7"/>
	<stop  offset="0.1121" style="stop-color:#00CAD7;stop-opacity:0.8879"/>
	<stop  offset="0.2691" style="stop-color:#00CAD7;stop-opacity:0.7309"/>
	<stop  offset="0.3703" style="stop-color:#00CAD7;stop-opacity:0.5537"/>
	<stop  offset="0.5109" style="stop-color:#00CAD7;stop-opacity:0.3412"/>
	<stop  offset="0.6672" style="stop-color:#00CAD7;stop-opacity:0"/>
</radialGradient>
<path style="fill:url(#SVGID_00000103259154117560258300000014477012088867643027_);" d="M508.9,427c37.6,0,68-30.4,68-68
	s-30.4-68-68-68c-37.6,0-68,30.4-68,68S471.4,427,508.9,427z"/>
<linearGradient id="SVGID_00000177483362577658164130000009180712642560107171_" gradientUnits="userSpaceOnUse" x1="149.6897" y1="398.7057" x2="0.7345" y2="398.2738" gradientTransform="matrix(1 0 0 -1 0 495.8898)">
	<stop  offset="0.4588" style="stop-color:#504ED8"/>
	<stop  offset="1" style="stop-color:#00CAD7"/>
</linearGradient>
<path style="fill:url(#SVGID_00000177483362577658164130000009180712642560107171_);" d="M114.9,194.4l-114-36.8L149.4,0
	L114.9,194.4z"/>
<linearGradient id="SVGID_00000113329509826809495930000004490873136187460744_" gradientUnits="userSpaceOnUse" x1="135.7487" y1="455.302" x2="-38.7631" y2="345.1825" gradientTransform="matrix(1 0 0 -1 0 495.8898)">
	<stop  offset="0" style="stop-color:#00CAD7"/>
	<stop  offset="0.3911" style="stop-color:#504ED8"/>
</linearGradient>
<path style="fill:url(#SVGID_00000113329509826809495930000004490873136187460744_);" d="M0.9,157.6l38.2-86.2L149.4,0L0.9,157.6z"
	/>
<radialGradient id="SVGID_00000087371248637086668840000011767421315131357848_" cx="-9.4278" cy="666.1424" r="1" gradientTransform="matrix(60.9795 -12.7716 -12.7716 -60.9795 9162.5938 40799.9688)" gradientUnits="userSpaceOnUse">
	<stop  offset="0" style="stop-color:#504ED8"/>
	<stop  offset="1" style="stop-color:#504ED8"/>
</radialGradient>
<path style="fill:url(#SVGID_00000087371248637086668840000011767421315131357848_);" d="M90.9,355c23.2,0,42-18.8,42-42
	s-18.8-42-42-42c-23.2,0-42,18.8-42,42S67.7,355,90.9,355z"/>
<radialGradient id="SVGID_00000079463254877616480380000011808959441226204067_" cx="-9.3847" cy="666.4197" r="1" gradientTransform="matrix(67.8248 -14.2053 -14.2053 -67.8248 10185.248 45365.75)" gradientUnits="userSpaceOnUse">
	<stop  offset="0" style="stop-color:#00CAD7"/>
	<stop  offset="0.1121" style="stop-color:#00CAD7;stop-opacity:0.8879"/>
	<stop  offset="0.2691" style="stop-color:#00CAD7;stop-opacity:0.7309"/>
	<stop  offset="0.3703" style="stop-color:#00CAD7;stop-opacity:0.5537"/>
	<stop  offset="0.5109" style="stop-color:#00CAD7;stop-opacity:0.3412"/>
	<stop  offset="0.6672" style="stop-color:#00CAD7;stop-opacity:0"/>
</radialGradient>
<path style="fill:url(#SVGID_00000079463254877616480380000011808959441226204067_);" d="M90.9,355c23.2,0,42-18.8,42-42
	s-18.8-42-42-42c-23.2,0-42,18.8-42,42S67.7,355,90.9,355z"/>
<linearGradient id="SVGID_00000039840988841655466700000016995453779707157409_" gradientUnits="userSpaceOnUse" x1="148.1935" y1="22.0379" x2="31.8751" y2="-12.7241" gradientTransform="matrix(1 0 0 -1 0 495.8898)">
	<stop  offset="0" style="stop-color:#504ED8"/>
	<stop  offset="1" style="stop-color:#00CAD7"/>
</linearGradient>
<path style="fill:url(#SVGID_00000039840988841655466700000016995453779707157409_);" d="M130.8,464c1.3,0,2.4,1.1,2.4,2.4v25.3
	c0,1.3-1.1,2.4-2.4,2.4s-2.4-1.1-2.4-2.4v-25.3C128.4,465.1,129.5,464,130.8,464z"/>
<linearGradient id="SVGID_00000064335374596959299500000006608259463866383257_" gradientUnits="userSpaceOnUse" x1="146.9139" y1="26.3176" x2="30.5957" y2="-8.4444" gradientTransform="matrix(1 0 0 -1 0 495.8898)">
	<stop  offset="0" style="stop-color:#504ED8"/>
	<stop  offset="1" style="stop-color:#00CAD7"/>
</linearGradient>
<path style="fill:url(#SVGID_00000064335374596959299500000006608259463866383257_);" d="M115.2,464c1.3,0,2.4,1.1,2.4,2.4v25.3
	c0,1.3-1.1,2.4-2.4,2.4c-1.3,0-2.4-1.1-2.4-2.4v-25.3C112.8,465.1,113.9,464,115.2,464z"/>
<linearGradient id="SVGID_00000127004290467645518490000005859142068032742570_" gradientUnits="userSpaceOnUse" x1="145.6355" y1="30.5965" x2="29.3171" y2="-4.1655" gradientTransform="matrix(1 0 0 -1 0 495.8898)">
	<stop  offset="0" style="stop-color:#504ED8"/>
	<stop  offset="1" style="stop-color:#00CAD7"/>
</linearGradient>
<path style="fill:url(#SVGID_00000127004290467645518490000005859142068032742570_);" d="M99.6,464c1.3,0,2.4,1.1,2.4,2.4v25.3
	c0,1.3-1.1,2.4-2.4,2.4c-1.3,0-2.4-1.1-2.4-2.4v-25.3C97.3,465.1,98.3,464,99.6,464z"/>
<linearGradient id="SVGID_00000038380563944568780440000012894288363643505558_" gradientUnits="userSpaceOnUse" x1="144.3647" y1="34.85" x2="28.0465" y2="8.804064e-02" gradientTransform="matrix(1 0 0 -1 0 495.8898)">
	<stop  offset="0" style="stop-color:#504ED8"/>
	<stop  offset="1" style="stop-color:#00CAD7"/>
</linearGradient>
<path style="fill:url(#SVGID_00000038380563944568780440000012894288363643505558_);" d="M84.1,464c1.3,0,2.4,1.1,2.4,2.4v25.3
	c0,1.3-1.1,2.4-2.4,2.4c-1.3,0-2.4-1.1-2.4-2.4v-25.3C81.7,465.1,82.8,464,84.1,464z"/>
<linearGradient id="SVGID_00000104678013176752749880000003820128775001895087_" gradientUnits="userSpaceOnUse" x1="143.0861" y1="39.1299" x2="26.7674" y2="4.3679" gradientTransform="matrix(1 0 0 -1 0 495.8898)">
	<stop  offset="0" style="stop-color:#504ED8"/>
	<stop  offset="1" style="stop-color:#00CAD7"/>
</linearGradient>
<path style="fill:url(#SVGID_00000104678013176752749880000003820128775001895087_);" d="M68.5,464c1.3,0,2.4,1.1,2.4,2.4v25.3
	c0,1.3-1.1,2.4-2.4,2.4c-1.3,0-2.4-1.1-2.4-2.4v-25.3C66.1,465.1,67.2,464,68.5,464z"/>
<linearGradient id="SVGID_00000059292598543571578170000006832935303195921078_" gradientUnits="userSpaceOnUse" x1="141.806" y1="43.408" x2="25.489" y2="8.647" gradientTransform="matrix(1 0 0 -1 0 495.8898)">
	<stop  offset="0" style="stop-color:#504ED8"/>
	<stop  offset="1" style="stop-color:#00CAD7"/>
</linearGradient>
<path style="fill:url(#SVGID_00000059292598543571578170000006832935303195921078_);" d="M52.9,464c1.3,0,2.4,1.1,2.4,2.4v25.3
	c0,1.3-1.1,2.4-2.4,2.4c-1.3,0-2.4-1.1-2.4-2.4v-25.3C50.6,465.1,51.6,464,52.9,464z"/>
<linearGradient id="SVGID_00000069363050148832500200000014609493627030266254_" gradientUnits="userSpaceOnUse" x1="140.5362" y1="47.6614" x2="24.2177" y2="12.9004" gradientTransform="matrix(1 0 0 -1 0 495.8898)">
	<stop  offset="0" style="stop-color:#504ED8"/>
	<stop  offset="1" style="stop-color:#00CAD7"/>
</linearGradient>
<path style="fill:url(#SVGID_00000069363050148832500200000014609493627030266254_);" d="M37.4,464c1.3,0,2.4,1.1,2.4,2.4v25.3
	c0,1.3-1.1,2.4-2.4,2.4c-1.3,0-2.4-1.1-2.4-2.4v-25.3C35,465.1,36.1,464,37.4,464z"/>
<linearGradient id="SVGID_00000120529963298109490270000004701082224684309664_" gradientUnits="userSpaceOnUse" x1="176.8099" y1="403.6067" x2="214.6209" y2="484.6302" gradientTransform="matrix(1 0 0 -1 0 495.8898)">
	<stop  offset="0.6255" style="stop-color:#504ED8"/>
	<stop  offset="1" style="stop-color:#00CAD7"/>
</linearGradient>
<path style="fill:url(#SVGID_00000120529963298109490270000004701082224684309664_);" d="M204.9,43c-6.1,0-11-4.9-11-11
	s4.9-11,11-11s11,4.9,11,11S211,43,204.9,43z M204.9,26.7c-2.9,0-5.3,2.4-5.3,5.3s2.4,5.3,5.3,5.3s5.3-2.4,5.3-5.3
	S207.8,26.7,204.9,26.7z"/>
<linearGradient id="SVGID_00000070107318147406728780000018366496685308811151_" gradientUnits="userSpaceOnUse" x1="517.1455" y1="344.3922" x2="450.6235" y2="271.3492" gradientTransform="matrix(1 0 0 -1 0 495.8898)">
	<stop  offset="0" style="stop-color:#504ED8"/>
	<stop  offset="1" style="stop-color:#00CAD7"/>
</linearGradient>
<path style="fill:url(#SVGID_00000070107318147406728780000018366496685308811151_);" d="M479.3,222.8l-28.4-28.4h28.4V222.8z"/>
<linearGradient id="SVGID_00000109739781986675303170000010201436873071778218_" gradientUnits="userSpaceOnUse" x1="517.8079" y1="343.7889" x2="451.2859" y2="270.745" gradientTransform="matrix(1 0 0 -1 0 495.8898)">
	<stop  offset="0" style="stop-color:#504ED8"/>
	<stop  offset="1" style="stop-color:#00CAD7"/>
</linearGradient>
<path style="fill:url(#SVGID_00000109739781986675303170000010201436873071778218_);" d="M493.9,208.1l-28.4-28.4h28.4V208.1z"/>
<linearGradient id="SVGID_00000073694944526862926890000012719250869711642770_" gradientUnits="userSpaceOnUse" x1="518.5259" y1="343.1361" x2="452.0039" y2="270.0921" gradientTransform="matrix(1 0 0 -1 0 495.8898)">
	<stop  offset="0" style="stop-color:#504ED8"/>
	<stop  offset="1" style="stop-color:#00CAD7"/>
</linearGradient>
<path style="fill:url(#SVGID_00000073694944526862926890000012719250869711642770_);" d="M508.6,193.4L480.2,165h28.4V193.4z"/>
</svg>
